<svg 
    width="19" 
    height="20" 
    viewBox="0 0 19 20" 
    fill="none" 
    xmlns="http://www.w3.org/2000/svg"
>
    <g id="&#240;&#159;&#166;&#134; icon &#34;call&#34;">
        <path 
        id="Vector" 
        d="M13.7995 20C12.837 20 11.8233 19.7488 10.7755 19.2651C9.75336 18.7907 8.72266 18.1395 7.71751 17.3488C6.72088 16.5488 5.75832 15.6558 4.84687 14.6791C3.94394 13.6837 3.12619 12.6326 2.40214 11.5535C1.66957 10.4372 1.08181 9.32093 0.664421 8.24186C0.221474 7.08837 0 5.97209 0 4.92093C0 4.19535 0.119255 3.50698 0.349247 2.86512C0.587757 2.20465 0.971077 1.5907 1.49069 1.06047C2.14659 0.353488 2.89619 0 3.69691 0C4.02912 0 4.36985 0.0837209 4.65947 0.232558C4.99168 0.4 5.27278 0.651163 5.47722 0.986046L7.45344 4.02791C7.63233 4.29767 7.76862 4.55814 7.86232 4.8186C7.97305 5.09767 8.03268 5.37674 8.03268 5.64651C8.03268 6 7.93898 6.34419 7.7601 6.66977C7.63233 6.92093 7.43641 7.1907 7.18938 7.46047L6.61014 8.12093C6.61866 8.14884 6.62718 8.16744 6.63569 8.18605C6.73791 8.3814 6.94235 8.71628 7.33419 9.21861C7.75158 9.73954 8.14342 10.214 8.53526 10.6512C9.03783 11.1907 9.45522 11.6186 9.84706 11.9721C10.3326 12.4186 10.6478 12.6419 10.8352 12.7442L10.8181 12.7907L11.44 12.1209C11.704 11.8326 11.9596 11.6186 12.2066 11.4791C12.6751 11.1628 13.2714 11.107 13.8677 11.3767C14.0891 11.4791 14.3276 11.6186 14.5832 11.814L17.4112 14.0093C17.7264 14.2419 17.9564 14.5395 18.0927 14.893C18.2205 15.2465 18.2801 15.5721 18.2801 15.8977C18.2801 16.3442 18.1864 16.7907 18.0075 17.2093C17.8286 17.6279 17.6072 17.9907 17.3261 18.3256C16.8405 18.9116 16.3124 19.3302 15.6991 19.6C15.1113 19.8605 14.4725 20 13.7995 20ZM3.69691 1.39535C3.22841 1.39535 2.79398 1.6186 2.37658 2.06512C1.98475 2.46512 1.71216 2.90233 1.5418 3.37674C1.36292 3.86047 1.27773 4.37209 1.27773 4.92093C1.27773 5.78605 1.46513 6.72558 1.83994 7.69302C2.22326 8.67907 2.7599 9.70233 3.44136 10.7256C4.12282 11.7488 4.89798 12.7442 5.7498 13.6837C6.60162 14.6047 7.52159 15.4605 8.46711 16.214C9.38708 16.9488 10.3326 17.5442 11.2696 17.9721C12.7262 18.6512 14.0891 18.8093 15.2135 18.2977C15.648 18.1023 16.0313 17.8047 16.3805 17.3767C16.5765 17.1442 16.7298 16.893 16.8576 16.5954C16.9598 16.3628 17.0109 16.1209 17.0109 15.8791C17.0109 15.7302 16.9853 15.5814 16.9172 15.414C16.8916 15.3581 16.8405 15.2558 16.6787 15.1349L13.8506 12.9395C13.6803 12.8093 13.5269 12.7163 13.3821 12.6512C13.1947 12.5674 13.1181 12.4837 12.8284 12.6791C12.6581 12.7721 12.5047 12.9116 12.3344 13.0977L11.687 13.7953C11.3548 14.1488 10.8437 14.2326 10.4519 14.0744L10.2219 13.9628C9.87262 13.7581 9.46374 13.4419 9.01228 13.0233C8.6034 12.6419 8.16045 12.1953 7.62381 11.6186C7.20641 11.1535 6.78902 10.6605 6.35459 10.1116C5.95424 9.6 5.66462 9.16279 5.48573 8.8L5.38352 8.52093C5.33241 8.30698 5.31537 8.18605 5.31537 8.05581C5.31537 7.72093 5.42611 7.42326 5.63906 7.1907L6.27793 6.46512C6.44829 6.27907 6.57607 6.10233 6.66125 5.94419C6.72939 5.82326 6.75495 5.72093 6.75495 5.62791C6.75495 5.55349 6.72939 5.44186 6.6868 5.33023C6.62718 5.1814 6.53347 5.01395 6.41422 4.83721L4.43799 1.78605C4.35281 1.65581 4.25059 1.56279 4.12282 1.49767C3.98653 1.43256 3.84172 1.39535 3.69691 1.39535ZM10.8181 12.8L10.6818 13.4326L10.9118 12.7814C10.8692 12.7721 10.8352 12.7814 10.8181 12.8Z" 
        fill="#182135"/>
    </g>
</svg>
