<svg width="18" height="22" viewBox="0 0 18 22" fill="none" xmlns="http://www.w3.org/2000/svg">
<g id="&#240;&#159;&#166;&#134; icon &#34;location&#34;">
<g id="Group">
<path id="Vector" d="M8.69767 13.0849C6.72216 13.0849 5.1084 11.3327 5.1084 9.16531C5.1084 6.99791 6.72216 5.25586 8.69767 5.25586C10.6731 5.25586 12.2869 7.00804 12.2869 9.17544C12.2869 11.3429 10.6731 13.0849 8.69767 13.0849ZM8.69767 6.77509C7.49198 6.77509 6.49957 7.84868 6.49957 9.17544C6.49957 10.5022 7.48271 11.5758 8.69767 11.5758C9.91263 11.5758 10.8957 10.5022 10.8957 9.17544C10.8957 7.84868 9.90335 6.77509 8.69767 6.77509Z" fill="#182135"/>
<path id="Vector_2" d="M8.69637 21.7858C7.32375 21.7858 5.94184 21.2186 4.866 20.0944C2.13002 17.218 -0.893467 12.6299 0.247296 7.17078C1.27677 2.21808 5.23698 0 8.69637 0H8.70565C12.165 0 16.1252 2.21808 17.1547 7.18091C18.2862 12.64 15.2627 17.218 12.5267 20.0944C11.4509 21.2186 10.069 21.7858 8.69637 21.7858ZM8.69637 1.51923C5.99749 1.51923 2.52882 3.08911 1.61065 7.50501C0.609002 12.2754 3.35425 16.3875 5.83982 18.9904C7.44432 20.6818 9.95771 20.6818 11.5622 18.9904C14.0385 16.3875 16.7837 12.2754 15.8006 7.50501C14.8732 3.08911 11.3953 1.51923 8.69637 1.51923Z" fill="#182135"/>
</g>
</g>
</svg>
