<svg width="21" height="14" viewBox="0 0 21 14" fill="none" xmlns="http://www.w3.org/2000/svg">
<g id="Flag_of_Turkmenistan" clip-path="url(#clip0_109_5080)">
<path id="rect2" d="M20.9673 0H0V13.9782H20.9673V0Z" fill="#00843D"/>
<g id="g14">
<path id="crescent" d="M10.4096 1.55024C11.0293 1.8163 11.4634 2.43205 11.4634 3.14906C11.4634 4.10946 10.6846 4.8883 9.7242 4.8883C9.29425 4.8883 8.90076 4.73211 8.59717 4.4735C8.78498 4.55404 8.99019 4.6027 9.20639 4.61213C10.1659 4.65403 10.9779 3.90991 11.0198 2.95043C11.0441 2.39337 10.8035 1.88604 10.4096 1.55024Z" fill="white"/>
<path id="star" d="M8.75074 2.82872L8.94779 2.22224L8.43188 2.59706H9.06958L8.55368 2.22224L8.75074 2.82872Z" fill="white"/>
<path id="use6" d="M8.75074 1.93411L8.94779 1.32763L8.43188 1.70245H9.06958L8.55368 1.32763L8.75074 1.93411Z" fill="white"/>
<path id="use8" d="M9.63453 2.39255L9.83158 1.78606L9.31567 2.16089H9.95337L9.43747 1.78606L9.63453 2.39255Z" fill="white"/>
<path id="use10" d="M7.86695 3.26489L8.064 2.6584L7.5481 3.03323H8.18579L7.66989 2.6584L7.86695 3.26489Z" fill="white"/>
<path id="use12" d="M8.75074 3.72332L8.94779 3.11684L8.43188 3.49166H9.06958L8.55368 3.11684L8.75074 3.72332Z" fill="white"/>
</g>
<path id="rect16" d="M6.2901 0H2.51599V13.9782H6.2901V0Z" fill="#D22630"/>
<g id="ornm">
<path id="path18" d="M2.51636 -0.923004V-0.786034L2.7286 -0.58737L2.65702 -0.520736L2.8088 -0.380066L2.74217 -0.319602V-0.407212H2.6126V-0.302327L2.90505 -0.028389H3.05312L3.06917 -0.124637H2.98402L3.07657 -0.211014L3.30855 -8.40425e-06L3.07657 0.212231L2.98402 0.125854H3.06917L3.05312 0.0283725H2.90505L2.6126 0.302312V0.407198H2.74217V0.319588L2.8088 0.380051L2.65702 0.520722L2.7286 0.588587L2.51636 0.786019V0.92299L2.87543 0.588587L2.80386 0.520722L2.95441 0.380051L2.82484 0.259124L2.91122 0.180151L3.07657 0.333161L3.43935 -4.17233e-06L3.07657 -0.33317L2.91122 -0.178926L2.82484 -0.259133L2.95441 -0.38006L2.80386 -0.520731L2.87543 -0.587364L2.51636 -0.923004ZM2.51636 -0.257903V0.257888L2.60027 0.172745V0.0727966H2.68911L2.76068 -6.49691e-06L2.68911 -0.0715756H2.60027V-0.17276L2.51636 -0.257903ZM3.1284 -0.0752785L3.11605 -0.00494319L3.1284 0.0666259L3.2049 -0.00494319L3.1284 -0.0752785Z" fill="#383739"/>
<path id="path20" d="M2.51603 -0.908194V-0.799607L2.74307 -0.587367L2.6715 -0.520734L2.82328 -0.380063L2.73196 -0.294921V-0.397339H2.62214V-0.306026L2.90965 -0.03826H3.04292L3.05649 -0.114765H2.95778L3.07624 -0.225821L3.32302 -7.56979e-06L3.07624 0.225805L2.95778 0.115984H3.05649L3.04289 0.0382451H2.90962L2.62211 0.306011V0.397324H2.73193V0.294906L2.82324 0.380048L2.67147 0.520719L2.74304 0.588584L2.51599 0.799592V0.908179L2.86026 0.588584L2.78869 0.520719L2.93923 0.380049L2.80967 0.259121L2.91085 0.165341L3.0762 0.319585L3.42294 -7.86781e-06L3.0762 -0.319601L2.91085 -0.165357L2.80967 -0.259137L2.93923 -0.380064L2.78869 -0.520735L2.86026 -0.587368L2.51599 -0.908195L2.51603 -0.908194ZM2.51603 -0.243093V0.243082L2.59006 0.169045V0.0616931H2.68507L2.74677 -4.52995e-06L2.68507 -0.0617023H2.59006V-0.169056L2.51603 -0.243093ZM3.13546 -0.0555328L3.12683 -0.00494075L3.13546 0.0456513L3.18976 -0.00494075L3.13546 -0.0555328Z" fill="#FFC72C"/>
</g>
<g id="use23">
<path id="path18_2" d="M2.51636 1.62119V1.75816L2.7286 1.95682L2.65702 2.02345L2.8088 2.16412L2.74217 2.22459V2.13698H2.6126V2.24186L2.90505 2.5158H3.05312L3.06917 2.41955H2.98402L3.07657 2.33318L3.30855 2.54418L3.07657 2.75642L2.98402 2.67004H3.06917L3.05312 2.57256H2.90505L2.6126 2.8465V2.95139H2.74217V2.86378L2.8088 2.92424L2.65702 3.06491L2.7286 3.13278L2.51636 3.33021V3.46718L2.87543 3.13278L2.80386 3.06491L2.95441 2.92424L2.82484 2.80331L2.91122 2.72434L3.07657 2.87735L3.43935 2.54419L3.07657 2.21102L2.91122 2.36526L2.82484 2.28506L2.95441 2.16413L2.80386 2.02346L2.87543 1.95683L2.51636 1.62119ZM2.51636 2.28629V2.80208L2.60027 2.71693V2.61699H2.68911L2.76068 2.54418L2.68911 2.47261H2.60027V2.37143L2.51636 2.28629ZM3.1284 2.46891L3.11605 2.53925L3.1284 2.61082L3.2049 2.53925L3.1284 2.46891Z" fill="#383739"/>
<path id="path20_2" d="M2.51603 1.636V1.74458L2.74307 1.95682L2.6715 2.02346L2.82328 2.16413L2.73196 2.24927V2.14685H2.62214V2.23816L2.90965 2.50593H3.04292L3.05649 2.42942H2.95778L3.07624 2.31837L3.32302 2.54418L3.07624 2.76999L2.95778 2.66017H3.05649L3.04289 2.58243H2.90962L2.62211 2.8502V2.94151H2.73193V2.8391L2.82324 2.92424L2.67147 3.06491L2.74304 3.13277L2.51599 3.34378V3.45237L2.86026 3.13277L2.78869 3.06491L2.93923 2.92424L2.80967 2.80331L2.91085 2.70953L3.0762 2.86377L3.42294 2.54418L3.0762 2.22459L2.91085 2.37883L2.80967 2.28505L2.93923 2.16413L2.78869 2.02345L2.86026 1.95682L2.51599 1.63599L2.51603 1.636ZM2.51603 2.3011V2.78727L2.59006 2.71323V2.60588H2.68507L2.74677 2.54418L2.68507 2.48249H2.59006V2.37513L2.51603 2.3011ZM3.13546 2.48866L3.12683 2.53925L3.13546 2.58984L3.18976 2.53925L3.13546 2.48866Z" fill="#FFC72C"/>
</g>
<g id="use25">
<path id="path18_3" d="M2.51636 4.24905V4.38602L2.7286 4.58468L2.65702 4.65131L2.8088 4.79198L2.74217 4.85245V4.76484H2.6126V4.86972L2.90505 5.14366H3.05312L3.06917 5.04741H2.98402L3.07657 4.96104L3.30855 5.17204L3.07657 5.38428L2.98402 5.2979H3.06917L3.05312 5.20042H2.90505L2.6126 5.47436V5.57925H2.74217V5.49164L2.8088 5.5521L2.65702 5.69277L2.7286 5.76064L2.51636 5.95807V6.09504L2.87543 5.76064L2.80386 5.69277L2.95441 5.5521L2.82484 5.43117L2.91122 5.3522L3.07657 5.50521L3.43935 5.17205L3.07657 4.83888L2.91122 4.99312L2.82484 4.91292L2.95441 4.79199L2.80386 4.65132L2.87543 4.58469L2.51636 4.24905ZM2.51636 4.91415V5.42994L2.60027 5.3448V5.24485H2.68911L2.76068 5.17204L2.68911 5.10047H2.60027V4.99929L2.51636 4.91415ZM3.1284 5.09677L3.11605 5.16711L3.1284 5.23868L3.2049 5.16711L3.1284 5.09677Z" fill="#383739"/>
<path id="path20_3" d="M2.51603 4.26386V4.37244L2.74307 4.58468L2.6715 4.65132L2.82328 4.79199L2.73196 4.87713V4.77471H2.62214V4.86602L2.90965 5.13379H3.04292L3.05649 5.05729H2.95778L3.07624 4.94623L3.32302 5.17204L3.07624 5.39786L2.95778 5.28803H3.05649L3.04289 5.2103H2.90962L2.62211 5.47806V5.56937H2.73193V5.46696L2.82324 5.5521L2.67147 5.69277L2.74304 5.76063L2.51599 5.97164V6.08023L2.86026 5.76063L2.78869 5.69277L2.93923 5.5521L2.80967 5.43117L2.91085 5.33739L3.0762 5.49164L3.42294 5.17204L3.0762 4.85245L2.91085 5.00669L2.80967 4.91291L2.93923 4.79199L2.78869 4.65132L2.86026 4.58468L2.51599 4.26385L2.51603 4.26386ZM2.51603 4.92896V5.41513L2.59006 5.3411V5.23374H2.68507L2.74677 5.17205L2.68507 5.11035H2.59006V5.00299L2.51603 4.92896ZM3.13546 5.11652L3.12683 5.16711L3.13546 5.2177L3.18976 5.16711L3.13546 5.11652Z" fill="#FFC72C"/>
</g>
<g id="use27">
<path id="path18_4" d="M2.51636 6.87687V7.01384L2.7286 7.2125L2.65702 7.27914L2.8088 7.41981L2.74217 7.48027V7.39266H2.6126V7.49755L2.90505 7.77148H3.05312L3.06917 7.67524H2.98402L3.07657 7.58886L3.30855 7.79986L3.07657 8.0121L2.98402 7.92573H3.06917L3.05312 7.82825H2.90505L2.6126 8.10219V8.20707H2.74217V8.11946L2.8088 8.17992L2.65702 8.3206L2.7286 8.38846L2.51636 8.58589V8.72286L2.87543 8.38846L2.80386 8.3206L2.95441 8.17992L2.82484 8.059L2.91122 7.98002L3.07657 8.13303L3.43935 7.79987L3.07657 7.4667L2.91122 7.62095L2.82484 7.54074L2.95441 7.41981L2.80386 7.27914L2.87543 7.21251L2.51636 6.87687ZM2.51636 7.54197V8.05776L2.60027 7.97262V7.87267H2.68911L2.76068 7.79987L2.68911 7.7283H2.60027V7.62711L2.51636 7.54197ZM3.1284 7.72459L3.11605 7.79493L3.1284 7.8665L3.2049 7.79493L3.1284 7.72459Z" fill="#383739"/>
<path id="path20_4" d="M2.51603 6.89168V7.00027L2.74307 7.21251L2.6715 7.27914L2.82328 7.41981L2.73196 7.50495V7.40253H2.62214V7.49385L2.90965 7.76161H3.04292L3.05649 7.68511H2.95778L3.07624 7.57405L3.32302 7.79987L3.07624 8.02568L2.95778 7.91586H3.05649L3.04289 7.83812H2.90962L2.62211 8.10588V8.1972H2.73193V8.09478L2.82324 8.17992L2.67147 8.32059L2.74304 8.38846L2.51599 8.59946V8.70805L2.86026 8.38846L2.78869 8.32059L2.93923 8.17992L2.80967 8.05899L2.91085 7.96521L3.0762 8.11946L3.42294 7.79987L3.0762 7.48027L2.91085 7.63452L2.80967 7.54074L2.93923 7.41981L2.78869 7.27914L2.86026 7.21251L2.51599 6.89168L2.51603 6.89168ZM2.51603 7.55678V8.04296L2.59006 7.96892V7.86157H2.68507L2.74677 7.79987L2.68507 7.73817H2.59006V7.63082L2.51603 7.55678ZM3.13546 7.74434L3.12683 7.79493L3.13546 7.84552L3.18976 7.79493L3.13546 7.74434Z" fill="#FFC72C"/>
</g>
<g id="use29">
<path id="path18_5" d="M2.51636 9.50469V9.64166L2.7286 9.84033L2.65702 9.90696L2.8088 10.0476L2.74217 10.1081V10.0205H2.6126V10.1254L2.90505 10.3993H3.05312L3.06917 10.3031H2.98402L3.07657 10.2167L3.30855 10.4277L3.07657 10.6399L2.98402 10.5536H3.06917L3.05312 10.4561H2.90505L2.6126 10.73V10.8349H2.74217V10.7473L2.8088 10.8077L2.65702 10.9484L2.7286 11.0163L2.51636 11.2137V11.3507L2.87543 11.0163L2.80386 10.9484L2.95441 10.8077L2.82484 10.6868L2.91122 10.6078L3.07657 10.7609L3.43935 10.4277L3.07657 10.0945L2.91122 10.2488L2.82484 10.1686L2.95441 10.0476L2.80386 9.90697L2.87543 9.84033L2.51636 9.50469ZM2.51636 10.1698V10.6856L2.60027 10.6004V10.5005H2.68911L2.76068 10.4277L2.68911 10.3561H2.60027V10.2549L2.51636 10.1698ZM3.1284 10.3524L3.11605 10.4228L3.1284 10.4943L3.2049 10.4228L3.1284 10.3524Z" fill="#383739"/>
<path id="path20_5" d="M2.51603 9.5195V9.62809L2.74307 9.84033L2.6715 9.90696L2.82328 10.0476L2.73196 10.1328V10.0304H2.62214V10.1217L2.90965 10.3894H3.04292L3.05649 10.3129H2.95778L3.07624 10.2019L3.32302 10.4277L3.07624 10.6535L2.95778 10.5437H3.05649L3.04289 10.4659H2.90962L2.62211 10.7337V10.825H2.73193V10.7226L2.82324 10.8077L2.67147 10.9484L2.74304 11.0163L2.51599 11.2273V11.3359L2.86026 11.0163L2.78869 10.9484L2.93923 10.8077L2.80967 10.6868L2.91085 10.593L3.0762 10.7473L3.42294 10.4277L3.0762 10.1081L2.91085 10.2623L2.80967 10.1686L2.93923 10.0476L2.78869 9.90696L2.86026 9.84033L2.51599 9.5195L2.51603 9.5195ZM2.51603 10.1846V10.6708L2.59006 10.5967V10.4894H2.68507L2.74677 10.4277L2.68507 10.366H2.59006V10.2586L2.51603 10.1846ZM3.13546 10.3722L3.12683 10.4228L3.13546 10.4733L3.18976 10.4228L3.13546 10.3722Z" fill="#FFC72C"/>
</g>
<g id="use32">
<g id="g1693">
<path id="path1689" d="M6.28979 -0.923004V-0.786034L6.07756 -0.58737L6.14913 -0.520736L5.99735 -0.380066L6.06398 -0.319602V-0.407212H6.19355V-0.302327L5.9011 -0.028389H5.75303L5.73699 -0.124637H5.82213L5.72959 -0.211014L5.4976 -8.40425e-06L5.72959 0.212231L5.82213 0.125854H5.73699L5.75303 0.0283725H5.9011L6.19355 0.302312V0.407198H6.06398V0.319588L5.99735 0.380051L6.14913 0.520722L6.07756 0.588587L6.28979 0.786019V0.92299L5.93072 0.588587L6.00229 0.520722L5.85175 0.380051L5.98131 0.259124L5.89493 0.180151L5.72959 0.333161L5.3668 -4.17233e-06L5.72959 -0.33317L5.89493 -0.178926L5.98131 -0.259133L5.85175 -0.38006L6.00229 -0.520731L5.93072 -0.587364L6.28979 -0.923004ZM6.28979 -0.257903V0.257888L6.20589 0.172745V0.0727966H6.11704L6.04548 -6.49691e-06L6.11704 -0.0715756H6.20589V-0.17276L6.28979 -0.257903ZM5.67776 -0.0752785L5.6901 -0.00494319L5.67776 0.0666259L5.60125 -0.00494319L5.67776 -0.0752785Z" fill="#383739"/>
<path id="path1691" d="M6.29013 -0.908194V-0.799607L6.06308 -0.587367L6.13465 -0.520734L5.98288 -0.380063L6.07419 -0.294921V-0.397339H6.18401V-0.306026L5.8965 -0.03826H5.76323L5.74966 -0.114765H5.84838L5.72992 -0.225821L5.48313 -7.56979e-06L5.72992 0.225805L5.84838 0.115984H5.74966L5.76327 0.0382451H5.89653L6.18405 0.306011V0.397324H6.07422V0.294906L5.98291 0.380048L6.13469 0.520719L6.06311 0.588584L6.29016 0.799592V0.908179L5.94589 0.588584L6.01746 0.520719L5.86692 0.380049L5.99649 0.259121L5.8953 0.165341L5.72995 0.319585L5.38321 -7.86781e-06L5.72995 -0.319601L5.8953 -0.165357L5.99649 -0.259137L5.86692 -0.380064L6.01746 -0.520735L5.94589 -0.587368L6.29016 -0.908195L6.29013 -0.908194ZM6.29013 -0.243093V0.243082L6.21609 0.169045V0.0616931H6.12108L6.05938 -4.52995e-06L6.12108 -0.0617023H6.21609V-0.169056L6.29013 -0.243093ZM5.67069 -0.0555328L5.67932 -0.00494075L5.67069 0.0456513L5.61639 -0.00494075L5.67069 -0.0555328Z" fill="#FFC72C"/>
</g>
<g id="use1695">
<path id="path18_6" d="M6.28979 1.62119V1.75816L6.07756 1.95682L6.14913 2.02345L5.99735 2.16412L6.06398 2.22459V2.13698H6.19355V2.24186L5.9011 2.5158H5.75303L5.73699 2.41955H5.82213L5.72959 2.33318L5.4976 2.54418L5.72959 2.75642L5.82213 2.67004H5.73699L5.75303 2.57256H5.9011L6.19355 2.8465V2.95139H6.06398V2.86378L5.99735 2.92424L6.14913 3.06491L6.07756 3.13278L6.28979 3.33021V3.46718L5.93072 3.13278L6.00229 3.06491L5.85175 2.92424L5.98131 2.80331L5.89493 2.72434L5.72959 2.87735L5.3668 2.54419L5.72959 2.21102L5.89493 2.36526L5.98131 2.28506L5.85175 2.16413L6.00229 2.02346L5.93072 1.95683L6.28979 1.62119ZM6.28979 2.28629V2.80208L6.20589 2.71693V2.61699H6.11704L6.04548 2.54418L6.11704 2.47261H6.20589V2.37143L6.28979 2.28629ZM5.67776 2.46891L5.6901 2.53925L5.67776 2.61082L5.60125 2.53925L5.67776 2.46891Z" fill="#383739"/>
<path id="path20_6" d="M6.29013 1.636V1.74458L6.06308 1.95682L6.13465 2.02346L5.98288 2.16413L6.07419 2.24927V2.14685H6.18401V2.23816L5.8965 2.50593H5.76323L5.74966 2.42942H5.84838L5.72992 2.31837L5.48313 2.54418L5.72992 2.76999L5.84838 2.66017H5.74966L5.76327 2.58243H5.89653L6.18405 2.8502V2.94151H6.07422V2.8391L5.98291 2.92424L6.13469 3.06491L6.06311 3.13277L6.29016 3.34378V3.45237L5.94589 3.13277L6.01746 3.06491L5.86692 2.92424L5.99649 2.80331L5.8953 2.70953L5.72995 2.86377L5.38321 2.54418L5.72995 2.22459L5.8953 2.37883L5.99649 2.28505L5.86692 2.16413L6.01746 2.02345L5.94589 1.95682L6.29016 1.63599L6.29013 1.636ZM6.29013 2.3011V2.78727L6.21609 2.71323V2.60588H6.12108L6.05938 2.54418L6.12108 2.48249H6.21609V2.37513L6.29013 2.3011ZM5.67069 2.48866L5.67932 2.53925L5.67069 2.58984L5.61639 2.53925L5.67069 2.48866Z" fill="#FFC72C"/>
</g>
<g id="use1697">
<path id="path18_7" d="M6.28979 4.24905V4.38602L6.07756 4.58468L6.14913 4.65131L5.99735 4.79198L6.06398 4.85245V4.76484H6.19355V4.86972L5.9011 5.14366H5.75303L5.73699 5.04741H5.82213L5.72959 4.96104L5.4976 5.17204L5.72959 5.38428L5.82213 5.2979H5.73699L5.75303 5.20042H5.9011L6.19355 5.47436V5.57925H6.06398V5.49164L5.99735 5.5521L6.14913 5.69277L6.07756 5.76064L6.28979 5.95807V6.09504L5.93072 5.76064L6.00229 5.69277L5.85175 5.5521L5.98131 5.43117L5.89493 5.3522L5.72959 5.50521L5.3668 5.17205L5.72959 4.83888L5.89493 4.99312L5.98131 4.91292L5.85175 4.79199L6.00229 4.65132L5.93072 4.58469L6.28979 4.24905ZM6.28979 4.91415V5.42994L6.20589 5.3448V5.24485H6.11704L6.04548 5.17204L6.11704 5.10047H6.20589V4.99929L6.28979 4.91415ZM5.67776 5.09677L5.6901 5.16711L5.67776 5.23868L5.60125 5.16711L5.67776 5.09677Z" fill="#383739"/>
<path id="path20_7" d="M6.29013 4.26386V4.37244L6.06308 4.58468L6.13465 4.65132L5.98288 4.79199L6.07419 4.87713V4.77471H6.18401V4.86602L5.8965 5.13379H5.76323L5.74966 5.05729H5.84838L5.72992 4.94623L5.48313 5.17204L5.72992 5.39786L5.84838 5.28803H5.74966L5.76327 5.2103H5.89653L6.18405 5.47806V5.56937H6.07422V5.46696L5.98291 5.5521L6.13469 5.69277L6.06311 5.76063L6.29016 5.97164V6.08023L5.94589 5.76063L6.01746 5.69277L5.86692 5.5521L5.99649 5.43117L5.8953 5.33739L5.72995 5.49164L5.38321 5.17204L5.72995 4.85245L5.8953 5.00669L5.99649 4.91291L5.86692 4.79199L6.01746 4.65132L5.94589 4.58468L6.29016 4.26385L6.29013 4.26386ZM6.29013 4.92896V5.41513L6.21609 5.3411V5.23374H6.12108L6.05938 5.17205L6.12108 5.11035H6.21609V5.00299L6.29013 4.92896ZM5.67069 5.11652L5.67932 5.16711L5.67069 5.2177L5.61639 5.16711L5.67069 5.11652Z" fill="#FFC72C"/>
</g>
<g id="use1699">
<path id="path18_8" d="M6.28979 6.87687V7.01384L6.07756 7.2125L6.14913 7.27914L5.99735 7.41981L6.06398 7.48027V7.39266H6.19355V7.49755L5.9011 7.77148H5.75303L5.73699 7.67524H5.82213L5.72959 7.58886L5.4976 7.79986L5.72959 8.0121L5.82213 7.92573H5.73699L5.75303 7.82825H5.9011L6.19355 8.10219V8.20707H6.06398V8.11946L5.99735 8.17992L6.14913 8.3206L6.07756 8.38846L6.28979 8.58589V8.72286L5.93072 8.38846L6.00229 8.3206L5.85175 8.17992L5.98131 8.059L5.89493 7.98002L5.72959 8.13303L5.3668 7.79987L5.72959 7.4667L5.89493 7.62095L5.98131 7.54074L5.85175 7.41981L6.00229 7.27914L5.93072 7.21251L6.28979 6.87687ZM6.28979 7.54197V8.05776L6.20589 7.97262V7.87267H6.11704L6.04548 7.79987L6.11704 7.7283H6.20589V7.62711L6.28979 7.54197ZM5.67776 7.72459L5.6901 7.79493L5.67776 7.8665L5.60125 7.79493L5.67776 7.72459Z" fill="#383739"/>
<path id="path20_8" d="M6.29013 6.89168V7.00027L6.06308 7.21251L6.13465 7.27914L5.98288 7.41981L6.07419 7.50495V7.40253H6.18401V7.49385L5.8965 7.76161H5.76323L5.74966 7.68511H5.84838L5.72992 7.57405L5.48313 7.79987L5.72992 8.02568L5.84838 7.91586H5.74966L5.76327 7.83812H5.89653L6.18405 8.10588V8.1972H6.07422V8.09478L5.98291 8.17992L6.13469 8.32059L6.06311 8.38846L6.29016 8.59946V8.70805L5.94589 8.38846L6.01746 8.32059L5.86692 8.17992L5.99649 8.05899L5.8953 7.96521L5.72995 8.11946L5.38321 7.79987L5.72995 7.48027L5.8953 7.63452L5.99649 7.54074L5.86692 7.41981L6.01746 7.27914L5.94589 7.21251L6.29016 6.89168L6.29013 6.89168ZM6.29013 7.55678V8.04296L6.21609 7.96892V7.86157H6.12108L6.05938 7.79987L6.12108 7.73817H6.21609V7.63082L6.29013 7.55678ZM5.67069 7.74434L5.67932 7.79493L5.67069 7.84552L5.61639 7.79493L5.67069 7.74434Z" fill="#FFC72C"/>
</g>
<g id="use1701">
<path id="path18_9" d="M6.28979 9.50469V9.64166L6.07756 9.84033L6.14913 9.90696L5.99735 10.0476L6.06398 10.1081V10.0205H6.19355V10.1254L5.9011 10.3993H5.75303L5.73699 10.3031H5.82213L5.72959 10.2167L5.4976 10.4277L5.72959 10.6399L5.82213 10.5536H5.73699L5.75303 10.4561H5.9011L6.19355 10.73V10.8349H6.06398V10.7473L5.99735 10.8077L6.14913 10.9484L6.07756 11.0163L6.28979 11.2137V11.3507L5.93072 11.0163L6.00229 10.9484L5.85175 10.8077L5.98131 10.6868L5.89493 10.6078L5.72959 10.7609L5.3668 10.4277L5.72959 10.0945L5.89493 10.2488L5.98131 10.1686L5.85175 10.0476L6.00229 9.90697L5.93072 9.84033L6.28979 9.50469ZM6.28979 10.1698V10.6856L6.20589 10.6004V10.5005H6.11704L6.04548 10.4277L6.11704 10.3561H6.20589V10.2549L6.28979 10.1698ZM5.67776 10.3524L5.6901 10.4228L5.67776 10.4943L5.60125 10.4228L5.67776 10.3524Z" fill="#383739"/>
<path id="path20_9" d="M6.29013 9.5195V9.62809L6.06308 9.84033L6.13465 9.90696L5.98288 10.0476L6.07419 10.1328V10.0304H6.18401V10.1217L5.8965 10.3894H5.76323L5.74966 10.3129H5.84838L5.72992 10.2019L5.48313 10.4277L5.72992 10.6535L5.84838 10.5437H5.74966L5.76327 10.4659H5.89653L6.18405 10.7337V10.825H6.07422V10.7226L5.98291 10.8077L6.13469 10.9484L6.06311 11.0163L6.29016 11.2273V11.3359L5.94589 11.0163L6.01746 10.9484L5.86692 10.8077L5.99649 10.6868L5.8953 10.593L5.72995 10.7473L5.38321 10.4277L5.72995 10.1081L5.8953 10.2623L5.99649 10.1686L5.86692 10.0476L6.01746 9.90696L5.94589 9.84033L6.29016 9.5195L6.29013 9.5195ZM6.29013 10.1846V10.6708L6.21609 10.5967V10.4894H6.12108L6.05938 10.4277L6.12108 10.366H6.21609V10.2586L6.29013 10.1846ZM5.67069 10.3722L5.67932 10.4228L5.67069 10.4733L5.61639 10.4228L5.67069 10.3722Z" fill="#FFC72C"/>
</g>
</g>
<path id="branch" d="M2.82221 12.3666C2.84083 12.446 2.90394 12.5059 2.91898 12.5882C2.94909 12.5024 2.97685 12.4304 2.95612 12.3365C2.94129 12.2694 2.88479 12.2215 2.87825 12.1524C2.81665 12.2078 2.80338 12.2864 2.82221 12.3666ZM2.8066 12.6992C2.85885 12.7708 2.93148 12.8258 3.01168 12.8624C2.99589 12.7997 3.02552 12.7524 3.05841 12.7026C3.09804 12.6426 3.11736 12.5837 3.08506 12.5147C3.07 12.5506 3.04977 12.5804 3.02604 12.6111C2.99094 12.659 2.96786 12.7016 2.96245 12.763C2.92186 12.7329 2.90402 12.688 2.88232 12.6445C2.84923 12.5822 2.79583 12.5302 2.7345 12.4961C2.7508 12.566 2.76335 12.6398 2.8066 12.6992ZM3.09963 12.9127C3.08847 12.9525 3.07884 12.992 3.08099 13.0335C3.04646 12.9963 3.00061 12.9683 2.95971 12.9384C2.90401 12.8933 2.83908 12.8616 2.79354 12.8042C2.80033 12.8886 2.83647 12.9574 2.90507 13.0088C2.97759 13.0631 3.06505 13.0923 3.13648 13.1493C3.12579 13.0725 3.154 13.011 3.17805 12.9404C3.1981 12.8729 3.1787 12.8045 3.13296 12.7531C3.13364 12.81 3.11567 12.859 3.09963 12.9127ZM3.26238 13.1721C3.27741 13.2303 3.31915 13.2777 3.34765 13.3297C3.2708 13.3059 3.20299 13.2642 3.13352 13.2249C3.05077 13.1799 2.96091 13.1512 2.88601 13.0917C2.92329 13.2297 3.01568 13.3098 3.15085 13.3506C3.24327 13.3785 3.32116 13.3645 3.43331 13.4099C3.42045 13.3339 3.39779 13.252 3.36189 13.1836C3.33403 13.134 3.30314 13.0852 3.28594 13.0307C3.26101 13.0755 3.24922 13.121 3.26238 13.1721ZM3.54518 13.3833C3.57164 13.4286 3.60657 13.4668 3.64989 13.4969C3.54079 13.5038 3.45299 13.4347 3.34663 13.4317C3.28093 13.4298 3.21856 13.4502 3.15156 13.4441C3.23107 13.4977 3.31431 13.5446 3.41111 13.5571C3.53694 13.5734 3.65299 13.5417 3.79181 13.5541C3.72693 13.5083 3.69448 13.447 3.65404 13.3812C3.60138 13.2989 3.55169 13.2402 3.44927 13.227C3.49038 13.2732 3.51431 13.3304 3.54518 13.3833ZM3.93264 13.5644C3.74044 13.597 3.55626 13.6393 3.35996 13.6413C3.57969 13.7179 3.78672 13.7317 4.00464 13.6526C4.12241 13.6099 4.2127 13.587 4.30165 13.5934C4.43163 13.6027 4.5896 13.654 4.76442 13.8384L4.83314 13.7834C4.58257 13.5601 4.25473 13.5096 3.93265 13.5644L3.93264 13.5644Z" fill="#FFC72C"/>
<path id="path37" d="M2.98821 1.63869L2.68579 1.45325V1.00745L2.98821 0.822004V0.586122L3.27399 0.414023H3.50231L3.93674 0.16967H4.8694L5.30384 0.414023H5.53216L5.81794 0.586122V0.822004L6.12036 1.00745L6.12035 1.45325L5.81794 1.63869V1.87458L5.53216 2.04668H5.30384L4.8694 2.29103H3.93674L3.50231 2.04668H3.27399L2.98821 1.87458V1.63869Z" fill="#383739"/>
<path id="path39" d="M3.93876 0.180153L3.50441 0.424475H3.27736L2.99849 0.592292V0.827976L2.69617 1.01307V1.44742L2.99849 1.63251V1.86943L3.27612 2.03725H3.50441L3.93875 2.28157H4.86669L5.30103 2.03725H5.52932L5.80819 1.86943V1.63251L6.11051 1.44742V1.01307L5.80819 0.827976V0.592292L5.52932 0.424475H5.30103L4.86669 0.180153H3.93876ZM3.96467 0.270231H4.84201L5.27636 0.514554H5.5034L5.71441 0.641651V0.877335L6.01796 1.06243V1.39806L5.71441 1.58316V1.81884L5.5034 1.94594H5.27636L4.84201 2.19026H3.96467L3.53032 1.94594H3.30327L3.09103 1.81884V1.58316L2.78872 1.39806V1.06243L3.09103 0.877335V0.641651L3.30327 0.514554H3.53032L3.96467 0.270231Z" fill="#00843D"/>
<path id="path41" d="M4.39808 1.23533V0.279953H3.96695L3.53249 0.524306H3.306L3.10111 0.647691V0.883L2.79871 1.06843V1.22535L4.40808 1.22534V2.18074H4.83921L5.27365 1.93638H5.50015L5.70503 1.813V1.5777L6.00745 1.39225V1.23534L4.39808 1.23533Z" fill="#FFC72C"/>
<path id="path43" d="M2.79872 1.23534L2.79871 1.39225L3.10112 1.5777V1.813L3.306 1.93638H3.53251L3.96695 2.18074H4.39809V1.22534L6.00746 1.22535V1.06843L5.70504 0.883V0.647691L5.50017 0.524306H5.27366L4.83922 0.279953H4.40809V1.23533L2.79872 1.23534Z" fill="white"/>
<g id="carp1h">
<g id="carp1q">
<path id="path45" d="M3.45845 0.612257L3.384 0.54287L3.31024 0.588355L3.38481 0.657882L3.28906 0.717206H3.49801L3.67808 0.887055L3.73568 0.826222L3.5606 0.661069V0.548964L3.45845 0.612257Z" fill="#383739"/>
<path id="path47" d="M3.81075 0.58177L3.7363 0.512383L3.66253 0.557868L3.73711 0.627395L3.64136 0.686719H3.8503L4.03037 0.856568L4.08797 0.795735L3.9129 0.630582V0.518477L3.81075 0.58177Z" fill="#383739"/>
<path id="path49" d="M3.43256 0.811575L3.35811 0.742188L3.28436 0.787673L3.35892 0.8572L3.26318 0.916524H3.47213L3.65218 1.08637L3.70979 1.02554L3.53471 0.860387V0.748282L3.43256 0.811575Z" fill="#383739"/>
<path id="path51" d="M4.40302 0.269989H4.21447L4.11581 0.365069H3.92349L3.78137 0.438832L3.81451 0.519584L3.94125 0.453019H3.99676L4.19109 0.677761L4.40302 0.5487L4.40302 0.269989Z" fill="#383739"/>
<path id="path53" d="M3.38276 0.555351L3.44966 0.617708L3.39361 0.65243L3.32661 0.589975L3.38276 0.555351ZM3.55063 0.566883V0.66536L3.72157 0.826612L3.67767 0.872963L3.50198 0.707224H3.3241L3.55063 0.566883Z" fill="#D22630"/>
<path id="path55" d="M3.73506 0.524864L3.80196 0.587221L3.7459 0.621943L3.67892 0.559488L3.73506 0.524864ZM3.90292 0.536396V0.634873L4.07386 0.796124L4.02997 0.842476L3.85428 0.676751H3.67639L3.90292 0.536396Z" fill="#D22630"/>
<path id="path57" d="M3.3569 0.754669L3.42378 0.817026L3.36773 0.851748L3.30075 0.789293L3.3569 0.754669ZM3.52475 0.766201V0.864678L3.69569 1.02593L3.65181 1.07228L3.47612 0.906556H3.29822L3.52475 0.766201Z" fill="#D22630"/>
<path id="path59" d="M4.39804 0.279953H4.21851L4.11986 0.375033H3.92594L3.79407 0.44347L3.81958 0.505645L3.93878 0.443051H4.00134L4.19312 0.664857L4.39804 0.540073L4.39804 0.279953Z" fill="#D22630"/>
</g>
<g id="use62">
<path id="path45_2" d="M3.45845 1.84844L3.384 1.91782L3.31024 1.87234L3.38481 1.80281L3.28906 1.74349H3.49801L3.67808 1.57364L3.73568 1.63447L3.5606 1.79962V1.91173L3.45845 1.84844Z" fill="#383739"/>
<path id="path47_2" d="M3.81075 1.87892L3.7363 1.94831L3.66253 1.90283L3.73711 1.8333L3.64136 1.77397H3.8503L4.03037 1.60413L4.08797 1.66496L3.9129 1.83011V1.94222L3.81075 1.87892Z" fill="#383739"/>
<path id="path49_2" d="M3.43256 1.64912L3.35811 1.71851L3.28436 1.67302L3.35892 1.60349L3.26318 1.54417H3.47213L3.65218 1.37432L3.70979 1.43515L3.53471 1.60031V1.71241L3.43256 1.64912Z" fill="#383739"/>
<path id="path51_2" d="M4.40302 2.1907H4.21447L4.11581 2.09562H3.92349L3.78137 2.02186L3.81451 1.94111L3.94125 2.00767H3.99676L4.19109 1.78293L4.40302 1.91199L4.40302 2.1907Z" fill="#383739"/>
<path id="path53_2" d="M3.38276 1.90534L3.44966 1.84299L3.39361 1.80826L3.32661 1.87072L3.38276 1.90534ZM3.55063 1.89381V1.79533L3.72157 1.63408L3.67767 1.58773L3.50198 1.75347H3.3241L3.55063 1.89381Z" fill="#D22630"/>
<path id="path55_2" d="M3.73506 1.93583L3.80196 1.87347L3.7459 1.83875L3.67892 1.90121L3.73506 1.93583ZM3.90292 1.9243V1.82582L4.07386 1.66457L4.02997 1.61822L3.85428 1.78394H3.67639L3.90292 1.9243Z" fill="#D22630"/>
<path id="path57_2" d="M3.3569 1.70602L3.42378 1.64367L3.36773 1.60895L3.30075 1.6714L3.3569 1.70602ZM3.52475 1.69449V1.59602L3.69569 1.43476L3.65181 1.38841L3.47612 1.55414H3.29822L3.52475 1.69449Z" fill="#D22630"/>
<path id="path59_2" d="M4.39804 2.18074H4.21851L4.11986 2.08566H3.92594L3.79407 2.01722L3.81958 1.95505L3.93878 2.01764H4.00134L4.19312 1.79584L4.39804 1.92062L4.39804 2.18074Z" fill="#D22630"/>
</g>
<path id="path64" d="M3.33275 0.925145L3.24286 0.891556L3.24071 0.893051L3.12463 0.973594V0.995246L2.93872 1.23035L3.12463 1.46544V1.48711L3.24286 1.56913L3.33275 1.53555L3.27789 1.49922V1.43009L3.29969 1.40401H3.39711V1.05668H3.29969L3.27789 1.0306V0.961475L3.33275 0.925145Z" fill="#383739"/>
<path id="path66" d="M3.13459 0.978795L3.24423 0.902725L3.31091 0.927634L3.26788 0.956122V1.03422L3.295 1.06665H3.38709V1.39404H3.295L3.26788 1.42647V1.50457L3.31091 1.53306L3.24423 1.55797L3.13459 1.4819L3.1346 1.46198L2.95142 1.23035L3.1346 0.9987L3.13459 0.978795Z" fill="#D22630"/>
</g>
<g id="use69">
<g id="carp1q_2">
<path id="path45_3" d="M5.3477 0.612257L5.42215 0.54287L5.49591 0.588355L5.42134 0.657882L5.51709 0.717206H5.30814L5.12808 0.887055L5.07047 0.826222L5.24555 0.661069V0.548964L5.3477 0.612257Z" fill="#383739"/>
<path id="path47_3" d="M4.99541 0.58177L5.06986 0.512383L5.14362 0.557868L5.06904 0.627395L5.16479 0.686719H4.95585L4.77578 0.856568L4.71818 0.795735L4.89325 0.630582V0.518477L4.99541 0.58177Z" fill="#383739"/>
<path id="path49_3" d="M5.37359 0.811575L5.44804 0.742188L5.52179 0.787673L5.44723 0.8572L5.54297 0.916524H5.33402L5.15397 1.08637L5.09637 1.02554L5.27144 0.860387V0.748282L5.37359 0.811575Z" fill="#383739"/>
<path id="path51_3" d="M4.40313 0.269989H4.59168L4.69034 0.365069H4.88266L5.02478 0.438832L4.99164 0.519584L4.8649 0.453019H4.80939L4.61507 0.677761L4.40313 0.5487L4.40313 0.269989Z" fill="#383739"/>
<path id="path53_3" d="M5.42339 0.555351L5.35649 0.617708L5.41254 0.65243L5.47954 0.589975L5.42339 0.555351ZM5.25553 0.566883V0.66536L5.08459 0.826612L5.12848 0.872963L5.30417 0.707224H5.48206L5.25553 0.566883Z" fill="#D22630"/>
<path id="path55_3" d="M5.07109 0.524864L5.00419 0.587221L5.06025 0.621943L5.12723 0.559488L5.07109 0.524864ZM4.90323 0.536396V0.634873L4.73229 0.796124L4.77618 0.842476L4.95187 0.676751H5.12976L4.90323 0.536396Z" fill="#D22630"/>
<path id="path57_3" d="M5.44925 0.754669L5.38237 0.817026L5.43842 0.851748L5.5054 0.789293L5.44925 0.754669ZM5.2814 0.766201V0.864678L5.11046 1.02593L5.15434 1.07228L5.33003 0.906556H5.50793L5.2814 0.766201Z" fill="#D22630"/>
<path id="path59_3" d="M4.40811 0.279953H4.58764L4.6863 0.375033H4.88021L5.01208 0.44347L4.98657 0.505645L4.86737 0.443051H4.80482L4.61304 0.664857L4.40811 0.540073L4.40811 0.279953Z" fill="#D22630"/>
</g>
<g id="use62_2">
<path id="path45_4" d="M5.3477 1.84844L5.42215 1.91782L5.49591 1.87234L5.42134 1.80281L5.51709 1.74349H5.30814L5.12808 1.57364L5.07047 1.63447L5.24555 1.79962V1.91173L5.3477 1.84844Z" fill="#383739"/>
<path id="path47_4" d="M4.99541 1.87892L5.06986 1.94831L5.14362 1.90283L5.06904 1.8333L5.16479 1.77397H4.95585L4.77578 1.60413L4.71818 1.66496L4.89325 1.83011V1.94222L4.99541 1.87892Z" fill="#383739"/>
<path id="path49_4" d="M5.37359 1.64912L5.44804 1.71851L5.52179 1.67302L5.44723 1.60349L5.54297 1.54417H5.33402L5.15397 1.37432L5.09637 1.43515L5.27144 1.60031V1.71241L5.37359 1.64912Z" fill="#383739"/>
<path id="path51_4" d="M4.40313 2.1907H4.59168L4.69034 2.09562H4.88266L5.02478 2.02186L4.99164 1.94111L4.8649 2.00767H4.80939L4.61507 1.78293L4.40313 1.91199L4.40313 2.1907Z" fill="#383739"/>
<path id="path53_4" d="M5.42339 1.90534L5.35649 1.84299L5.41254 1.80826L5.47954 1.87072L5.42339 1.90534ZM5.25553 1.89381V1.79533L5.08459 1.63408L5.12848 1.58773L5.30417 1.75347H5.48206L5.25553 1.89381Z" fill="#D22630"/>
<path id="path55_4" d="M5.07109 1.93583L5.00419 1.87347L5.06025 1.83875L5.12723 1.90121L5.07109 1.93583ZM4.90323 1.9243V1.82582L4.73229 1.66457L4.77618 1.61822L4.95187 1.78394H5.12976L4.90323 1.9243Z" fill="#D22630"/>
<path id="path57_4" d="M5.44925 1.70602L5.38237 1.64367L5.43842 1.60895L5.5054 1.6714L5.44925 1.70602ZM5.2814 1.69449V1.59602L5.11046 1.43476L5.15434 1.38841L5.33003 1.55414H5.50793L5.2814 1.69449Z" fill="#D22630"/>
<path id="path59_4" d="M4.40811 2.18074H4.58764L4.6863 2.08566H4.88021L5.01208 2.01722L4.98657 1.95505L4.86737 2.01764H4.80482L4.61304 1.79584L4.40811 1.92062L4.40811 2.18074Z" fill="#D22630"/>
</g>
<path id="path64_2" d="M5.4734 0.925145L5.56329 0.891556L5.56545 0.893051L5.68152 0.973594V0.995246L5.86743 1.23035L5.68152 1.46544V1.48711L5.56329 1.56913L5.4734 1.53555L5.52826 1.49922V1.43009L5.50646 1.40401H5.40904V1.05668H5.50646L5.52826 1.0306V0.961475L5.4734 0.925145Z" fill="#383739"/>
<path id="path66_2" d="M5.67157 0.978795L5.56192 0.902725L5.49524 0.927634L5.53827 0.956122V1.03422L5.51115 1.06665H5.41906V1.39404H5.51115L5.53827 1.42647V1.50457L5.49524 1.53306L5.56192 1.55797L5.67157 1.4819L5.67155 1.46198L5.85474 1.23035L5.67155 0.9987L5.67157 0.978795Z" fill="#D22630"/>
</g>
<path id="path71" d="M3.17311 1.42769L3.1225 1.3839V1.36279L3.01392 1.23035L3.12251 1.09789V1.0768L3.17313 1.033L3.26404 1.10693L3.21157 1.10653L3.2891 1.18523H3.46628L3.60561 1.07627V0.788916H3.9541L4.35883 0.540551V0.475413L4.29693 0.434163H4.27732L4.20992 0.479271L4.19948 0.512916L4.14675 0.440928L4.24923 0.354837H4.26561L4.38125 0.269989H4.42485L4.54048 0.354837H4.55687L4.65935 0.440928L4.60662 0.512916L4.59618 0.479271L4.52878 0.434163H4.50916L4.44727 0.475413V0.540551L4.85199 0.788916H5.20048V1.07627L5.33982 1.18523H5.51699L5.59453 1.10653L5.54206 1.10693L5.63297 1.033L5.68358 1.0768V1.09789L5.79218 1.23035L5.68358 1.36279V1.3839L5.63297 1.42769L5.54206 1.35376L5.59453 1.35417L5.51699 1.27545H5.33982L5.20048 1.38443V1.67178H4.85199L4.44727 1.92014V1.98528L4.50916 2.02653H4.52878L4.59618 1.98142L4.60662 1.94778L4.65935 2.01975L4.55687 2.10586H4.54048L4.42485 2.1907H4.38125L4.26561 2.10586H4.24923L4.14674 2.01975L4.19948 1.94778L4.20992 1.98142L4.27731 2.02653H4.29692L4.35883 1.98528V1.92014L3.9541 1.67178H3.60561V1.38443L3.46626 1.27545H3.2891L3.21157 1.35417L3.26404 1.35376L3.17311 1.42769Z" fill="#383739"/>
<path id="path73" d="M4.40803 2.03426L4.45233 2.06813L4.40803 2.102V2.03426ZM4.26723 2.09587H4.26886L4.3845 2.18073H4.39801V2.11453L4.33734 2.06813L4.39802 2.02174V1.89739L3.96495 1.63162H3.64481V1.36458L3.47951 1.23531H3.2302L3.16753 1.30617L3.10487 1.23531L3.03088 1.23533L3.13245 1.3592V1.37932L3.17268 1.41426L3.23731 1.36394L3.19938 1.36423V1.35165L3.28392 1.26548H3.46969L3.61558 1.37957V1.6618H3.95691L4.36878 1.91456V1.9906L4.29992 2.03649H4.27425L4.20141 1.98773L4.1958 1.96964L4.16028 2.01812L4.25284 2.09587L4.26723 2.09587ZM3.16759 1.16957L3.21693 1.22535H3.11823L3.16759 1.16957ZM4.39804 0.358671L4.35377 0.39254L4.39804 0.426395V0.358671ZM5.58915 1.23533L5.63849 1.2911L5.68783 1.23533H5.58915ZM4.53719 0.364793L4.42155 0.279945H4.40804V0.346118L4.46874 0.39254L4.40803 0.438961V0.563283L4.8411 0.829051H5.16125V1.09609L5.32654 1.22536H5.57581L5.63849 1.15452L5.70117 1.22535H5.77517L5.6736 1.10147V1.08136L5.63337 1.04641L5.56874 1.09673L5.60667 1.09643V1.10902L5.52213 1.19518H5.33636L5.19049 1.08109V0.798872H4.84914L4.43727 0.546118V0.470063L4.50613 0.424186H4.53181L4.60465 0.472942L4.61025 0.49103L4.64577 0.442554L4.55321 0.364793L4.53719 0.364793Z" fill="#FFC72C"/>
<path id="path75" d="M4.39801 2.102L4.35374 2.06814L4.39801 2.03429V2.102ZM3.21691 1.23533L3.16756 1.29111L3.11822 1.23533H3.21691ZM4.5388 2.09587H4.53716L4.42152 2.18074H4.40802V2.1634V2.11456L4.46871 2.06814L4.408 2.02172V1.8974L4.84107 1.63163H5.16122V1.36459L5.32651 1.23532H5.5758L5.63846 1.30618L5.70112 1.23532L5.77514 1.23533L5.67357 1.35921V1.37932L5.63334 1.41427L5.56871 1.36395L5.60665 1.36424V1.35166L5.52211 1.26549H5.33634L5.19046 1.37958V1.66181H4.84911L4.43724 1.91456V1.9906L4.5061 2.03649H4.53178L4.60462 1.98774L4.61022 1.96965L4.64574 2.01813L4.55318 2.09587L4.5388 2.09587ZM5.63846 1.16958L5.58912 1.22535H5.68782L5.63846 1.16958ZM4.26886 0.364801L4.3845 0.279953H4.39802V0.346126L4.33731 0.392547L4.39802 0.438969L4.39804 0.563291L3.96495 0.829058H3.64482V1.0961L3.47951 1.22537H3.23017L3.16751 1.15453L3.10483 1.22535H3.03088L3.13246 1.10148V1.08136L3.17269 1.04642L3.23731 1.09674L3.19938 1.09643V1.10903L3.28393 1.19519H3.46969L3.61558 1.0811V0.798879H3.95691L4.36879 0.546126V0.47007L4.29994 0.424194H4.27424L4.2014 0.47295L4.1958 0.491038L4.16029 0.442561L4.25286 0.364801L4.26886 0.364801ZM4.408 0.426417L4.4523 0.392547L4.408 0.358678V0.426417Z" fill="white"/>
<path id="path77" d="M4.39805 1.23532V0.574974L3.96779 0.839022H3.6548V1.10095L3.49573 1.22535L4.40804 1.22534V1.8857L4.83828 1.62166H5.15126V1.35974L5.31034 1.23533L4.39805 1.23532Z" fill="#00843D"/>
<path id="path79" d="M3.49573 1.23533L3.65481 1.35974V1.62166H3.96779L4.39806 1.88571V1.22534L5.31035 1.22535L5.15128 1.10095V0.839023H4.83829L4.40806 0.574989V1.23533L3.49573 1.23533Z" fill="#D22630"/>
<path id="path81" d="M3.93988 0.910063L3.86545 0.840675L3.79168 0.886146L3.86626 0.955674L3.77051 1.015H3.97945L4.15952 1.18486L4.21712 1.12401L4.04205 0.958861V0.84677L3.93988 0.910063Z" fill="#383739"/>
<path id="path83" d="M4.8661 1.55063L4.94054 1.62002L5.01429 1.57453L4.93973 1.50501L5.03548 1.4457H4.82652L4.64647 1.27583L4.58887 1.33667L4.76394 1.50183V1.61392L4.8661 1.55063Z" fill="#383739"/>
<path id="path85" d="M3.93988 1.55063L3.86543 1.62002L3.79168 1.57453L3.86624 1.50501L3.77051 1.4457H3.97945L4.15951 1.27583L4.21711 1.33667L4.04203 1.50183V1.61392L3.93988 1.55063Z" fill="#383739"/>
<path id="path87" d="M4.8661 0.910063L4.94054 0.840675L5.01429 0.886146L4.93973 0.955674L5.03548 1.015H4.82652L4.64647 1.18486L4.58887 1.12401L4.76394 0.958861V0.84677L4.8661 0.910063Z" fill="#383739"/>
<path id="path89" d="M4.94185 1.60753L4.87497 1.54518L4.93102 1.51045L4.998 1.57291L4.94185 1.60753ZM4.774 1.596V1.49754L4.60306 1.33629L4.64696 1.28992L4.82265 1.45566H5.00053L4.774 1.596ZM3.86433 0.853142L3.93123 0.915499L3.87516 0.950234L3.80818 0.88778L3.86433 0.853142ZM4.03219 0.864688V0.96315L4.20313 1.1244L4.15924 1.17077L3.98355 1.00503H3.80566L4.03219 0.864688Z" fill="#D22630"/>
<path id="path91" d="M4.94175 0.853142L4.87486 0.915499L4.93091 0.950234L4.9979 0.88778L4.94175 0.853142ZM4.7739 0.864688V0.96315L4.60296 1.1244L4.64685 1.17077L4.82254 1.00503H5.00043L4.7739 0.864688ZM3.86422 1.60753L3.93111 1.54518L3.87506 1.51045L3.80807 1.57291L3.86422 1.60753ZM4.03207 1.596V1.49754L4.20301 1.33629L4.15913 1.28992L3.98344 1.45566H3.80554L4.03207 1.596Z" fill="#00843D"/>
<path id="path93" d="M4.86574 1.23036L4.40308 1.53869L3.94043 1.23036L4.40308 0.921997L4.86574 1.23036Z" fill="#383739"/>
<path id="path95" d="M4.39803 0.937302L3.96583 1.22535H4.84021L4.40802 0.937302V1.52338L4.84023 1.23533H3.96582L4.39803 1.52338V0.937302Z" fill="white"/>
<path id="path97" d="M4.52682 1.33638V1.42116H4.2794V1.33638H4.11926V1.12431H4.2794V1.03953H4.52682V1.12431H4.68694V1.33638H4.52682Z" fill="#383739"/>
<path id="path99" d="M4.28939 1.04949V1.13427H4.12927V1.22535H4.39813V1.04949L4.28939 1.04949ZM4.40812 1.22535H4.67698V1.13427H4.51686V1.04949H4.40812L4.40812 1.22535ZM4.12927 1.23533V1.32641H4.28939V1.41119H4.39813V1.23533L4.12927 1.23533ZM4.40812 1.41119H4.51686V1.32642H4.67698V1.23533H4.40812V1.41119Z" fill="#D22630"/>
<path id="path102" d="M5.19231 4.7435V4.60768H5.56479V4.47185H5.93727V3.24454H5.56479V3.10871H5.19231V2.97289H4.81984V2.83706H3.98622V2.97289H3.61374V3.10871H3.24125V3.24454H2.86877V4.47185H3.24125V4.60768H3.61374V4.7435H3.98622V4.87933H4.81984V4.7435H5.19231Z" fill="#383739"/>
<path id="path104" d="M3.99676 2.84673V2.98246H3.62409V3.11819H3.25144V3.25393H2.87878V4.46196H3.25144V4.59772H3.62409V4.73343H3.99676V4.86915H4.8099V4.73343H5.18257V4.59772H5.55525V4.46196H5.92788V3.25393H5.55525V3.11819H5.18257V2.98246H4.8099V2.84673H3.99676ZM4.09547 2.94544H4.71118V3.08117H5.08386V3.21691H5.45653V3.35264H5.82916V4.36325H5.45653V4.499H5.08386V4.63472H4.71118V4.77043H4.09547V4.63472H3.72281V4.499H3.35016V4.36325H2.9775V3.35264H3.35016V3.21691H3.72281V3.08117H4.09547V2.94544Z" fill="#FFC72C"/>
<path id="path106" d="M3.73239 4.6249V4.48906H3.35992V4.35325H2.98743V3.36311H3.35992V3.22729H3.73239V3.09146H4.10487V2.95565H4.70129V3.09146H5.07378V3.22729H5.44625V3.36311H5.81874V4.35325H5.44625V4.48906H5.07378V4.6249H4.70129V4.76071H4.10487V4.6249H3.73239Z" fill="#D22630"/>
<path id="path108" d="M3.81882 3.19201L3.72234 3.11909V3.25912L3.62996 3.31783L3.62972 3.23017L3.54112 3.30977L3.45251 3.23017L3.45227 3.31783L3.34989 3.25278V3.38261L3.26716 3.4425L3.26692 3.3629L3.16863 3.43409L3.07034 3.3629L3.0701 3.4425L2.97739 3.37538V3.76867H2.86877V3.94769H2.97739V4.34098L3.0701 4.27384L3.07034 4.35346L3.16863 4.28227L3.26691 4.35346L3.26715 4.27384L3.34989 4.33374V4.46358L3.45226 4.39853L3.4525 4.48618L3.54111 4.40659L3.62971 4.48618L3.62995 4.39853L3.72233 4.45722V4.59727L3.81881 4.52435L3.81902 4.62215L3.91357 4.5376L4.00813 4.62215L4.00834 4.52435L4.09484 4.58972V4.73908L4.22417 4.6212V4.75972L4.40303 4.64473L4.58191 4.75972V4.6212L4.71124 4.73908V4.58972L4.79772 4.52435L4.79793 4.62215L4.89249 4.5376L4.98705 4.62215L4.98726 4.52435L5.08371 4.59727V4.45722L5.17612 4.39853L5.17636 4.48618L5.26498 4.40659L5.35359 4.48618L5.35382 4.39853L5.45621 4.46358V4.33374L5.53895 4.27384L5.53918 4.35346L5.63746 4.28227L5.73575 4.35346L5.73599 4.27384L5.8287 4.34097V3.94769H5.93731V3.76867H5.8287V3.37538L5.73599 3.4425L5.73575 3.3629L5.63746 3.43409L5.53916 3.3629L5.53895 3.4425L5.45622 3.38261V3.25278L5.35383 3.31783L5.35359 3.23017L5.26499 3.30977L5.17637 3.23017L5.17613 3.31783L5.08372 3.25911V3.11909L4.98727 3.192L4.98706 3.09419L4.8925 3.17876L4.79794 3.09419L4.79773 3.19201L4.71125 3.12661V2.97728L4.58192 3.09516V2.95663L4.40304 3.07163L4.22417 2.95663V3.09516L4.09485 2.97728V3.12662L4.00835 3.19201L4.00814 3.09419L3.91358 3.17876L3.81903 3.09419L3.81882 3.19201Z" fill="#383739"/>
<g id="g118">
<path id="path110" d="M3.08007 3.46203L3.0803 3.38241L3.16866 3.44641L3.17164 3.44425L3.25702 3.38241L3.25725 3.46203L3.34992 3.39495V4.32142L3.25725 4.25434L3.25702 4.33396L3.16866 4.26995L3.0803 4.33396L3.08007 4.25434L2.98739 4.32142V3.93771H2.87878V3.77866H2.98739V3.39495L3.08007 3.46203Z" fill="#00843D"/>
<path id="path112" d="M3.82903 3.11649L3.91365 3.19216L3.99828 3.11649L3.99849 3.21205L4.09491 3.13916V4.57722L3.99849 4.50432L3.99828 4.59989L3.91365 4.52422L3.82903 4.59989L3.82884 4.50432L3.73242 4.57722V3.13916L3.82884 3.21205L3.82903 3.11649Z" fill="#00843D"/>
<path id="path114" d="M4.97717 3.11649L4.89255 3.19216L4.80792 3.11649L4.80771 3.21205L4.7113 3.13916V4.57722L4.80771 4.50432L4.80792 4.59989L4.89255 4.52422L4.97717 4.59989L4.97738 4.50432L5.0738 4.57722V3.13916L4.97738 3.21205L4.97717 3.11649Z" fill="#00843D"/>
<path id="path116" d="M5.72603 3.46203L5.7258 3.38241L5.63744 3.44641L5.63445 3.44425L5.54907 3.38241L5.54884 3.46203L5.45618 3.39495V4.32142L5.54884 4.25434L5.54907 4.33396L5.63744 4.26995L5.7258 4.33396L5.72603 4.25434L5.81869 4.32142V3.93771H5.9273V3.77866H5.81869V3.39495L5.72603 3.46203Z" fill="#00843D"/>
</g>
<g id="g126">
<path id="path120" d="M3.46243 3.25252L3.54111 3.32321L3.6198 3.25252L3.62003 3.336L3.72236 3.27096V4.44542L3.62003 4.38039L3.6198 4.46385L3.54111 4.39318L3.46243 4.46385L3.4622 4.38039L3.35986 4.44542V3.27096L3.4622 3.336L3.46243 3.25252Z" fill="#FFC72C"/>
<path id="path122" d="M4.23418 3.11777L4.10486 2.99989V4.71647L4.23418 4.59859V4.74143L4.40306 4.63286H4.40308L4.57195 4.74143V4.59859L4.70128 4.71647V2.99989L4.57195 3.11777V2.97492L4.40308 3.08349H4.40306L4.23418 2.97492V3.11777Z" fill="#FFC72C"/>
<path id="path124" d="M5.34368 3.25252L5.265 3.32321L5.1863 3.25252L5.18609 3.336L5.08374 3.27096V4.44542L5.18609 4.38039L5.1863 4.46385L5.265 4.39318L5.34368 4.46385L5.34391 4.38039L5.44625 4.44542V3.27096L5.34391 3.336L5.34368 3.25252Z" fill="#FFC72C"/>
</g>
<g id="carp2h">
<g id="carp2q">
<path id="path128" d="M3.12856 3.68945C3.13986 3.70086 3.15338 3.70663 3.16873 3.70663C3.18406 3.70663 3.19758 3.70086 3.2089 3.68945C3.24428 3.65381 3.24547 3.58934 3.24512 3.54295C3.24512 3.54295 3.20422 3.58617 3.19684 3.59397C3.1917 3.58508 3.16873 3.54542 3.16873 3.54542C3.16873 3.54542 3.14576 3.58508 3.14061 3.59397C3.13322 3.58617 3.09232 3.54295 3.09232 3.54295C3.09198 3.58934 3.09318 3.65381 3.12856 3.68945Z" fill="#383739"/>
<path id="path130" d="M3.51706 3.5896L3.48726 3.55983V3.5005L3.41882 3.56394L3.54116 3.68627L3.6635 3.56394L3.59506 3.5005V3.55983L3.56527 3.5896V3.4845L3.61804 3.4392L3.54116 3.37318L3.46428 3.4392L3.51706 3.4845V3.5896Z" fill="#383739"/>
<path id="path132" d="M3.88961 3.47172L3.85982 3.44193V3.38261L3.79138 3.44604L3.91372 3.56838L4.03606 3.44604L3.96762 3.38261V3.44193L3.93782 3.47172V3.3666L3.9906 3.3213L3.91372 3.25529L3.83684 3.3213L3.88961 3.3666V3.47172Z" fill="#383739"/>
<path id="path134" d="M3.16876 3.56535C3.17487 3.57589 3.19493 3.61054 3.19493 3.61054C3.19493 3.61054 3.22319 3.58066 3.23474 3.56848C3.23335 3.62087 3.22185 3.66226 3.20185 3.68241C3.19247 3.69186 3.18134 3.69665 3.16876 3.69665C3.15617 3.69665 3.14504 3.69186 3.13567 3.68242C3.11567 3.66226 3.10417 3.62087 3.10278 3.56848C3.11432 3.58067 3.14258 3.61054 3.14258 3.61054C3.1513 3.59548 3.16004 3.58041 3.16876 3.56535Z" fill="white"/>
<path id="path136" d="M3.92786 3.36203V3.49583L3.97762 3.44608V3.40549L4.02168 3.44634L3.91374 3.55428L3.80579 3.44634L3.84985 3.40549V3.44608L3.89961 3.49583V3.36203L3.85218 3.32131L3.91374 3.26846L3.97529 3.32131L3.92786 3.36203Z" fill="white"/>
<path id="path138" d="M3.5553 3.47992V3.61372L3.60506 3.56396V3.52338L3.64912 3.56421L3.54117 3.67216L3.43323 3.56421L3.47729 3.52338V3.56396L3.52705 3.61372V3.47992L3.47962 3.4392L3.54117 3.38635L3.60273 3.4392L3.5553 3.47992Z" fill="#D22630"/>
</g>
<g id="use141">
<path id="path128_2" d="M5.67772 3.68945C5.66641 3.70086 5.65289 3.70663 5.63754 3.70663C5.62221 3.70663 5.60869 3.70086 5.59737 3.68945C5.56199 3.65381 5.5608 3.58934 5.56115 3.54295C5.56115 3.54295 5.60205 3.58617 5.60943 3.59397C5.61458 3.58508 5.63754 3.54542 5.63754 3.54542C5.63754 3.54542 5.66051 3.58508 5.66567 3.59397C5.67305 3.58617 5.71395 3.54295 5.71395 3.54295C5.7143 3.58934 5.7131 3.65381 5.67772 3.68945Z" fill="#383739"/>
<path id="path130_2" d="M5.28921 3.5896L5.31901 3.55983V3.5005L5.38745 3.56394L5.26511 3.68627L5.14278 3.56394L5.21121 3.5005V3.55983L5.241 3.5896V3.4845L5.18823 3.4392L5.26511 3.37318L5.34199 3.4392L5.28921 3.4845V3.5896Z" fill="#383739"/>
<path id="path132_2" d="M4.91667 3.47172L4.94646 3.44193V3.38261L5.01489 3.44604L4.89256 3.56838L4.77022 3.44604L4.83866 3.38261V3.44193L4.86846 3.47172V3.3666L4.81568 3.3213L4.89256 3.25529L4.96944 3.3213L4.91667 3.3666V3.47172Z" fill="#383739"/>
<path id="path134_2" d="M5.63751 3.56535C5.63141 3.57589 5.61135 3.61054 5.61135 3.61054C5.61135 3.61054 5.58308 3.58066 5.57154 3.56848C5.57292 3.62087 5.58442 3.66226 5.60443 3.68241C5.61381 3.69186 5.62493 3.69665 5.63751 3.69665C5.65011 3.69665 5.66123 3.69186 5.6706 3.68242C5.6906 3.66226 5.70211 3.62087 5.70349 3.56848C5.69196 3.58067 5.66369 3.61054 5.66369 3.61054C5.65497 3.59548 5.64624 3.58041 5.63751 3.56535Z" fill="white"/>
<path id="path136_2" d="M4.87842 3.36203V3.49583L4.82865 3.44608V3.40549L4.7846 3.44634L4.89253 3.55428L5.00049 3.44634L4.95643 3.40549V3.44608L4.90667 3.49583V3.36203L4.95409 3.32131L4.89253 3.26846L4.83099 3.32131L4.87842 3.36203Z" fill="white"/>
<path id="path138_2" d="M5.25098 3.47992V3.61372L5.20121 3.56396V3.52338L5.15715 3.56421L5.26511 3.67216L5.37305 3.56421L5.32899 3.52338V3.56396L5.27923 3.61372V3.47992L5.32665 3.4392L5.26511 3.38635L5.20355 3.4392L5.25098 3.47992Z" fill="#D22630"/>
</g>
<path id="path143" d="M4.54953 3.51638L4.50946 3.461L4.61223 3.36613L4.51641 3.2874V3.34317L4.47633 3.37746V3.2763L4.56685 3.20958L4.4031 3.08888L4.23934 3.20958L4.32988 3.2763V3.37746L4.2898 3.34317V3.2874L4.19397 3.36613L4.29675 3.461L4.25668 3.51638H4.54953Z" fill="#383739"/>
<path id="path145" d="M4.27628 3.50641L4.31008 3.45968L4.20923 3.36658L4.27986 3.30854V3.34778L4.33991 3.39916V3.27126L4.25622 3.20959L4.40315 3.1013L4.55007 3.20959L4.4664 3.27126V3.39916L4.52644 3.34778V3.30854L4.59708 3.36658L4.49623 3.45968L4.53004 3.50641H4.27628Z" fill="#D22630"/>
<path id="path147" d="M4.32825 3.2096L4.40307 3.26474L4.47791 3.2096L4.40307 3.15444L4.40011 3.15664L4.32825 3.2096Z" fill="#383739"/>
<path id="path149" d="M4.40309 3.16685C4.40804 3.17049 4.45235 3.20316 4.4611 3.2096C4.45235 3.21604 4.40804 3.24871 4.40309 3.25235C4.39815 3.24871 4.35383 3.21604 4.34509 3.2096C4.35383 3.20316 4.39815 3.17049 4.40309 3.16685Z" fill="#00843D"/>
</g>
<g id="use152">
<g id="carp2q_2">
<path id="path128_3" d="M3.12856 4.0269C3.13986 4.01549 3.15338 4.00972 3.16873 4.00972C3.18406 4.00972 3.19758 4.01549 3.2089 4.0269C3.24428 4.06254 3.24547 4.12701 3.24512 4.1734C3.24512 4.1734 3.20422 4.13018 3.19684 4.12238C3.1917 4.13127 3.16873 4.17093 3.16873 4.17093C3.16873 4.17093 3.14576 4.13127 3.14061 4.12238C3.13322 4.13018 3.09232 4.1734 3.09232 4.1734C3.09198 4.12701 3.09318 4.06254 3.12856 4.0269Z" fill="#383739"/>
<path id="path130_3" d="M3.51706 4.12675L3.48726 4.15652V4.21584L3.41882 4.15241L3.54116 4.03007L3.6635 4.15241L3.59506 4.21584V4.15652L3.56527 4.12675V4.23185L3.61804 4.27715L3.54116 4.34317L3.46428 4.27715L3.51706 4.23185V4.12675Z" fill="#383739"/>
<path id="path132_3" d="M3.88961 4.24463L3.85982 4.27442V4.33374L3.79138 4.27031L3.91372 4.14797L4.03606 4.27031L3.96762 4.33374V4.27442L3.93782 4.24463V4.34974L3.9906 4.39505L3.91372 4.46105L3.83684 4.39505L3.88961 4.34974V4.24463Z" fill="#383739"/>
<path id="path134_3" d="M3.16876 4.15099C3.17487 4.14045 3.19493 4.1058 3.19493 4.1058C3.19493 4.1058 3.22319 4.13569 3.23474 4.14786C3.23335 4.09547 3.22185 4.05408 3.20185 4.03394C3.19247 4.02449 3.18134 4.0197 3.16876 4.0197C3.15617 4.0197 3.14504 4.02449 3.13567 4.03393C3.11567 4.05408 3.10417 4.09547 3.10278 4.14786C3.11432 4.13567 3.14258 4.1058 3.14258 4.1058C3.1513 4.12087 3.16004 4.13594 3.16876 4.15099Z" fill="white"/>
<path id="path136_3" d="M3.92786 4.35431V4.22051L3.97762 4.27026V4.31086L4.02168 4.27001L3.91374 4.16207L3.80579 4.27001L3.84985 4.31086V4.27026L3.89961 4.22051V4.35431L3.85218 4.39503L3.91374 4.44788L3.97529 4.39503L3.92786 4.35431Z" fill="white"/>
<path id="path138_3" d="M3.5553 4.23642V4.10262L3.60506 4.15239V4.19297L3.64912 4.15214L3.54117 4.04418L3.43323 4.15214L3.47729 4.19297V4.15239L3.52705 4.10262V4.23642L3.47962 4.27714L3.54117 4.32999L3.60273 4.27714L3.5553 4.23642Z" fill="#D22630"/>
</g>
<g id="use141_2">
<path id="path128_4" d="M5.67772 4.0269C5.66641 4.01549 5.65289 4.00972 5.63754 4.00972C5.62221 4.00972 5.60869 4.01549 5.59737 4.0269C5.56199 4.06254 5.5608 4.12701 5.56115 4.1734C5.56115 4.1734 5.60205 4.13018 5.60943 4.12238C5.61458 4.13127 5.63754 4.17093 5.63754 4.17093C5.63754 4.17093 5.66051 4.13127 5.66567 4.12238C5.67305 4.13018 5.71395 4.1734 5.71395 4.1734C5.7143 4.12701 5.7131 4.06254 5.67772 4.0269Z" fill="#383739"/>
<path id="path130_4" d="M5.28921 4.12675L5.31901 4.15652V4.21584L5.38745 4.15241L5.26511 4.03007L5.14278 4.15241L5.21121 4.21584V4.15652L5.241 4.12675V4.23185L5.18823 4.27715L5.26511 4.34317L5.34199 4.27715L5.28921 4.23185V4.12675Z" fill="#383739"/>
<path id="path132_4" d="M4.91667 4.24463L4.94646 4.27442V4.33374L5.01489 4.27031L4.89256 4.14797L4.77022 4.27031L4.83866 4.33374V4.27442L4.86846 4.24463V4.34974L4.81568 4.39505L4.89256 4.46105L4.96944 4.39505L4.91667 4.34974V4.24463Z" fill="#383739"/>
<path id="path134_4" d="M5.63751 4.15099C5.63141 4.14045 5.61135 4.1058 5.61135 4.1058C5.61135 4.1058 5.58308 4.13569 5.57154 4.14786C5.57292 4.09547 5.58442 4.05408 5.60443 4.03394C5.61381 4.02449 5.62493 4.0197 5.63751 4.0197C5.65011 4.0197 5.66123 4.02449 5.6706 4.03393C5.6906 4.05408 5.70211 4.09547 5.70349 4.14786C5.69196 4.13567 5.66369 4.1058 5.66369 4.1058C5.65497 4.12087 5.64624 4.13594 5.63751 4.15099Z" fill="white"/>
<path id="path136_4" d="M4.87842 4.35431V4.22051L4.82865 4.27026V4.31086L4.7846 4.27001L4.89253 4.16207L5.00049 4.27001L4.95643 4.31086V4.27026L4.90667 4.22051V4.35431L4.95409 4.39503L4.89253 4.44788L4.83099 4.39503L4.87842 4.35431Z" fill="white"/>
<path id="path138_4" d="M5.25098 4.23642V4.10262L5.20121 4.15239V4.19297L5.15715 4.15214L5.26511 4.04418L5.37305 4.15214L5.32899 4.19297V4.15239L5.27923 4.10262V4.23642L5.32665 4.27714L5.26511 4.32999L5.20355 4.27714L5.25098 4.23642Z" fill="#D22630"/>
</g>
<path id="path143_2" d="M4.54953 4.19997L4.50946 4.25535L4.61223 4.35022L4.51641 4.42895V4.37317L4.47633 4.33888V4.44004L4.56685 4.50676L4.4031 4.62746L4.23934 4.50676L4.32988 4.44004V4.33888L4.2898 4.37317V4.42895L4.19397 4.35022L4.29675 4.25535L4.25668 4.19997H4.54953Z" fill="#383739"/>
<path id="path145_2" d="M4.27628 4.20994L4.31008 4.25667L4.20923 4.34977L4.27986 4.4078V4.36857L4.33991 4.31718V4.44508L4.25622 4.50675L4.40315 4.61504L4.55007 4.50675L4.4664 4.44508V4.31718L4.52644 4.36857V4.4078L4.59708 4.34977L4.49623 4.25667L4.53004 4.20994H4.27628Z" fill="#D22630"/>
<path id="path147_2" d="M4.32825 4.50675L4.40307 4.4516L4.47791 4.50675L4.40307 4.5619L4.40011 4.55971L4.32825 4.50675Z" fill="#383739"/>
<path id="path149_2" d="M4.40309 4.54949C4.40804 4.54586 4.45235 4.51319 4.4611 4.50675C4.45235 4.5003 4.40804 4.46764 4.40309 4.464C4.39815 4.46764 4.35383 4.5003 4.34509 4.50675C4.35383 4.51319 4.39815 4.54586 4.40309 4.54949Z" fill="#00843D"/>
</g>
<path id="path154" d="M5.7288 3.8009H5.56485V3.73555H5.06372L4.71487 3.50641H4.71339H4.09133L3.74249 3.73555H3.24134V3.8009H3.07739V3.91547H3.24134V3.98081H3.74249L4.09133 4.20997H4.71487L5.06372 3.98081H5.56485V3.91547H5.7288V3.8009Z" fill="#383739"/>
<path id="path156" d="M4.09431 3.51675L3.7451 3.74503H3.25152V3.81043H3.0874V3.90545H3.25152V3.97085H3.7451L4.09431 4.20036H4.71251L5.06048 3.97085H5.5553V3.90545H5.71941V3.81043H5.5553V3.74503H5.06048L4.71251 3.51675H4.09431ZM4.10171 3.55007H4.70388L5.02347 3.75984V3.79192H5.38008V3.92519H5.02347V3.95727L4.70388 4.16581H4.10171L3.78335 3.95727V3.92519H3.4255V3.79192H3.78335V3.75984L4.10171 3.55007Z" fill="#D22630"/>
<path id="path158" d="M4.70129 3.56039L5.01297 3.76501V3.80133H5.37016V3.91503H5.01297V3.95136L4.70129 4.15598H4.10478L3.7931 3.95136V3.91503H3.43591V3.80133H3.7931V3.76501L4.10478 3.56039H4.70129Z" fill="#D22630"/>
<g id="g176">
<path id="path160" d="M3.94995 3.97442L4.08491 4.07573L4.17369 4.00907L4.12208 3.97032L4.08491 3.99824L4.05318 3.97442L4.56141 3.59284H4.4582L3.94995 3.97442ZM4.24454 4.12354H4.34776L4.856 3.74196L4.72106 3.64066L4.63227 3.70731L4.68388 3.74604L4.72106 3.71813L4.75279 3.74196L4.24454 4.12354ZM4.4582 4.12354H4.5614L4.05318 3.74196L4.08491 3.71813L4.12208 3.74604L4.17369 3.70731L4.08491 3.64066L3.94995 3.74196L4.4582 4.12354ZM4.75279 3.97442L4.72106 3.99824L4.68388 3.97032L4.63227 4.00907L4.72106 4.07573L4.856 3.97442L4.34776 3.59284H4.24454L4.75279 3.97442Z" fill="#383739"/>
<path id="path162" d="M3.84778 3.85819L3.93848 3.91844L4.02919 3.85819L3.93848 3.79794L3.84778 3.85819Z" fill="#383739"/>
<path id="path164" d="M4.31238 3.85819L4.40308 3.91844L4.49379 3.85819L4.40308 3.79794L4.31238 3.85819Z" fill="#383739"/>
<path id="path166" d="M4.95826 3.85819L4.86756 3.91844L4.77686 3.85819L4.86756 3.79794L4.95826 3.85819Z" fill="#383739"/>
<path id="path168" d="M4.83946 3.97442L4.72115 4.06325L4.64898 4.00907L4.68397 3.98281L4.72115 4.01072L4.7695 3.97442L4.27456 3.60284H4.34452L4.83946 3.97442ZM4.53156 4.11354H4.46161L3.96667 3.74196L4.085 3.65313L4.15714 3.70731L4.12217 3.73356L4.085 3.70565L4.03664 3.74196L4.53156 4.11354ZM4.34452 4.11354H4.27456L4.7695 3.74196L4.72115 3.70565L4.68397 3.73356L4.64898 3.70731L4.72115 3.65313L4.83946 3.74196L4.34452 4.11354ZM4.46161 3.60284H4.53156L4.03664 3.97442L4.085 4.01072L4.12217 3.98281L4.15714 4.00907L4.085 4.06325L3.96667 3.97442L4.46161 3.60284Z" fill="#FFC72C"/>
<path id="path170" d="M3.9385 3.80994L4.01116 3.8582L3.9385 3.90645L3.86584 3.8582L3.9385 3.80994Z" fill="#00843D"/>
<path id="path172" d="M4.40309 3.80994L4.47575 3.8582L4.40309 3.90645L4.33044 3.8582L4.40309 3.80994Z" fill="#00843D"/>
<path id="path174" d="M4.86758 3.80994L4.79492 3.8582L4.86758 3.90645L4.94023 3.8582L4.86758 3.80994Z" fill="#00843D"/>
</g>
<g id="g219">
<path id="path179" d="M2.80758 6.3869L2.77199 6.43723L2.83578 6.48602L2.77197 6.53482L2.80756 6.58515L2.88169 6.59376L2.95347 6.5383L3.13243 6.65198V6.55757L3.01979 6.48602L3.13243 6.41448V6.32007L2.95347 6.43375L2.88169 6.3783L2.80758 6.3869Z" fill="#383739"/>
<path id="path181" d="M2.80758 6.05892L2.77199 6.10927L2.83578 6.15805L2.77197 6.20683L2.80756 6.25718L2.88169 6.26578L2.95347 6.21032L3.13243 6.32401V6.22959L3.01979 6.15805L3.13243 6.0865V5.99209L2.95347 6.10577L2.88169 6.05032L2.80758 6.05892Z" fill="#383739"/>
<path id="path183" d="M2.80758 6.91312L2.77199 6.86279L2.83578 6.814L2.77197 6.76521L2.80756 6.71487L2.88169 6.70627L2.95347 6.76173L3.13243 6.64804V6.74245L3.01979 6.814L3.13243 6.88554V6.97995L2.95347 6.86627L2.88169 6.92173L2.80758 6.91312Z" fill="#383739"/>
<path id="path185" d="M5.99857 6.3869L6.03416 6.43723L5.97037 6.48602L6.03416 6.53482L5.99857 6.58515L5.92446 6.59376L5.85268 6.5383L5.67371 6.65198V6.55757L5.78636 6.48602L5.67371 6.41448V6.32007L5.85268 6.43375L5.92446 6.3783L5.99857 6.3869Z" fill="#383739"/>
<path id="path187" d="M5.99857 6.05892L6.03416 6.10927L5.97037 6.15805L6.03416 6.20683L5.99857 6.25718L5.92446 6.26578L5.85268 6.21032L5.67371 6.32401V6.22959L5.78636 6.15805L5.67371 6.0865V5.99209L5.85268 6.10577L5.92446 6.05032L5.99857 6.05892Z" fill="#383739"/>
<path id="path189" d="M5.99857 6.91312L6.03416 6.86279L5.97037 6.814L6.03416 6.76521L5.99857 6.71487L5.92446 6.70627L5.85268 6.76173L5.67371 6.64804V6.74245L5.78636 6.814L5.67371 6.88554V6.97995L5.85268 6.86627L5.92446 6.92173L5.99857 6.91312Z" fill="#383739"/>
<path id="path191" d="M5.28198 5.4918V5.62823H5.38121V5.68851H5.4787V5.57873H5.39175V5.4918H5.28198Z" fill="#383739"/>
<path id="path193" d="M5.57458 5.70695V5.84336H5.67372V5.90366H5.7713V5.79388H5.68437V5.70695H5.57458Z" fill="#383739"/>
<path id="path195" d="M3.52411 5.4918V5.62823H3.42485V5.68851H3.32739V5.57873H3.41432V5.4918H3.52411Z" fill="#383739"/>
<path id="path197" d="M5.28198 7.48027V7.34384H5.38121V7.28355H5.4787V7.39332H5.39175V7.48027H5.28198Z" fill="#383739"/>
<path id="path199" d="M3.52411 7.48027V7.34384H3.42485V7.28355H3.32739V7.39332H3.41432V7.48027H3.52411Z" fill="#383739"/>
<path id="path201" d="M5.57458 7.26512V7.12871H5.67372V7.06841H5.7713V7.17818H5.68437V7.26512H5.57458Z" fill="#383739"/>
<path id="path203" d="M3.23163 5.70695V5.84336H3.13247V5.90366H3.03491V5.79388H3.12184V5.70695H3.23163Z" fill="#383739"/>
<path id="path205" d="M3.23163 7.26512V7.12871H3.13247V7.06841H3.03491V7.17818H3.12184V7.26512H3.23163Z" fill="#383739"/>
<path id="path207" d="M4.77006 5.48863C4.76372 5.48248 4.69432 5.41511 4.69432 5.41511L4.61993 5.48403C4.61993 5.48403 4.67822 5.5406 4.68478 5.54698L4.60107 5.62823H4.72534L4.77006 5.58482L4.81477 5.62823H4.93903L4.85532 5.54698C4.86188 5.5406 4.92015 5.48403 4.92015 5.48403L4.84578 5.41511C4.8205 5.43958 4.79529 5.46412 4.77006 5.48863Z" fill="#383739"/>
<path id="path209" d="M4.4031 5.48863C4.39678 5.48248 4.32738 5.41511 4.32738 5.41511L4.25299 5.48403C4.25299 5.48403 4.31126 5.5406 4.31783 5.54698L4.23413 5.62823H4.35838L4.4031 5.58482L4.44782 5.62823H4.57207L4.48838 5.54698C4.49494 5.5406 4.55321 5.48403 4.55321 5.48403L4.47883 5.41511C4.45356 5.43958 4.42834 5.46412 4.4031 5.48863Z" fill="#383739"/>
<path id="path211" d="M4.03603 5.48863C4.04237 5.48248 4.11177 5.41511 4.11177 5.41511L4.18616 5.48403C4.18616 5.48403 4.12787 5.5406 4.12131 5.54698L4.20502 5.62823H4.08075L4.03603 5.58482L3.99132 5.62823H3.86707L3.95077 5.54698C3.94421 5.5406 3.88592 5.48403 3.88592 5.48403L3.96031 5.41511C3.98559 5.43958 4.0108 5.46412 4.03603 5.48863Z" fill="#383739"/>
<path id="path213" d="M4.77006 7.48343C4.76372 7.48957 4.69432 7.55695 4.69432 7.55695L4.61993 7.48802C4.61993 7.48802 4.67822 7.43146 4.68478 7.42509L4.60107 7.34383H4.72534L4.77006 7.38725L4.81477 7.34383H4.93903L4.85532 7.42509C4.86188 7.43146 4.92015 7.48802 4.92015 7.48802L4.84578 7.55695C4.8205 7.53247 4.79529 7.50794 4.77006 7.48343Z" fill="#383739"/>
<path id="path215" d="M4.4031 7.48343C4.39678 7.48957 4.32738 7.55695 4.32738 7.55695L4.25299 7.48802C4.25299 7.48802 4.31126 7.43146 4.31783 7.42509L4.23413 7.34383H4.35838L4.4031 7.38725L4.44782 7.34383H4.57207L4.48838 7.42509C4.49494 7.43146 4.55321 7.48802 4.55321 7.48802L4.47883 7.55695C4.45356 7.53247 4.42834 7.50794 4.4031 7.48343Z" fill="#383739"/>
<path id="path217" d="M4.03603 7.48343C4.04237 7.48957 4.11177 7.55695 4.11177 7.55695L4.18616 7.48802C4.18616 7.48802 4.12787 7.43146 4.12131 7.42509L4.20502 7.34383H4.08075L4.03603 7.38725L3.99132 7.34383H3.86707L3.95077 7.42509C3.94421 7.43146 3.88592 7.48802 3.88592 7.48802L3.96031 7.55695C3.98559 7.53247 4.0108 7.50794 4.03603 7.48343Z" fill="#383739"/>
</g>
<g id="g261">
<path id="path221" d="M3.12253 6.56306V6.6338L2.95297 6.5261L2.87888 6.58337L2.81322 6.57575L2.78577 6.53691L2.8523 6.48603L2.78577 6.43515L2.81323 6.3963L2.87888 6.38868L2.95297 6.44594L3.12253 6.33823V6.40898L3.00124 6.48603L3.12253 6.56306Z" fill="#00843D"/>
<path id="path223" d="M3.12253 6.23509V6.30585L2.95297 6.19814L2.87888 6.2554L2.81322 6.24778L2.78577 6.20893L2.8523 6.15805L2.78577 6.10719L2.81323 6.06834L2.87888 6.06071L2.95297 6.11796L3.12253 6.01028V6.08102L3.00124 6.15805L3.12253 6.23509Z" fill="#00843D"/>
<path id="path225" d="M3.12253 6.73697V6.66623L2.95297 6.77393L2.87888 6.71666L2.81322 6.72428L2.78577 6.76313L2.8523 6.81401L2.78577 6.86489L2.81323 6.90373L2.87888 6.91135L2.95297 6.8541L3.12253 6.9618V6.89106L3.00124 6.81401L3.12253 6.73697Z" fill="#00843D"/>
<path id="path227" d="M5.68372 6.56306V6.6338L5.85327 6.5261L5.92736 6.58337L5.99301 6.57575L6.02046 6.53691L5.95393 6.48603L6.02046 6.43515L5.99301 6.3963L5.92736 6.38868L5.85327 6.44594L5.68372 6.33823V6.40898L5.80499 6.48603L5.68372 6.56306Z" fill="#00843D"/>
<path id="path229" d="M5.68372 6.23509V6.30585L5.85327 6.19814L5.92736 6.2554L5.99301 6.24778L6.02046 6.20893L5.95393 6.15805L6.02046 6.10719L5.99301 6.06834L5.92736 6.06071L5.85327 6.11796L5.68372 6.01028V6.08102L5.80499 6.15805L5.68372 6.23509Z" fill="#00843D"/>
<path id="path231" d="M5.68372 6.73697V6.66623L5.85327 6.77393L5.92736 6.71666L5.99301 6.72428L6.02046 6.76313L5.95393 6.81401L6.02046 6.86489L5.99301 6.90373L5.92736 6.91135L5.85327 6.8541L5.68372 6.9618V6.89106L5.80499 6.81401L5.68372 6.73697Z" fill="#00843D"/>
<path id="path233" d="M5.38192 5.50179V5.58874H5.46885V5.67855H5.39136V5.61826H5.29211V5.50179H5.38192Z" fill="#00843D"/>
<path id="path235" d="M5.6744 5.71692V5.80385H5.76133V5.89367H5.68383V5.83339H5.58459V5.71692H5.6744Z" fill="#00843D"/>
<path id="path237" d="M3.42433 5.50179V5.58874H3.3374V5.67855H3.41491V5.61826H3.51414V5.50179H3.42433Z" fill="#00843D"/>
<path id="path239" d="M5.38192 7.47024V7.38331H5.46885V7.2935H5.39136V7.35379H5.29211V7.47024H5.38192Z" fill="#00843D"/>
<path id="path241" d="M3.42435 7.47024V7.38331H3.3374V7.2935H3.41491V7.35379H3.51416V7.47024H3.42435Z" fill="#00843D"/>
<path id="path243" d="M5.6744 7.25512V7.16819H5.76133V7.07838H5.68383V7.13867H5.58459V7.25512H5.6744Z" fill="#00843D"/>
<path id="path245" d="M3.13185 5.71692V5.80385H3.04492V5.89367H3.12243V5.83339H3.22166V5.71692H3.13185Z" fill="#00843D"/>
<path id="path247" d="M3.13187 7.25512V7.16819H3.04492V7.07838H3.12243V7.13867H3.22168V7.25512H3.13187Z" fill="#00843D"/>
<path id="path249" d="M4.69432 5.42887C4.70051 5.43488 4.77021 5.50254 4.77021 5.50254C4.77021 5.50254 4.83989 5.43488 4.84608 5.42887C4.85195 5.43429 4.89932 5.47819 4.90581 5.4842C4.8991 5.4907 4.84113 5.54697 4.84113 5.54697L4.91455 5.61825H4.81898L4.77021 5.57089L4.72142 5.61825H4.62585L4.69927 5.54697C4.69927 5.54697 4.6413 5.4907 4.63459 5.4842C4.64108 5.47819 4.68845 5.43429 4.69432 5.42887Z" fill="#00843D"/>
<path id="path251" d="M4.32727 5.42887C4.33346 5.43488 4.40314 5.50254 4.40314 5.50254C4.40314 5.50254 4.47282 5.43488 4.47903 5.42887C4.4849 5.43429 4.53226 5.47819 4.53874 5.4842C4.53205 5.4907 4.47408 5.54697 4.47408 5.54697L4.54749 5.61825H4.45191L4.40314 5.57089L4.35437 5.61825H4.25879L4.3322 5.54697C4.3322 5.54697 4.27423 5.4907 4.26754 5.4842C4.27403 5.47819 4.3214 5.43429 4.32727 5.42887Z" fill="#00843D"/>
<path id="path253" d="M4.11207 5.42887C4.10587 5.43488 4.03618 5.50254 4.03618 5.50254C4.03618 5.50254 3.9665 5.43488 3.96031 5.42887C3.95444 5.43429 3.90707 5.47819 3.90058 5.4842C3.90729 5.4907 3.96526 5.54697 3.96526 5.54697L3.89185 5.61825H3.98741L4.03618 5.57089L4.08497 5.61825H4.18054L4.10712 5.54697C4.10712 5.54697 4.16509 5.4907 4.1718 5.4842C4.16532 5.47819 4.11794 5.43429 4.11207 5.42887Z" fill="#00843D"/>
<path id="path255" d="M4.69432 7.54319C4.70051 7.53716 4.77021 7.46951 4.77021 7.46951C4.77021 7.46951 4.83989 7.53716 4.84608 7.54319C4.85195 7.53775 4.89932 7.49386 4.90581 7.48786C4.8991 7.48135 4.84113 7.42509 4.84113 7.42509L4.91455 7.35381H4.81898L4.77021 7.40116L4.72142 7.35381H4.62585L4.69927 7.42509C4.69927 7.42509 4.6413 7.48135 4.63459 7.48786C4.64108 7.49386 4.68845 7.53775 4.69432 7.54319Z" fill="#00843D"/>
<path id="path257" d="M4.32727 7.54319C4.33346 7.53716 4.40314 7.46951 4.40314 7.46951C4.40314 7.46951 4.47282 7.53716 4.47903 7.54319C4.4849 7.53775 4.53226 7.49386 4.53874 7.48786C4.53205 7.48135 4.47408 7.42509 4.47408 7.42509L4.54749 7.35381H4.45191L4.40314 7.40116L4.35437 7.35381H4.25879L4.3322 7.42509C4.3322 7.42509 4.27423 7.48135 4.26754 7.48786C4.27403 7.49386 4.3214 7.53775 4.32727 7.54319Z" fill="#00843D"/>
<path id="path259" d="M4.11207 7.54319C4.10587 7.53716 4.03618 7.46951 4.03618 7.46951C4.03618 7.46951 3.9665 7.53716 3.96031 7.54319C3.95444 7.53775 3.90707 7.49386 3.90058 7.48786C3.90729 7.48135 3.96526 7.42509 3.96526 7.42509L3.89185 7.35381H3.98741L4.03618 7.40116L4.08497 7.35381H4.18054L4.10712 7.42509C4.10712 7.42509 4.16509 7.48135 4.1718 7.48786C4.16532 7.49386 4.11794 7.53775 4.11207 7.54319Z" fill="#00843D"/>
</g>
<path id="path263" d="M3.41483 7.13868V7.35381H5.39125V7.13868H5.68365V5.83337H5.39125V5.61825H3.41483V5.83337H3.12244V7.13868H3.41483Z" fill="#383739"/>
<path id="path265" d="M3.4255 5.62804V5.84277H3.13306V7.12852H3.4255V7.34325H5.3813V7.12852H5.67378V5.84276H5.3813V5.62803L3.4255 5.62804ZM3.55136 5.71073H5.25546V5.91803L5.32579 5.96987H5.5911V7.00268H5.32456L5.25546 7.05326V7.26179H3.55137V7.05449L3.48103 7.00268H3.2145V5.96987H3.4798L3.55137 5.91803L3.55136 5.71073Z" fill="#FFC72C"/>
<path id="path267" d="M3.56123 5.7206V5.91064L3.81789 5.7206H3.56123ZM4.98766 5.7206L5.24432 5.91064V5.7206H4.98766ZM3.22559 5.97975V6.15743L3.46745 5.97975H3.22559ZM5.33814 5.97975L5.58121 6.15866V5.97975H5.33814ZM5.58121 6.81263L5.33814 6.99281H5.58121V6.81263ZM3.22559 6.81385V6.99281H3.46744L3.22559 6.81385ZM3.56122 7.06191V7.25069H3.81665L3.56122 7.06191ZM5.24431 7.06191L4.98891 7.25069H5.24431V7.06191Z" fill="#D22630"/>
<path id="path269" d="M4.97101 5.72079C4.97363 5.72272 5.57709 6.16842 5.5811 6.17139V6.80064C5.57709 6.80362 4.97363 7.24932 4.97101 7.25126H3.83505C3.83244 7.24932 3.22899 6.80362 3.22498 6.80064V6.17139C3.22899 6.16842 3.83244 5.72272 3.83505 5.72079H4.97101Z" fill="#00843D"/>
<path id="path271" d="M3.37031 6.8731L3.30017 6.79169L3.36602 6.71527L3.30017 6.63885L3.36602 6.56245L3.30017 6.48603L3.36602 6.40961L3.30017 6.33319L3.36601 6.25677L3.30017 6.18035L3.37031 6.09896H5.43586L5.506 6.18035L5.44015 6.25677L5.506 6.33319L5.44015 6.40961L5.506 6.48603L5.44015 6.56245L5.506 6.63885L5.44015 6.71527L5.506 6.79169L5.43586 6.8731H3.37031ZM4.79016 5.81923L4.70875 5.74908L4.63232 5.81494L4.55592 5.74908L4.4795 5.81494L4.40308 5.74908L4.32666 5.81494L4.25024 5.74908L4.17384 5.81494L4.09742 5.74908L4.01601 5.81923V7.15282L4.09742 7.22297L4.17384 7.15712L4.25024 7.22296L4.32666 7.15711L4.40308 7.22296L4.4795 7.15711L4.55592 7.22296L4.63232 7.15712L4.70875 7.22297L4.79016 7.15282V5.81923Z" fill="#383739"/>
<g id="g283">
<path id="path273" d="M4.62734 5.82381L4.55593 5.76226L4.4845 5.82381V7.14824L4.55593 7.20977L4.62734 7.14824V5.82381Z" fill="#FFC72C"/>
<path id="path275" d="M4.32168 5.82381L4.25025 5.76226L4.17883 5.82381V7.14824L4.25025 7.20977L4.32168 7.14824V5.82381Z" fill="#FFC72C"/>
<path id="path277" d="M3.37489 6.86313L3.31335 6.7917L3.37489 6.72028H5.43129L5.49282 6.7917L5.43129 6.86313H3.37489Z" fill="#FFC72C"/>
<path id="path279" d="M5.43127 6.4146L5.49282 6.48603L5.43127 6.55744H3.3749L3.31335 6.48603L3.3749 6.4146H5.43127Z" fill="#FFC72C"/>
<path id="path281" d="M5.43129 6.2518L5.49282 6.18037L5.43129 6.10896H3.37489L3.31335 6.18037L3.37489 6.2518H5.43129Z" fill="#FFC72C"/>
</g>
<g id="g295">
<path id="path285" d="M4.78017 5.82381L4.70876 5.76226L4.63733 5.82381V7.14824L4.70876 7.20977L4.78015 7.14825L4.78017 5.82381Z" fill="#D22630"/>
<path id="path287" d="M4.16886 5.82381L4.09743 5.76226L4.026 5.82381V7.14824L4.09743 7.20977L4.16886 7.14824V5.82381Z" fill="#D22630"/>
<path id="path289" d="M3.3749 6.71028L3.31335 6.63885L3.3749 6.56742H5.43127L5.49282 6.63885L5.43127 6.71028H3.3749Z" fill="#D22630"/>
<path id="path291" d="M3.3749 6.40462L3.31335 6.33319L3.3749 6.26176H5.43127L5.49282 6.33319L5.43127 6.40462H3.3749Z" fill="#D22630"/>
<path id="path293" d="M4.47452 7.14824L4.40309 7.20977L4.33167 7.14824V5.82381L4.40309 5.76226L4.47452 5.82381V7.14824Z" fill="#D22630"/>
</g>
<path id="path297" d="M5.09344 5.84964H3.70773V5.95969H3.53064V7.01236H3.70773V7.1224H5.09843V7.01236H5.27552V5.95969H5.09843V5.84964H5.09344Z" fill="#383739"/>
<path id="path299" d="M3.71785 5.86001V5.96986H3.54016V7.00267H3.71785V7.11248H3.86346L3.57348 6.8694V6.10309L3.86346 5.86001H3.71785ZM4.94319 5.86001L5.23191 6.10309V6.8694L4.94319 7.11248H5.08877V7.00267H5.26524V5.96986H5.08877V5.86001L4.94319 5.86001Z" fill="#D22630"/>
<g id="g327">
<path id="path301" d="M3.87952 5.86001C3.87678 5.86231 3.58688 6.1051 3.58337 6.10803V6.86444C3.58688 6.86739 3.87678 7.11016 3.87952 7.11247H4.92714C4.9299 7.11016 5.21855 6.86738 5.22206 6.86444V6.10803C5.21855 6.1051 4.9299 5.86231 4.92714 5.86001H3.87952ZM3.89433 5.90196H4.91111L5.18011 6.12778V6.8447L4.91111 7.06928H3.89433L3.62656 6.8447V6.12778L3.89433 5.90196Z" fill="#00843D"/>
<path id="path303" d="M4.16362 6.85605L4.20913 6.87572L4.21751 6.92888L4.16021 6.97928L4.24344 7.05975H4.16335L4.1061 7.00464L4.04883 7.05975H3.96875L4.05199 6.97928L3.99468 6.92888L4.00307 6.87572L4.04857 6.85605L4.1061 6.90205L4.10922 6.89956L4.16362 6.85605Z" fill="#00843D"/>
<path id="path305" d="M4.46063 6.85605L4.50613 6.87572L4.51452 6.92888L4.45722 6.97928L4.54045 7.05975H4.46037L4.4031 7.00464L4.34584 7.05975H4.26575L4.34899 6.97928L4.29169 6.92888L4.30008 6.87572L4.34558 6.85605L4.4031 6.90205L4.40621 6.89956L4.46063 6.85605Z" fill="#00843D"/>
<path id="path307" d="M4.64256 6.85605L4.59706 6.87572L4.58867 6.92888L4.64597 6.97928L4.56274 7.05975H4.64283L4.70009 7.00464L4.75735 7.05975H4.83743L4.7542 6.97928L4.8115 6.92888L4.80311 6.87572L4.75761 6.85605L4.70009 6.90205L4.69696 6.89956L4.64256 6.85605Z" fill="#00843D"/>
<path id="path309" d="M4.16362 6.116L4.20913 6.09633L4.21751 6.04319L4.16021 5.99278L4.24344 5.91231H4.16335L4.1061 5.96741L4.04883 5.91231H3.96875L4.05199 5.99278L3.99468 6.04317L4.00307 6.09633L4.04857 6.116L4.1061 6.07001L4.10922 6.0725L4.16362 6.116Z" fill="#00843D"/>
<path id="path311" d="M4.46063 6.116L4.50613 6.09633L4.51452 6.04319L4.45722 5.99278L4.54045 5.91231H4.46037L4.4031 5.96741L4.34584 5.91231H4.26575L4.34899 5.99278L4.29169 6.04317L4.30008 6.09633L4.34558 6.116L4.4031 6.07001L4.40621 6.0725L4.46063 6.116Z" fill="#00843D"/>
<path id="path313" d="M4.64256 6.116L4.59706 6.09633L4.58867 6.04319L4.64597 5.99278L4.56274 5.91231H4.64283L4.70009 5.96741L4.75735 5.91231H4.83743L4.7542 5.99278L4.8115 6.04317L4.80311 6.09633L4.75761 6.116L4.70009 6.07001L4.69696 6.0725L4.64256 6.116Z" fill="#00843D"/>
<path id="path315" d="M5.16963 6.20089L5.1242 6.23851L5.16963 6.27611V6.33847L5.09977 6.28089C5.09977 6.28089 5.05279 6.32345 5.04963 6.32632C5.0456 6.32582 5.00034 6.32013 4.99587 6.31957C4.99387 6.31589 4.97974 6.28984 4.97693 6.28462C4.98161 6.27995 5.0232 6.23851 5.0232 6.23851C5.0232 6.23851 4.98161 6.19705 4.97693 6.19238C4.97974 6.18717 4.99387 6.1611 4.99587 6.15743C5.00034 6.15688 5.0456 6.15117 5.04963 6.15067C5.05279 6.15353 5.09977 6.19611 5.09977 6.19611L5.16963 6.13855V6.20089Z" fill="#00843D"/>
<path id="path317" d="M5.16963 6.44842L5.1242 6.48604L5.16963 6.52362V6.58599L5.09977 6.52842C5.09977 6.52842 5.05279 6.57098 5.04963 6.57385C5.0456 6.57334 5.00034 6.56764 4.99587 6.5671C4.99387 6.56342 4.97974 6.53735 4.97693 6.53215C4.98161 6.52748 5.0232 6.48604 5.0232 6.48604C5.0232 6.48604 4.98161 6.44456 4.97693 6.43989C4.97974 6.43469 4.99387 6.40862 4.99587 6.40495C5.00034 6.4044 5.0456 6.3987 5.04963 6.3982C5.05279 6.40106 5.09977 6.44363 5.09977 6.44363L5.16963 6.38608V6.44842Z" fill="#00843D"/>
<path id="path319" d="M5.16963 6.77118L5.1242 6.73356L5.16963 6.69596V6.63361L5.09977 6.69118C5.09977 6.69118 5.05279 6.6486 5.04963 6.64574C5.0456 6.64624 5.00034 6.65195 4.99587 6.65249C4.99387 6.65617 4.97974 6.68224 4.97693 6.68744C4.98161 6.69212 5.0232 6.73356 5.0232 6.73356C5.0232 6.73356 4.98161 6.77502 4.97693 6.77969C4.97974 6.78489 4.99387 6.81096 4.99587 6.81464C5.00034 6.8152 5.0456 6.82089 5.04963 6.82139C5.05279 6.81852 5.09977 6.77596 5.09977 6.77596L5.16963 6.83352V6.77118Z" fill="#00843D"/>
<path id="path321" d="M3.6366 6.20089L3.68201 6.23851L3.6366 6.27611V6.33847L3.70646 6.28089C3.70646 6.28089 3.75344 6.32345 3.7566 6.32632C3.76061 6.32582 3.80589 6.32013 3.81036 6.31957C3.81236 6.31589 3.82648 6.28984 3.8293 6.28462C3.82462 6.27995 3.78303 6.23851 3.78303 6.23851C3.78303 6.23851 3.82462 6.19705 3.8293 6.19238C3.82648 6.18717 3.81236 6.1611 3.81036 6.15743C3.80589 6.15688 3.76061 6.15117 3.7566 6.15067C3.75344 6.15353 3.70646 6.19611 3.70646 6.19611L3.6366 6.13855V6.20089Z" fill="#00843D"/>
<path id="path323" d="M3.6366 6.44842L3.68201 6.48604L3.6366 6.52362V6.58599L3.70646 6.52842C3.70646 6.52842 3.75344 6.57098 3.7566 6.57385C3.76061 6.57334 3.80589 6.56764 3.81036 6.5671C3.81236 6.56342 3.82648 6.53735 3.8293 6.53215C3.82462 6.52748 3.78303 6.48604 3.78303 6.48604C3.78303 6.48604 3.82462 6.44456 3.8293 6.43989C3.82648 6.43469 3.81236 6.40862 3.81036 6.40495C3.80589 6.4044 3.76061 6.3987 3.7566 6.3982C3.75344 6.40106 3.70646 6.44363 3.70646 6.44363L3.6366 6.38608V6.44842Z" fill="#00843D"/>
<path id="path325" d="M3.6366 6.77118L3.68201 6.73356L3.6366 6.69596V6.63361L3.70646 6.69118C3.70646 6.69118 3.75344 6.6486 3.7566 6.64574C3.76061 6.64624 3.80589 6.65195 3.81036 6.65249C3.81236 6.65617 3.82648 6.68224 3.8293 6.68744C3.82462 6.69212 3.78303 6.73356 3.78303 6.73356C3.78303 6.73356 3.82462 6.77502 3.8293 6.77969C3.82648 6.78489 3.81236 6.81096 3.81036 6.81464C3.80589 6.8152 3.76061 6.82089 3.7566 6.82139C3.75344 6.81852 3.70646 6.77596 3.70646 6.77596L3.6366 6.83352V6.77118Z" fill="#00843D"/>
</g>
<path id="path329" d="M3.89807 5.91187C3.89538 5.91413 3.65108 6.11865 3.64018 6.12781C3.6622 6.14606 3.6835 6.16515 3.70558 6.18334C3.71116 6.17828 3.7537 6.14014 3.7537 6.14014L3.81663 6.14878L3.84131 6.19443C3.84131 6.19443 3.80293 6.23284 3.79689 6.23885C3.80293 6.24485 3.84131 6.28328 3.84131 6.28328L3.81663 6.32893L3.7537 6.33634C3.7537 6.33634 3.71117 6.29944 3.70558 6.29438L3.63647 6.35238V6.37212C3.65972 6.39136 3.68225 6.4109 3.70558 6.43012C3.71117 6.42507 3.7537 6.38816 3.7537 6.38816L3.81663 6.39557L3.84131 6.44122C3.84131 6.44122 3.80293 6.47963 3.79689 6.48565C3.80293 6.49164 3.84131 6.53007 3.84131 6.53007L3.81663 6.57696L3.7537 6.58436C3.7537 6.58436 3.71117 6.54623 3.70558 6.54117L3.63647 6.59917V6.62015L3.70558 6.67814C3.71117 6.6731 3.7537 6.63495 3.7537 6.63495L3.81663 6.64359L3.84131 6.68925C3.84131 6.68925 3.80293 6.72766 3.79689 6.73367C3.80293 6.73968 3.84131 6.77809 3.84131 6.77809L3.81663 6.82375L3.7537 6.83238C3.7537 6.83238 3.71117 6.79426 3.70558 6.7892C3.68359 6.80731 3.66212 6.8254 3.64018 6.84349C3.65108 6.85265 3.89537 7.05716 3.89807 7.05943H3.95483L4.03751 6.97923L3.98445 6.93233L3.99432 6.86817L4.04985 6.84472L4.10661 6.88915L4.16214 6.84472L4.21766 6.86817L4.22877 6.93233L4.17448 6.97923L4.25468 7.05573L4.33489 6.97923L4.2806 6.93233L4.29047 6.86817L4.34723 6.84472L4.40276 6.88915L4.45952 6.84472L4.51505 6.86817L4.52492 6.93233L4.47186 6.97923L4.55083 7.05696L4.63104 6.97923L4.57798 6.93233L4.58785 6.86817L4.64461 6.84472L4.70014 6.88915L4.75567 6.84472L4.81243 6.86817L4.8223 6.93233L4.76924 6.97923L4.85192 7.05943H4.90744C4.91014 7.05716 5.15443 6.85265 5.16534 6.84349C5.14336 6.82539 5.12195 6.80735 5.09994 6.7892C5.09435 6.79426 5.05305 6.83238 5.05305 6.83238L4.99012 6.82375L4.9642 6.77809C4.9642 6.77809 5.0026 6.73968 5.00863 6.73367C5.0026 6.72766 4.9642 6.68925 4.9642 6.68925L4.99012 6.64359L5.05305 6.63495C5.05305 6.63495 5.09435 6.6731 5.09994 6.67814L5.16904 6.62015V6.59917L5.09994 6.54117C5.09435 6.54623 5.05305 6.58436 5.05305 6.58436L4.99012 6.57696L4.9642 6.53007C4.9642 6.53007 5.0026 6.49164 5.00863 6.48565C5.0026 6.47963 4.9642 6.44122 4.9642 6.44122L4.99012 6.39557L5.05305 6.38816C5.05305 6.38816 5.09435 6.42507 5.09994 6.43012C5.12311 6.41103 5.14592 6.39237 5.16904 6.37336V6.35114L5.09994 6.29438C5.09435 6.29944 5.05305 6.33634 5.05305 6.33634L4.99012 6.32893L4.9642 6.28328C4.9642 6.28328 5.0026 6.24485 5.00863 6.23885C5.0026 6.23284 4.9642 6.19443 4.9642 6.19443L4.99012 6.14878L5.05305 6.14014C5.05305 6.14014 5.09435 6.17828 5.09994 6.18333C5.12205 6.16511 5.14446 6.14726 5.16657 6.12903C5.15808 6.12191 4.91015 5.91413 4.90744 5.91186H4.85191L4.76924 5.99206L4.8223 6.03895L4.81243 6.10312L4.75567 6.1278L4.70014 6.08338L4.64461 6.1278L4.58785 6.10312L4.57798 6.03895L4.63104 5.99206L4.55206 5.91556L4.47186 5.99206L4.52492 6.03895L4.51505 6.10312L4.45952 6.1278L4.40276 6.08338L4.34723 6.1278L4.29047 6.10312L4.2806 6.03895L4.33489 5.99206L4.25468 5.91556L4.17448 5.99206L4.22877 6.03895L4.21766 6.10312L4.16214 6.1278L4.10661 6.08338L4.04985 6.1278L3.99432 6.10312L3.98445 6.03895L4.03751 5.99206L3.9536 5.91186L3.89807 5.91187ZM3.63648 6.46097V6.51156L3.66609 6.48565L3.63648 6.46097Z" fill="#D22630"/>
<g id="g355">
<path id="path331" d="M4.10655 7.01871L4.06335 7.05942H4.14849L4.10655 7.01871Z" fill="white"/>
<path id="path333" d="M4.40277 7.01871L4.36084 7.05942H4.44597L4.40277 7.01871Z" fill="white"/>
<path id="path335" d="M4.70014 7.01871L4.65698 7.05942H4.74334L4.70014 7.01871Z" fill="white"/>
<path id="path337" d="M4.06213 5.91187L4.10656 5.9538L4.14975 5.91187H4.06213Z" fill="white"/>
<path id="path339" d="M4.35962 5.91187L4.40282 5.9538L4.44724 5.91187H4.35962Z" fill="white"/>
<path id="path341" d="M4.65698 5.91187L4.70014 5.9538L4.74334 5.91187H4.65698Z" fill="white"/>
<path id="path343" d="M5.16902 6.21416L5.1394 6.23884L5.16902 6.2623V6.21416Z" fill="white"/>
<path id="path345" d="M5.16902 6.46095L5.1394 6.48563L5.16902 6.51031V6.46095Z" fill="white"/>
<path id="path347" d="M5.16902 6.70897L5.1394 6.73365L5.16902 6.75833V6.70897Z" fill="white"/>
<path id="path349" d="M3.63647 6.21295V6.26353L3.66609 6.23886L3.63647 6.21295Z" fill="white"/>
<path id="path351" d="M3.63647 6.46095V6.51154L3.66609 6.48563L3.63647 6.46095Z" fill="white"/>
<path id="path353" d="M3.63647 6.70776V6.75835L3.66609 6.73367L3.63647 6.70776Z" fill="white"/>
</g>
<g id="g375">
<path id="path357" d="M4.6571 6.40334V6.31501H4.56771V6.21819H4.23848V6.31501H4.14909V6.40334H4.02563V6.5687H4.14909V6.65702H4.23848V6.75386H4.56771V6.65702H4.6571V6.5687H4.78054V6.40334H4.6571Z" fill="#383739"/>
<path id="path359" d="M4.39811 6.22817V6.32799L4.2566 6.40843V6.48104H4.03564V6.41333H4.15909V6.32501H4.24848V6.22817H4.39811Z" fill="#FFC72C"/>
<path id="path361" d="M4.40808 6.74389V6.64408L4.54958 6.56362V6.49103H4.77055V6.55872H4.64711V6.64705H4.55772V6.74389H4.40808Z" fill="#FFC72C"/>
<path id="path363" d="M4.54958 6.48104V6.40843L4.40808 6.32799V6.22817H4.55772V6.32501H4.64711V6.41333H4.77055V6.48104H4.54958Z" fill="white"/>
<path id="path365" d="M4.03564 6.49103H4.2566V6.56362L4.39811 6.64408V6.74389H4.24848V6.64705H4.15909V6.55872H4.03564V6.49103Z" fill="white"/>
<path id="path367" d="M4.2666 6.49103V6.55832L4.39812 6.6331V6.49103H4.2666Z" fill="#D22630"/>
<path id="path369" d="M4.39812 6.33897L4.2666 6.41374V6.48103H4.39812V6.33897Z" fill="#00843D"/>
<path id="path371" d="M4.5396 6.48103V6.41374L4.40808 6.33897V6.48103H4.5396Z" fill="#D22630"/>
<path id="path373" d="M4.40808 6.63309L4.5396 6.55831V6.49102H4.40808V6.63309Z" fill="#00843D"/>
</g>
<path id="path378" d="M3.20675 8.24085V8.51381H2.94663V8.76139H2.68298V9.46633H2.94663V9.71391H3.20675V9.98688H4.15255L4.31888 10.0868L4.23895 10.1348H3.9017L3.87261 10.102H4.17824L4.09214 10.0153H3.65494L3.85303 10.2215H4.26301L4.40306 10.1374L4.5431 10.2215H4.95311L5.15118 10.0153H4.714L4.62788 10.102H4.93353L4.90443 10.1348H4.56716L4.48723 10.0868L4.65357 9.98688H5.59938V9.71391H5.8595V9.46633H6.12313V8.76139H5.8595V8.51381H5.59938V8.24085H4.65357L4.48723 8.14092L4.56716 8.09289H4.90443L4.93353 8.12569H4.62788L4.714 8.2124H5.15118L4.95311 8.00618H4.5431L4.40306 8.09033L4.26301 8.00618H3.85303L3.65494 8.2124H4.09214L4.17824 8.12569H3.87261L3.9017 8.09289H4.23895L4.31888 8.14092L4.15255 8.24085H3.20675Z" fill="#D22630"/>
<path id="path380" d="M4.65078 9.97647H5.58982V9.70377H5.84895V9.45575H6.11301V8.7709H5.84895V8.52411H5.58982V8.25141H4.65078L4.26085 8.01572H3.85735L3.67843 8.20205H4.0881L4.15473 8.13542H3.84995L3.89684 8.08236H4.24234L4.6841 8.34889H5.4911V8.62159H5.75147V8.86962H6.01553V9.35826H5.75147V9.60629H5.4911V9.87899H4.6841L4.24234 10.1443H3.89684L3.84995 10.0925H4.15473L4.0881 10.0258H3.67843L3.85735 10.2122H4.26085L4.65078 9.97647ZM4.12142 9.87899H3.31442V9.60629H3.05529V9.35826H2.79122V8.86962H3.05529V8.62159H3.31442V8.34889H4.12142L4.56441 8.08236H4.90868L4.95557 8.13542H4.65202L4.71865 8.20205H5.12832L4.9494 8.01572H4.5459L4.15597 8.25141H3.21693V8.52411H2.95657V8.7709H2.6925V9.45575H2.95657V9.70377H3.21693V9.97647H4.15597L4.5459 10.2122H4.9494L5.12832 10.0258H4.71865L4.65202 10.0925H4.95557L4.90868 10.1443H4.56441L4.12142 9.87899Z" fill="#FFC72C"/>
<path id="path384" d="M5.41285 9.52739V9.80036H4.66269L4.40305 9.95636L4.14342 9.80036H3.39327V9.52739H3.13314V9.2798H2.86951V8.94791H3.13314V8.70032H3.39327V8.42737H4.14204H4.14342L4.40305 8.27137L4.66269 8.42737H5.41285V8.70032H5.67297V8.94791H5.9366V9.2798H5.67297V9.52739H5.41285Z" fill="#00843D"/>
<g id="g402">
<path id="path386" d="M3.49146 9.43176V9.69594H3.90381L3.49146 9.42245V9.43176Z" fill="#383739"/>
<path id="path388" d="M3.49146 8.79596V8.53176H3.90381L3.49146 8.80526V8.79596Z" fill="#383739"/>
<path id="path390" d="M5.31458 9.43176V9.69594H4.90222L5.31458 9.42245V9.43176Z" fill="#383739"/>
<path id="path392" d="M5.31458 8.79596V8.53176H4.90222L5.31458 8.80526V8.79596Z" fill="#383739"/>
<path id="path394" d="M3.50146 9.44106L3.87071 9.68597H3.50146V9.44106Z" fill="#D22630"/>
<path id="path396" d="M3.50146 8.78667C3.51582 8.77713 3.84555 8.55843 3.87071 8.54176H3.50146V8.78667Z" fill="#D22630"/>
<path id="path398" d="M5.30467 9.44106C5.2903 9.45059 4.96057 9.66928 4.93542 9.68597H5.30467V9.44106Z" fill="#D22630"/>
<path id="path400" d="M5.30467 8.78667C5.2903 8.77715 4.96057 8.55845 4.93542 8.54176H5.30467V8.78667Z" fill="#D22630"/>
</g>
<g id="carp4y">
<path id="path404" d="M4.01748 9.04142V8.90651H3.97146L3.75069 8.76847L3.74805 8.77013L3.52993 8.90651H3.48392V9.04142H3.38013V9.18632H3.48392V9.32122H3.52993L3.75069 9.45926L3.97146 9.32122H4.01748V9.18632H4.17547V9.04142H4.01748Z" fill="#383739"/>
<path id="path406" d="M3.75074 8.78027L3.95269 8.90652H3.54883L3.75074 8.78027ZM3.95266 9.32124L3.75074 9.44749L3.54884 9.32124H3.95266Z" fill="#D22630"/>
<path id="path408" d="M3.90367 9.05141V9.17635H3.65186V9.05141H3.90367Z" fill="#D22630"/>
<g id="g422">
<path id="path410" d="M4.00755 9.18631V9.31125H3.75574V9.18631H4.00755Z" fill="#FFC72C"/>
<path id="path412" d="M3.74571 9.18631V9.31125H3.4939V9.18631H3.74571Z" fill="#FFC72C"/>
<path id="path414" d="M4.16551 9.05141V9.17635H3.9137V9.05141H4.16551Z" fill="#FFC72C"/>
<path id="path416" d="M3.64195 9.05141V9.17635H3.39014V9.05141H3.64195Z" fill="#FFC72C"/>
<path id="path418" d="M4.00755 8.9165V9.04143H3.75574V8.9165H4.00755Z" fill="#FFC72C"/>
<path id="path420" d="M3.74571 8.9165V9.04143H3.4939V8.9165H3.74571Z" fill="#FFC72C"/>
</g>
<g id="g438">
<path id="path424" d="M3.57258 9.07916V9.14858H3.45947V9.07916H3.57258Z" fill="#383739"/>
<path id="path426" d="M3.67634 8.94425V9.01367H3.56323V8.94425H3.67634Z" fill="#383739"/>
<path id="path428" d="M3.93818 8.94425V9.01367H3.82507V8.94425H3.93818Z" fill="#383739"/>
<path id="path430" d="M3.8343 9.07916V9.14858H3.72119V9.07916H3.8343Z" fill="#383739"/>
<path id="path432" d="M4.09614 9.07916V9.14858H3.98303V9.07916H4.09614Z" fill="#383739"/>
<path id="path434" d="M3.93818 9.21408V9.2835H3.82507V9.21408H3.93818Z" fill="#383739"/>
<path id="path436" d="M3.67634 9.21408V9.2835H3.56323V9.21408H3.67634Z" fill="#383739"/>
</g>
<g id="g454">
<path id="path440" d="M3.5619 9.08981H3.47009V9.13792H3.5619V9.08981Z" fill="white"/>
<path id="path442" d="M3.66566 8.9549H3.57385V9.00301H3.66566V8.9549Z" fill="white"/>
<path id="path444" d="M3.9275 8.9549H3.83569V9.00301H3.9275V8.9549Z" fill="white"/>
<path id="path446" d="M3.82374 9.08981H3.73193V9.13792H3.82374V9.08981Z" fill="white"/>
<path id="path448" d="M4.08546 9.08981H3.99365V9.13792H4.08546V9.08981Z" fill="white"/>
<path id="path450" d="M3.9275 9.22472H3.83569V9.27284H3.9275V9.22472Z" fill="white"/>
<path id="path452" d="M3.66566 9.22472H3.57385V9.27284H3.66566V9.22472Z" fill="white"/>
</g>
</g>
<g id="use457">
<path id="path404_2" d="M4.78868 9.04142V8.90651H4.83469L5.05546 8.76847L5.05811 8.77013L5.27622 8.90651H5.32224V9.04142H5.42603V9.18632H5.32224V9.32122H5.27622L5.05546 9.45926L4.83469 9.32122H4.78868V9.18632H4.63068V9.04142H4.78868Z" fill="#383739"/>
<path id="path406_2" d="M5.05541 8.78027L4.85347 8.90652H5.25732L5.05541 8.78027ZM4.85349 9.32124L5.05541 9.44749L5.25731 9.32124H4.85349Z" fill="#D22630"/>
<path id="path408_2" d="M4.90248 9.05141V9.17635H5.1543V9.05141H4.90248Z" fill="#D22630"/>
<g id="g422_2">
<path id="path410_2" d="M4.7986 9.18631V9.31125H5.05042V9.18631H4.7986Z" fill="#FFC72C"/>
<path id="path412_2" d="M5.06044 9.18631V9.31125H5.31226V9.18631H5.06044Z" fill="#FFC72C"/>
<path id="path414_2" d="M4.64064 9.05141V9.17635H4.89246V9.05141H4.64064Z" fill="#FFC72C"/>
<path id="path416_2" d="M5.1642 9.05141V9.17635H5.41602V9.05141H5.1642Z" fill="#FFC72C"/>
<path id="path418_2" d="M4.7986 8.9165V9.04143H5.05042V8.9165H4.7986Z" fill="#FFC72C"/>
<path id="path420_2" d="M5.06044 8.9165V9.04143H5.31226V8.9165H5.06044Z" fill="#FFC72C"/>
</g>
<g id="g438_2">
<path id="path424_2" d="M5.23357 9.07916V9.14858H5.34668V9.07916H5.23357Z" fill="#383739"/>
<path id="path426_2" d="M5.12981 8.94425V9.01367H5.24292V8.94425H5.12981Z" fill="#383739"/>
<path id="path428_2" d="M4.86797 8.94425V9.01367H4.98108V8.94425H4.86797Z" fill="#383739"/>
<path id="path430_2" d="M4.97185 9.07916V9.14858H5.08496V9.07916H4.97185Z" fill="#383739"/>
<path id="path432_2" d="M4.71001 9.07916V9.14858H4.82312V9.07916H4.71001Z" fill="#383739"/>
<path id="path434_2" d="M4.86797 9.21408V9.2835H4.98108V9.21408H4.86797Z" fill="#383739"/>
<path id="path436_2" d="M5.12981 9.21408V9.2835H5.24292V9.21408H5.12981Z" fill="#383739"/>
</g>
<g id="g454_2">
<path id="path440_2" d="M5.24425 9.08981H5.33606V9.13792H5.24425V9.08981Z" fill="white"/>
<path id="path442_2" d="M5.14049 8.9549H5.2323V9.00301H5.14049V8.9549Z" fill="white"/>
<path id="path444_2" d="M4.87865 8.9549H4.97046V9.00301H4.87865V8.9549Z" fill="white"/>
<path id="path446_2" d="M4.98241 9.08981H5.07422V9.13792H4.98241V9.08981Z" fill="white"/>
<path id="path448_2" d="M4.72069 9.08981H4.8125V9.13792H4.72069V9.08981Z" fill="white"/>
<path id="path450_2" d="M4.87865 9.22472H4.97046V9.27284H4.87865V9.22472Z" fill="white"/>
<path id="path452_2" d="M5.14049 9.22472H5.2323V9.27284H5.14049V9.22472Z" fill="white"/>
</g>
</g>
<g id="carp4r">
<path id="path459" d="M4.66982 8.81604V8.95095H4.62381L4.40304 9.08898L4.4004 9.08733L4.18228 8.95095H4.13626V8.81604H4.00537V8.67115H4.13626V8.53624H4.18228L4.40304 8.39819L4.62381 8.53624H4.66982V8.67115H4.80072V8.81604H4.66982Z" fill="#383739"/>
<path id="path461" d="M4.40309 9.0772L4.60502 8.95094H4.20117L4.40309 9.0772ZM4.605 8.53623L4.40309 8.40997L4.20119 8.53623H4.605Z" fill="#FFC72C"/>
<g id="g477">
<path id="path463" d="M4.6599 8.67113V8.54621H4.40808V8.67113H4.6599Z" fill="#D22630"/>
<path id="path465" d="M4.39806 8.67113V8.54621H4.14624V8.67113H4.39806Z" fill="#D22630"/>
<path id="path467" d="M4.79076 8.80604V8.68111H4.53894V8.80604H4.79076Z" fill="#D22630"/>
<path id="path469" d="M4.52892 8.80604V8.68111H4.2771V8.80604H4.52892Z" fill="#D22630"/>
<path id="path471" d="M4.26718 8.80604V8.68111H4.01538V8.80604H4.26718Z" fill="#D22630"/>
<path id="path473" d="M4.6599 8.94096V8.81602H4.40808V8.94096H4.6599Z" fill="#D22630"/>
<path id="path475" d="M4.39806 8.94096V8.81602H4.14624V8.94096H4.39806Z" fill="#D22630"/>
</g>
<g id="g493">
<path id="path479" d="M4.32869 8.57397V8.64338H4.21558V8.57397H4.32869Z" fill="#383739"/>
<path id="path481" d="M4.59053 8.57397V8.64338H4.47742V8.57397H4.59053Z" fill="#383739"/>
<path id="path483" d="M4.19783 8.70888V8.77829H4.08472V8.70888H4.19783Z" fill="#383739"/>
<path id="path485" d="M4.45967 8.70888V8.77829H4.34656V8.70888H4.45967Z" fill="#383739"/>
<path id="path487" d="M4.72139 8.70888V8.77829H4.60828V8.70888H4.72139Z" fill="#383739"/>
<path id="path489" d="M4.32869 8.8438V8.91321H4.21558V8.8438H4.32869Z" fill="#383739"/>
<path id="path491" d="M4.59053 8.8438V8.91321H4.47742V8.8438H4.59053Z" fill="#383739"/>
</g>
<g id="g509">
<path id="path495" d="M4.31801 8.58461H4.2262V8.63272H4.31801V8.58461Z" fill="white"/>
<path id="path497" d="M4.57985 8.58461H4.48804V8.63272H4.57985V8.58461Z" fill="white"/>
<path id="path499" d="M4.18715 8.71952H4.09534V8.76763H4.18715V8.71952Z" fill="white"/>
<path id="path501" d="M4.44899 8.71952H4.35718V8.76763H4.44899V8.71952Z" fill="white"/>
<path id="path503" d="M4.71071 8.71952H4.6189V8.76763H4.71071V8.71952Z" fill="white"/>
<path id="path505" d="M4.31801 8.85444H4.2262V8.90255H4.31801V8.85444Z" fill="white"/>
<path id="path507" d="M4.57985 8.85444H4.48804V8.90255H4.57985V8.85444Z" fill="white"/>
</g>
</g>
<g id="use512">
<path id="path459_2" d="M4.66982 9.55661V9.69152H4.62381L4.40304 9.82955L4.4004 9.8279L4.18228 9.69152H4.13626V9.55661H4.00537V9.41172H4.13626V9.27681H4.18228L4.40304 9.13876L4.62381 9.27681H4.66982V9.41172H4.80072V9.55661H4.66982Z" fill="#383739"/>
<path id="path461_2" d="M4.40309 9.81777L4.60502 9.69151H4.20117L4.40309 9.81777ZM4.605 9.2768L4.40309 9.15054L4.20119 9.2768H4.605Z" fill="#FFC72C"/>
<g id="g477_2">
<path id="path463_2" d="M4.6599 9.4117V9.28678H4.40808V9.4117H4.6599Z" fill="#D22630"/>
<path id="path465_2" d="M4.39806 9.4117V9.28678H4.14624V9.4117H4.39806Z" fill="#D22630"/>
<path id="path467_2" d="M4.79076 9.54661V9.42168H4.53894V9.54661H4.79076Z" fill="#D22630"/>
<path id="path469_2" d="M4.52892 9.54661V9.42168H4.2771V9.54661H4.52892Z" fill="#D22630"/>
<path id="path471_2" d="M4.26718 9.54661V9.42168H4.01538V9.54661H4.26718Z" fill="#D22630"/>
<path id="path473_2" d="M4.6599 9.68153V9.55659H4.40808V9.68153H4.6599Z" fill="#D22630"/>
<path id="path475_2" d="M4.39806 9.68153V9.55659H4.14624V9.68153H4.39806Z" fill="#D22630"/>
</g>
<g id="g493_2">
<path id="path479_2" d="M4.32869 9.31454V9.38395H4.21558V9.31454H4.32869Z" fill="#383739"/>
<path id="path481_2" d="M4.59053 9.31454V9.38395H4.47742V9.31454H4.59053Z" fill="#383739"/>
<path id="path483_2" d="M4.19783 9.44945V9.51886H4.08472V9.44945H4.19783Z" fill="#383739"/>
<path id="path485_2" d="M4.45967 9.44945V9.51886H4.34656V9.44945H4.45967Z" fill="#383739"/>
<path id="path487_2" d="M4.72139 9.44945V9.51886H4.60828V9.44945H4.72139Z" fill="#383739"/>
<path id="path489_2" d="M4.32869 9.58437V9.65378H4.21558V9.58437H4.32869Z" fill="#383739"/>
<path id="path491_2" d="M4.59053 9.58437V9.65378H4.47742V9.58437H4.59053Z" fill="#383739"/>
</g>
<g id="g509_2">
<path id="path495_2" d="M4.31801 9.32518H4.2262V9.37329H4.31801V9.32518Z" fill="white"/>
<path id="path497_2" d="M4.57985 9.32518H4.48804V9.37329H4.57985V9.32518Z" fill="white"/>
<path id="path499_2" d="M4.18715 9.46009H4.09534V9.5082H4.18715V9.46009Z" fill="white"/>
<path id="path501_2" d="M4.44899 9.46009H4.35718V9.5082H4.44899V9.46009Z" fill="white"/>
<path id="path503_2" d="M4.71071 9.46009H4.6189V9.5082H4.71071V9.46009Z" fill="white"/>
<path id="path505_2" d="M4.31801 9.59501H4.2262V9.64312H4.31801V9.59501Z" fill="white"/>
<path id="path507_2" d="M4.57985 9.59501H4.48804V9.64312H4.57985V9.59501Z" fill="white"/>
</g>
</g>
<path id="path515" d="M2.97449 11.1675L3.95416 10.6403H3.95542H4.85201L5.83169 11.1675V12.0362L4.85201 12.5635H3.95416L2.97449 12.0362V11.1675Z" fill="#383739"/>
<path id="path517" d="M3.95735 10.6502L2.98499 11.1734V12.0298L3.95735 12.553H4.84946L5.82186 12.0298V11.1734L4.84946 10.6502H3.95735ZM3.9746 10.7206H4.83221L5.75275 11.2154V11.9891L4.83221 12.4839H3.97408L3.05357 11.9891V11.2154L3.9746 10.7206Z" fill="#00843D"/>
<path id="path519" d="M4.40812 11.5969V12.4738H4.82968L5.74253 11.9825V11.6069L4.39813 11.6069V10.73H3.97658L3.06372 11.2212V11.5969L4.40812 11.5969Z" fill="#FFC72C"/>
<path id="path521" d="M4.39814 11.5969V12.4738H3.97658L3.06372 11.9825V11.6069L4.40812 11.6069V10.73H4.82968L5.74253 11.2212V11.5969L4.39814 11.5969Z" fill="white"/>
<path id="path523" d="M4.48501 12.4247V12.1712L4.40307 12.2232L4.32112 12.1712V12.4247H4.06621L4.23821 12.2985V12.1186L3.9759 11.9522H3.7926V11.2516H3.9759L4.23821 11.0852V10.9052L4.06621 10.7791H4.08146H4.32112V11.0326L4.40307 10.9806L4.48501 11.0326V10.7791H4.73993L4.56792 10.9052V11.0852L4.83023 11.2516H5.01353V11.9522H4.83023L4.56792 12.1186V12.2985L4.73993 12.4247H4.48501Z" fill="#383739"/>
<path id="path525" d="M4.49524 10.7896V11.0512L4.40762 10.9957V11.0698L4.80864 11.3252H4.94068V11.5967H5.00362V11.261H4.82716L4.55818 11.0907V10.9007L4.70992 10.7896H4.49524ZM3.80298 11.6065V11.9422H3.9782L4.24845 12.1137V12.3037L4.09666 12.4148H4.31139V12.1532L4.39774 12.2087V12.1322L3.99672 11.8792H3.86591V11.6065L3.80298 11.6065Z" fill="#FFC72C"/>
<path id="path527" d="M4.09666 10.7896L4.24844 10.9007V11.0907L3.9782 11.261H3.80298V11.5967H3.86591V11.3252H3.99672L4.39774 11.071V10.9957L4.31139 11.0512V10.7897L4.09666 10.7896ZM4.94068 11.6065V11.8792H4.80864L4.40761 12.1322V12.2087L4.49523 12.1532V12.4148H4.70992L4.55817 12.3037V12.1137L4.82716 11.9422H5.00362V11.6065L4.94068 11.6065Z" fill="white"/>
<path id="path529" d="M3.87549 11.8688H3.99984L4.40305 12.1247L4.80625 11.8688H4.93062V11.335H4.80771H4.80625L4.40305 11.0791L3.99984 11.335H3.87549V11.8688Z" fill="#D22630"/>
<path id="path531" d="M4.6822 11.7288H4.76829V11.688H4.70353V11.614H4.84194V11.8028H4.70924L4.70926 11.9316H4.43611V11.7465H4.55632V11.8206H4.50976V11.8576H4.63561V11.7868L4.12398 11.475H4.03788V11.5158H4.10266V11.5898H3.96423V11.401H4.09693V11.2722H4.10192H4.37006V11.4573H4.24985V11.3832H4.29641V11.3462H4.17058V11.417L4.6822 11.7288ZM4.63561 11.417V11.3462H4.50976V11.3832H4.55632V11.4573H4.43611V11.2722H4.70926V11.401H4.84194V11.5898H4.70353V11.5158H4.7683V11.475H4.6822L4.17058 11.7868V11.8576H4.29641V11.8206H4.24985V11.7465H4.37006V11.9316H4.09693V11.8028H3.96423V11.614H4.10266V11.688H4.03788V11.7288H4.12398L4.63561 11.417Z" fill="#383739"/>
<path id="path533" d="M4.6456 11.7812V11.8676H4.49978V11.8106H4.54636V11.7565H4.44611V11.9216H4.69928V11.7928H4.83197V11.624H4.71352V11.678H4.77828V11.7387H4.67942L4.1606 11.4226V11.3362H4.30642V11.3932H4.25986V11.4473H4.3601V11.2821H4.10692V11.411H3.97424V11.5798H4.09268V11.5257H4.02792V11.465H4.12679L4.6456 11.7812ZM4.67942 11.465H4.7783V11.5257H4.71352V11.5798H4.83197V11.411H4.69929V11.2821H4.44612V11.4473H4.54636V11.3932H4.4998V11.3362H4.6456V11.4226L4.12679 11.7387H4.02792V11.678H4.09268V11.624H3.97424V11.7928H4.10692V11.9216H4.3601V11.7565H4.25986V11.8106H4.30642V11.8676H4.1606V11.7812L4.67942 11.465Z" fill="white"/>
<g id="g559">
<path id="path535" d="M5.5457 11.6458V11.9198H5.42909V11.823H5.31155V11.9198H5.19495V11.6458H5.31155V11.7426H5.42909V11.6458H5.5457Z" fill="#383739"/>
<path id="path537" d="M5.12846 12.0096V12.2836H5.01186V12.1868H4.89432V12.2836H4.77771V12.0096H4.89432V12.1064H5.01186V12.0096H5.12846Z" fill="#383739"/>
<path id="path539" d="M5.5457 11.5579V11.2839H5.42909V11.3807H5.31155V11.2839H5.19495V11.5579H5.31155V11.4612H5.42909V11.5579H5.5457Z" fill="#383739"/>
<path id="path541" d="M3.2605 11.6458V11.9198H3.3771V11.823H3.49465V11.9198H3.61125V11.6458H3.49465V11.7426H3.3771V11.6458H3.2605Z" fill="#383739"/>
<path id="path543" d="M3.2605 11.5579V11.2839H3.3771V11.3807H3.49465V11.2839H3.61125V11.5579H3.49465V11.4612H3.3771V11.5579H3.2605Z" fill="#383739"/>
<path id="path545" d="M5.12846 11.1942V10.9202H5.01186V11.0169H4.89432V10.9202H4.77771V11.1942H4.89432V11.0974H5.01186V11.1942H5.12846Z" fill="#383739"/>
<path id="path547" d="M3.67786 12.0096V12.2836H3.79446V12.1868H3.91201V12.2836H4.02861V12.0096H3.91201V12.1064H3.79446V12.0096H3.67786Z" fill="#383739"/>
<path id="path549" d="M3.67786 11.1942V10.9202H3.79446V11.0169H3.91201V10.9202H4.02861V11.1942H3.91201V11.0974H3.79446V11.1942H3.67786Z" fill="#383739"/>
<path id="path551" d="M5.198 11.0021V11.2102H5.58466L5.198 11.0021Z" fill="#383739"/>
<path id="path553" d="M3.60822 12.2016V11.9935H3.22156L3.60822 12.2016Z" fill="#383739"/>
<path id="path555" d="M3.60822 11.0021V11.2102H3.22156L3.60822 11.0021Z" fill="#383739"/>
<path id="path557" d="M5.198 12.2016V11.9935H5.58466L5.198 12.2016Z" fill="#383739"/>
</g>
<g id="g577">
<path id="path561" d="M5.4391 11.8131V11.9098H5.53575V11.6558H5.4391V11.7526H5.30159V11.6558H5.20496V11.9098H5.30159V11.8131H5.4391Z" fill="#D22630"/>
<path id="path563" d="M5.02187 12.1768V12.2736H5.1185V12.0196H5.02187V12.1163H4.88435V12.0196H4.78772V12.2736H4.88435V12.1768H5.02187Z" fill="#D22630"/>
<path id="path565" d="M5.4391 11.3907V11.2939H5.53575V11.548H5.4391V11.4512H5.30159V11.548H5.20496V11.2939H5.30159V11.3907H5.4391Z" fill="#D22630"/>
<path id="path567" d="M3.36714 11.8131V11.9098H3.27051V11.6558H3.36714V11.7526H3.50466V11.6558H3.60129V11.9098H3.50466V11.8131H3.36714Z" fill="#D22630"/>
<path id="path569" d="M3.36714 11.3907V11.2939H3.27051V11.548H3.36714V11.4512H3.50466V11.548H3.60129V11.2939H3.50466V11.3907H3.36714Z" fill="#D22630"/>
<path id="path571" d="M5.02187 11.0269V10.9301H5.1185V11.1842H5.02187V11.0874H4.88435V11.1842H4.78772V10.9301H4.88435V11.0269H5.02187Z" fill="#D22630"/>
<path id="path573" d="M3.78438 12.1768V12.2736H3.68774V12.0196H3.78438V12.1163H3.92189V12.0196H4.01854V12.2736H3.92189V12.1768H3.78438Z" fill="#D22630"/>
<path id="path575" d="M3.78438 11.0269V10.9301H3.68774V11.1842H3.78438V11.0874H3.92189V11.1842H4.01854V10.9301H3.92189V11.0269H3.78438Z" fill="#D22630"/>
</g>
<path id="path579" d="M5.20853 11.0191V11.2006H5.54543L5.20853 11.0191ZM3.26137 12.0039L3.59824 12.1853V12.0039H3.26137Z" fill="#FFC72C"/>
<path id="path581" d="M3.59822 11.0191L3.26135 11.2006H3.59822V11.0191ZM5.20851 12.0039V12.1853L5.54541 12.0039H5.20851Z" fill="white"/>
<path id="path1986" d="M5.98493 12.3666C5.96631 12.446 5.9032 12.5059 5.88816 12.5882C5.85805 12.5024 5.83029 12.4304 5.85102 12.3365C5.86585 12.2694 5.92235 12.2215 5.92889 12.1524C5.99049 12.2078 6.00376 12.2864 5.98493 12.3666ZM6.00054 12.6992C5.94829 12.7708 5.87566 12.8258 5.79546 12.8624C5.81125 12.7997 5.78162 12.7524 5.74873 12.7026C5.7091 12.6426 5.68978 12.5837 5.72208 12.5147C5.73714 12.5506 5.75736 12.5804 5.7811 12.6111C5.8162 12.659 5.83928 12.7016 5.84469 12.763C5.88528 12.7329 5.90312 12.688 5.92482 12.6445C5.95791 12.5822 6.01131 12.5302 6.07264 12.4961C6.05634 12.566 6.04379 12.6398 6.00054 12.6992ZM5.7075 12.9127C5.71867 12.9525 5.7283 12.992 5.72615 13.0335C5.76068 12.9963 5.80653 12.9683 5.84743 12.9384C5.90313 12.8933 5.96806 12.8616 6.0136 12.8042C6.00681 12.8886 5.97067 12.9574 5.90207 13.0088C5.82955 13.0631 5.74209 13.0923 5.67066 13.1493C5.68135 13.0725 5.65314 13.011 5.62909 12.9404C5.60904 12.8729 5.62844 12.8045 5.67418 12.7531C5.67349 12.81 5.69147 12.859 5.7075 12.9127ZM5.54476 13.1721C5.52973 13.2303 5.48799 13.2777 5.45949 13.3297C5.53634 13.3059 5.60415 13.2642 5.67362 13.2249C5.75637 13.1799 5.84622 13.1512 5.92113 13.0917C5.88385 13.2297 5.79146 13.3098 5.65629 13.3506C5.56386 13.3785 5.48598 13.3645 5.37383 13.4099C5.38669 13.3339 5.40935 13.252 5.44525 13.1836C5.4731 13.134 5.504 13.0852 5.5212 13.0307C5.54613 13.0755 5.55792 13.121 5.54476 13.1721ZM5.26196 13.3833C5.2355 13.4286 5.20057 13.4668 5.15725 13.4969C5.26635 13.5038 5.35415 13.4347 5.46051 13.4317C5.52621 13.4298 5.58858 13.4502 5.65558 13.4441C5.57607 13.4977 5.49283 13.5446 5.39603 13.5571C5.2702 13.5734 5.15415 13.5417 5.01533 13.5541C5.08021 13.5083 5.11266 13.447 5.1531 13.3812C5.20576 13.2989 5.25545 13.2402 5.35787 13.227C5.31676 13.2732 5.29283 13.3304 5.26196 13.3833ZM4.8745 13.5644C5.0667 13.597 5.25088 13.6393 5.44718 13.6413C5.22745 13.7179 5.02042 13.7317 4.8025 13.6526C4.68473 13.6099 4.59444 13.587 4.50549 13.5934C4.37551 13.6027 4.21754 13.654 4.04272 13.8384L3.974 13.7834C4.22457 13.5601 4.55241 13.5096 4.87449 13.5644L4.8745 13.5644Z" fill="#FFC72C"/>
</g>
<defs>
<clipPath id="clip0_109_5080">
<rect width="20.9673" height="13.9782" fill="white"/>
</clipPath>
</defs>
</svg>
