<svg width="21" height="21" viewBox="0 0 21 21" fill="none" xmlns="http://www.w3.org/2000/svg">
<rect x="6.01331" y="9.29297" width="8.74655" height="8.74655" fill="#0088FF"/>
<path d="M9.17724 5.36281L6.34182 0.637385C6.22524 0.442995 6.0603 0.282114 5.86306 0.170414C5.66583 0.0587137 5.44302 2.78302e-06 5.21635 0H0.657453C0.126299 0 -0.184601 0.597599 0.119736 1.03278L4.68356 7.55264C5.90255 6.41363 7.45294 5.63187 9.17724 5.36281ZM20.3425 0H15.7836C15.3226 0 14.8952 0.241993 14.6582 0.637385L11.8228 5.36281C13.5471 5.63187 15.0975 6.41363 16.3164 7.55223L20.8803 1.03278C21.1846 0.597599 20.8737 0 20.3425 0ZM10.5 6.56252C6.51327 6.56252 3.28123 9.79456 3.28123 13.7813C3.28123 17.768 6.51327 21.0001 10.5 21.0001C14.4867 21.0001 17.7188 17.768 17.7188 13.7813C17.7188 9.79456 14.4867 6.56252 10.5 6.56252ZM14.2948 13.0127L12.739 14.5286L13.107 16.6704C13.1726 17.0543 12.7682 17.3476 12.424 17.1663L10.5 16.1553L8.57636 17.1663C8.23183 17.3488 7.82783 17.0539 7.89345 16.6704L8.26136 14.5286L6.70563 13.0127C6.42591 12.7403 6.58054 12.2649 6.96608 12.2092L9.11654 11.8958L10.0775 9.94673C10.1641 9.77118 10.3314 9.68464 10.4992 9.68464C10.6678 9.68464 10.8363 9.77241 10.9229 9.94673L11.8839 11.8958L14.0343 12.2092C14.4199 12.2649 14.5745 12.7403 14.2948 13.0127Z" fill="black"/>
</svg>
