<svg width="17" height="17" viewBox="0 0 17 17" fill="none" xmlns="http://www.w3.org/2000/svg">
<g id="Group 3920">
<g id="&#240;&#159;&#166;&#134; icon &#34;clock&#34;">
<path id="Vector" d="M8.49996 1.41675C7.09901 1.41675 5.72952 1.83218 4.56467 2.61051C3.39983 3.38883 2.49194 4.4951 1.95582 5.78941C1.4197 7.08372 1.27942 8.50794 1.55273 9.88197C1.82605 11.256 2.50067 12.5181 3.49129 13.5088C4.48191 14.4994 5.74404 15.174 7.11807 15.4473C8.49211 15.7206 9.91633 15.5803 11.2106 15.0442C12.5049 14.5081 13.6112 13.6002 14.3895 12.4354C15.1679 11.2705 15.5833 9.90103 15.5833 8.50008C15.5833 7.56989 15.4001 6.6488 15.0441 5.78941C14.6881 4.93002 14.1664 4.14916 13.5086 3.49141C12.8509 2.83366 12.07 2.31191 11.2106 1.95593C10.3512 1.59996 9.43016 1.41675 8.49996 1.41675ZM11.3333 9.20842H8.49996C8.3121 9.20842 8.13193 9.13379 7.9991 9.00095C7.86626 8.86811 7.79163 8.68794 7.79163 8.50008V5.66675C7.79163 5.47889 7.86626 5.29872 7.9991 5.16588C8.13193 5.03304 8.3121 4.95841 8.49996 4.95842C8.68783 4.95841 8.86799 5.03304 9.00083 5.16588C9.13367 5.29872 9.2083 5.47889 9.2083 5.66675V7.79175H11.3333C11.5212 7.79175 11.7013 7.86638 11.8342 7.99921C11.967 8.13205 12.0416 8.31222 12.0416 8.50008C12.0416 8.68794 11.967 8.86811 11.8342 9.00095C11.7013 9.13379 11.5212 9.20842 11.3333 9.20842Z" fill="#0088FF"/>
</g>
</g>
</svg>
