<svg width="15" height="15" viewBox="0 0 15 15" fill="none" xmlns="http://www.w3.org/2000/svg">
<path id="Vector" fill-rule="evenodd" clip-rule="evenodd" d="M7.06 0C10.9592 0 14.12 3.16084 14.12 7.06C14.12 10.9591 10.9592 14.12 7.06 14.12C3.16088 14.12 0 10.9591 0 7.06C0 3.16084 3.16088 0 7.06 0ZM7.76755 6.354H6.35555V10.59H7.76755V6.354ZM7.06717 3.3535C6.55244 3.3535 6.17905 3.72482 6.17905 4.22621C6.17905 4.74788 6.54259 5.1185 7.06717 5.1185C7.57136 5.1185 7.94405 4.74788 7.94405 4.236C7.94405 3.72482 7.57136 3.3535 7.06717 3.3535Z" fill="#0088FF"/>
</svg>
