<svg width="15" height="17" viewBox="0 0 15 17" fill="none" xmlns="http://www.w3.org/2000/svg">
<g id="&#240;&#159;&#166;&#134; icon &#34;location&#34;">
<path id="Vector" d="M13.9237 5.3308C13.0883 1.65493 9.88188 0 7.0653 0C7.0653 0 7.06531 0 7.05735 0C4.24871 0 1.03432 1.64698 0.198893 5.32284C-0.732008 9.42835 1.78222 12.9053 4.05776 15.0933C4.90114 15.9049 5.98323 16.3107 7.0653 16.3107C8.14738 16.3107 9.22945 15.9049 10.0649 15.0933C12.3404 12.9053 14.8546 9.43631 13.9237 5.3308ZM7.0653 9.31696C5.68089 9.31696 4.55901 8.19511 4.55901 6.81069C4.55901 5.42628 5.68089 4.30442 7.0653 4.30442C8.44972 4.30442 9.57158 5.42628 9.57158 6.81069C9.57158 8.19511 8.44972 9.31696 7.0653 9.31696Z" fill="#0088FF"/>
</g>
</svg>
