<svg width="15" height="11" viewBox="0 0 15 11" fill="none" xmlns="http://www.w3.org/2000/svg">
<g id="&#240;&#159;&#166;&#134; icon &#34;Envelope&#34;">
<path id="Vector" d="M13.8551 3.49756C13.9626 3.41205 14.1226 3.49204 14.1226 3.6272V9.26797C14.1226 9.99893 13.5296 10.592 12.7986 10.592H1.324C0.59304 10.592 0 9.99893 0 9.26797V3.62996C0 3.49204 0.157225 3.41481 0.267558 3.50032C0.885423 3.98026 1.70465 4.58985 4.51814 6.63377C5.10014 7.05856 6.08211 7.95225 7.06131 7.94674C8.04604 7.95501 9.04731 7.04201 9.60725 6.63377C12.4207 4.58985 13.2372 3.97751 13.8551 3.49756ZM7.06131 7.06131C7.70125 7.07235 8.62253 6.25588 9.08593 5.91937C12.7462 3.2631 13.0248 3.0314 13.8689 2.3694C14.0288 2.24528 14.1226 2.05219 14.1226 1.84808V1.324C14.1226 0.59304 13.5296 0 12.7986 0H1.324C0.59304 0 0 0.59304 0 1.324V1.84808C0 2.05219 0.0937831 2.24252 0.253766 2.3694C1.09781 3.02864 1.3764 3.2631 5.0367 5.91937C5.5001 6.25588 6.42138 7.07235 7.06131 7.06131Z" fill="#0088FF"/>
</g>
</svg>
