<svg width="15" height="15" viewBox="0 0 15 15" fill="none" xmlns="http://www.w3.org/2000/svg">
<path id="Vector" d="M13.7199 9.97955L10.6305 8.65553C10.4985 8.59928 10.3518 8.58743 10.2126 8.62176C10.0733 8.65608 9.94888 8.73473 9.85815 8.84586L8.49 10.5174C6.34281 9.50505 4.61482 7.77706 3.60244 5.62987L5.27401 4.26171C5.38536 4.17115 5.46417 4.04677 5.49851 3.90741C5.53286 3.76805 5.52086 3.6213 5.46434 3.48937L4.14032 0.39999C4.07829 0.257771 3.96857 0.141653 3.8301 0.0716603C3.69162 0.00166748 3.53307 -0.0178137 3.38177 0.016576L0.513058 0.678586C0.367186 0.71227 0.237039 0.794404 0.143859 0.911581C0.0506783 1.02876 -3.36028e-05 1.17406 1.67053e-08 1.32377C1.67053e-08 8.399 5.73466 14.1226 12.7989 14.1226C12.9486 14.1227 13.094 14.072 13.2112 13.9789C13.3284 13.8857 13.4106 13.7555 13.4443 13.6096L14.1063 10.7409C14.1405 10.5888 14.1206 10.4296 14.0501 10.2907C13.9795 10.1517 13.8628 10.0417 13.7199 9.97955Z" fill="#0088FF"/>
</svg>
