<svg fill="none" height="19" viewBox="0 0 20 19" width="20" xmlns="http://www.w3.org/2000/svg">
    <path
        d="m1.08417 12.743h.64611v-2.1575h.83649v2.1575h2.42293v-2.2729c0-1.93257 1.59221-3.51902 3.52479-3.51902h2.95371c1.9325 0 3.519 1.59221 3.519 3.51902v2.2729h2.4229v-2.4229h.8711v2.4229h.6057v-2.4229h.8365v5.0766h-.8365v-1.7826h-.6057v1.7826h-.8711v-1.7826h-2.8037c-.1153.075-.2653.1154-.4153.1154s-.3-.0404-.4154-.1154h-1.0211v4.5805c0 .4154-.3403.7961-.7961.7961-.4557 0-.8307-.3807-.8307-.7961v-3.5247c0-.4558-.3058-.8712-.7211-1.0615h-.83074c-.41536.1903-.72111.6057-.72111 1.0615v3.5247c0 .4154-.38074.7961-.83072.7961-.44997 0-.7961-.3807-.7961-.7961v-4.5805h-1.02109c-.11538.075-.26537.1154-.41536.1154-.15 0-.26537-.0404-.41536-.1154h-2.80368v2.0422h-.83649v-2.0422h-.64611v2.0422h-.830724v-5.0766h.830724v2.1576zm6.20732-9.08595c0-1.47683 1.21146-2.6883 2.6883-2.6883 1.47681 0 2.68831 1.21147 2.68831 2.6883s-1.2115 2.6883-2.68831 2.6883c-1.47684 0-2.6883-1.21147-2.6883-2.6883zm-.72111 9.08595h.64611v-2.87863c0-.19037-.14999-.34037-.34036-.34037-.15 0-.30575.15-.30575.34037zm6.17272 0h.6461v-2.87863c0-.19037-.15-.34037-.3-.34037-.1904 0-.3404.15-.3404.34037v2.87863z"
        fill="#08f" />
</svg>