<svg fill="none" height="14" viewBox="0 0 18 14" width="18" xmlns="http://www.w3.org/2000/svg">
    <path clip-rule="evenodd"
        d="m17.0101 3.80199-.1904-.19037-1.8922 1.96718.15.15c.225.22498.6057.22498.8307 0l1.0961-1.13648c.225-.22498.225-.56535 0-.7961zm-.3808-.38075-.3403-.34036-1.8576 1.96719.3404.34036zm-.4961-.49035-2.3479-2.347939c-.1154-.115377-.2654-.190373-.4154-.190373h-2.3075c-.1154 0-.225.074996-.3404.149991l-1.70759 1.361461-1.70182-1.361461c-.11538-.074995-.22498-.149991-.38074-.149991h-2.31333c-.14999 0-.29998.074996-.38074.190373l-2.42293 2.382549 1.85758 2.00757.72111-.72111v7.83994h9.24176v-7.83994l.6057.64612zm-14.50296.22498-.34036.34037 1.89219 1.96719.34037-.34037zm-.49035.49036-.149994.14999c-.115378.11538-.149991.26537-.149991.41536s.040382.26537.149991.38074l1.136474 1.13648c.23075.22498.57112.22498.7961 0l.075-.075zm3.25365 9.01097v.3404c0 .3057.26537.5653.57112.5653h8.10524c.3058 0 .5712-.2653.5712-.5653v-.3404h-9.24179z"
        fill="#08f" fill-rule="evenodd" />
</svg>