<svg fill="none" height="266" viewBox="0 0 297 266" width="297" xmlns="http://www.w3.org/2000/svg">
    <clipPath id="a">
        <path d="m0 0h297v266h-297z" />
    </clipPath>
    <g clip-path="url(#a)">
        <path
            d="m137.387 266c75.34 0 136.414-35.228 136.414-78.684 0-43.455-61.074-78.683-136.414-78.683-75.3389 0-136.413367 35.228-136.413367 78.683 0 43.456 61.074467 78.684 136.413367 78.684z"
            fill="#f5f5f5" />
        <path
            d="m243.054 201.483-35.799-20.634c-.155-.051-.29-.149-.385-.281-.096-.132-.147-.291-.147-.453 0-.163.051-.322.147-.454.095-.131.23-.23.385-.28l23.016-13.26c.396-.2.834-.305 1.278-.305s.882.105 1.278.305l35.804 20.635c.155.051.29.149.386.281.095.132.147.29.147.453s-.052.322-.147.453c-.096.132-.231.23-.386.281l-23.016 13.259c-.397.202-.835.307-1.281.307-.445 0-.883-.105-1.28-.307z"
            fill="#e0e0e0" />
        <path
            d="m88.0038 240.738c33.2222 0 60.1542-15.534 60.1542-34.696s-26.932-34.696-60.1542-34.696-60.1542 15.534-60.1542 34.696 26.932 34.696 60.1542 34.696z"
            fill="#e0e0e0" />
        <path
            d="m144.788 221.624c21.638 0 39.18-10.118 39.18-22.598 0-12.481-17.542-22.598-39.18-22.598-21.639 0-39.181 10.117-39.181 22.598 0 12.48 17.542 22.598 39.181 22.598z"
            fill="#e0e0e0" />
        <path
            d="m28.1979 176.635.4839-7.665s-.4603-9.787-10.1683-18.836c-5.9015-5.489-10.788-2.53-12.00372.459-1.21571 2.99-.21245 7.517 5.52972 11.756 8.9821 6.639 16.5243 17.139 17.498 24.579z"
            fill="#37474f" />
        <path
            d="m27.9138 174.471c-.0791.01-.1593-.008-.2263-.051s-.1165-.109-.1396-.185c-4.4261-14.621-17.1498-23.394-17.2737-23.483-.0369-.024-.0684-.056-.0929-.093-.0246-.037-.0416-.078-.0501-.122-.0084-.043-.0083-.088.0005-.132.0089-.043.0262-.084.051-.121s.0566-.069.0936-.093c.037-.025.0785-.042.122-.05.0436-.008.0884-.008.1319.001.0435.008.0848.026.1216.05.1299.089 13.0483 8.985 17.5453 23.842.0256.087.0158.181-.0273.26-.0432.08-.1161.139-.2029.165z"
            fill="#fff" />
        <path
            d="m28.5811 176.871c-.0493-.84-.3587-1.643-.8852-2.3-.9502-1.09-2.6026-1.438-3.3934-2.647-.3175-.603-.5726-1.237-.7613-1.892-.5915-1.406-1.6945-2.535-3.0865-3.16-1.3884-.616-2.9218-.831-4.4261-.619-1.139.147-2.2485.489-3.3875.654-3.72977.531-7.19397-2.889-10.90602-.59-2.230779 1.392-2.077339 3.821-.843921 5.861.652061 1.034 1.467151 1.955 2.413721 2.729.99736.843 2.05963 1.356 2.15996 2.83.07672 1.079-.25967 2.14-.25377 3.219.04285.886.27583 1.751.68314 2.539.40731.787.97941 1.478 1.67747 2.025 1.40692 1.092 3.06392 1.817 4.82152 2.11 1.2925.242 2.7855.442 3.4996 1.545.2966.603.4958 1.25.5902 1.916.3112 1.066.8457 2.053 1.5681 2.897s1.6162 1.524 2.622 1.996c2.0268.936 4.277 1.282 6.4916.997 1.9178-.128 3.7571-.81 5.2937-1.964 2.5259-2.057 1.0741-5.954-.5902-8.13-.7199-.955-1.617-1.768-2.2897-2.765-1.3338-1.975-1.1095-3.679-.9856-5.943.0328-.435.0288-.873-.0118-1.308z"
            fill="#455a64" />
        <path
            d="m30.5585 191.42c-.0586.01-.119.002-.1729-.023-.0538-.025-.0986-.067-.128-.118-9.0117-16.231-23.52941-20.788-23.67695-20.83-.07099-.023-.13002-.073-.16428-.139-.03425-.066-.04096-.143-.01867-.214.01006-.036.0272-.069.05038-.097.02318-.029.05193-.052.08449-.069.03257-.018.06827-.028.10494-.031s.07354.002.10838.014c.14754.041 14.85411 4.657 24.00151 21.094.0363.065.0455.142.0256.214s-.0673.133-.1318.17z"
            fill="#fff" />
        <path
            d="m21.9364 180.249h-.059c-3.9718-.171-9.9854 1.427-10.0326 1.438-.0353.01-.0721.013-.1085.009-.0363-.005-.0714-.017-.1032-.035s-.0598-.042-.0822-.071-.0389-.062-.0484-.097c-.0106-.036-.0138-.073-.0093-.11s.0165-.073.0353-.105.044-.06.0741-.081c.03-.022.0642-.038.1005-.046.2479-.071 6.1494-1.633 10.2097-1.462.0735-.005.146.02.2013.069.0553.048.0891.117.0937.19.0047.074-.02.146-.0687.201-.0487.056-.1174.089-.1909.094z"
            fill="#fff" />
        <path
            d="m19.0622 177.548c-.0365.005-.0736.003-.1091-.007-.0356-.01-.0689-.026-.098-.048-.0291-.023-.0534-.051-.0716-.083-.0181-.032-.0297-.067-.0341-.104-.2406-2.003-.1949-4.029.1357-6.019.007-.036.021-.071.0412-.101.0203-.031.0464-.057.0768-.078.0304-.02.0645-.034.1005-.042.036-.007.073-.007.1091 0 .036.007.0703.021.1009.041.0307.02.057.046.0776.076.0205.031.0349.065.0422.101.0074.036.0076.073.0006.109-.3163 1.931-.366 3.897-.1476 5.842.0089.071-.0092.143-.0508.201-.0416.057-.1035.098-.1734.112z"
            fill="#fff" />
        <path
            d="m261.738 63.3374-109.131-62.930211c-1.641-.949199-2.951-.182765-2.951 1.715631v86.31238c.054 1.0289.349 2.0307.862 2.9248.512.894 1.228 1.6552 2.089 2.2221l109.131 62.9539c1.641.949 2.951.177 2.951-1.716v-86.3357c-.054-1.0289-.349-2.0308-.862-2.9248-.512-.8941-1.228-1.6552-2.089-2.2221z"
            fill="#27debf" opacity=".3" />
        <path
            d="m261.738 63.3374-109.131-62.930211c-1.641-.949199-2.951-.182765-2.951 1.715631v86.31238c.054 1.0289.349 2.0307.862 2.9248.512.894 1.228 1.6552 2.089 2.2221l109.131 62.9539c1.641.949 2.951.177 2.951-1.716v-86.3357c-.054-1.0289-.349-2.0308-.862-2.9248-.512-.8941-1.228-1.6552-2.089-2.2221z"
            fill="#fff" opacity=".5" />
        <path
            d="m262.311 140.318v-11.096l-7.189-4.127v8.295l-2.401-1.385v-13.843l-4.792-2.765v5.53l-2.396-1.38v11.06l-4.798-2.765v-8.295l-2.396-1.385v-2.765l-2.396-1.38v-2.765l-2.396-1.385v2.741l-2.397-1.38v2.765l-2.401-1.385v2.765l-4.792-2.765v-8.254l-7.194-4.127v13.831l-2.396-1.45v-8.254l-4.792-2.765v8.295l-2.402-1.403v-2.771l-4.792-2.765v-5.5301l-4.792-2.7651v2.7651l-2.402-1.3914v8.3305l-2.396-1.385v-11.0783l-2.396-1.3796v-2.7651l-2.396-1.3854v-2.7651l-2.396-1.3796v2.7651l-2.402-1.3855v2.7651l-2.396-1.3796v13.8253l-2.396-1.3855v-5.5301l-7.112-4.127v2.8123l-4.874-2.83v-5.536l-2.396-1.3795v-2.7651l-2.396-1.3855v-2.7651l-2.402-1.3972v2.765l-2.396-1.3854v2.765l-2.396-1.3796v5.5302l-4.798-2.771v10.394c.053 1.0289.348 2.0308.861 2.9248.513.8941 1.228 1.6553 2.089 2.2221l109.149 62.9543c1.641.949 2.951.176 2.951-1.716v-13.153z"
            fill="#27debf" opacity=".3" />
        <path
            d="m151.279.589565c.367.017448.722.129141 1.033.324261l109.125 62.936074c.774.5137 1.418 1.1994 1.881 2.0034.464.804.735 1.7044.792 2.6306v86.3361c0 .46-.1 1.533-1.05 1.533-.367-.017-.724-.131-1.033-.33l-109.125-62.9307c-.773-.5136-1.417-1.1993-1.881-2.0033s-.735-1.7044-.792-2.6306v-86.33597c0-.45986.1-1.532865 1.05-1.532865zm0-.589565c-.973 0-1.64.778226-1.64 2.12243v86.31237c.053 1.0289.348 2.0308.861 2.9248s1.228 1.6552 2.089 2.2221l109.149 62.9533c.399.251.857.391 1.328.407.974 0 1.641-.778 1.641-2.122v-86.3361c-.054-1.0289-.349-2.0308-.862-2.9248-.512-.8941-1.228-1.6552-2.089-2.2221l-109.149-62.9302c-.399-.250612-.857-.3909914-1.328-.4068z"
            fill="#27debf" opacity=".3" />
        <path
            d="m181.123 45.0599 47.313 27.291c2.821 1.6272 5.111 5.5891 5.111 8.8435v13.0942c0 3.2603-2.29 4.581-5.111 2.9479l-47.313-27.2851c-2.826-1.6272-5.11-5.5891-5.11-8.8435v-13.1001c0-3.2544 2.289-4.5751 5.11-2.9479z"
            fill="#fff" opacity=".5" />
        <path
            d="m230.749 98.2337c-.861-.0297-1.699-.2837-2.431-.737l-47.313-27.2909c-2.903-1.6744-5.258-5.7542-5.258-9.097v-13.1002c0-1.6802.59-2.9478 1.647-3.5373 1.056-.5896 2.449-.4835 3.906.3596l47.313 27.291c2.898 1.6684 5.258 5.7541 5.258 9.0969v13.0943c0 1.6861-.59 2.9478-1.646 3.5374-.449.2583-.958.3907-1.476.3832zm-51.933-53.5738c-.413-.0046-.82.099-1.18.3007-.868.5011-1.346 1.5859-1.346 3.048v13.1002c0 3.1542 2.225 7.0099 4.963 8.5899l47.313 27.2851c1.269.7311 2.449.8608 3.316.3597.868-.5012 1.352-1.586 1.352-3.054v-13.0942c0-3.1542-2.225-7.01-4.963-8.59l-47.295-27.2851c-.649-.4073-1.394-.6352-2.16-.6603z"
            fill="#fc062a" opacity=".5" />
        <path
            d="m160.427 10.153c1.048.6801 1.921 1.598 2.546 2.6789.626 1.0809.987 2.2942 1.054 3.541 0 2.2934-1.611 3.219-3.6 2.0752-1.046-.6827-1.917-1.6021-2.542-2.6838-.624-1.0817-.985-2.2951-1.052-3.542 0-2.28747 1.611-3.21899 3.594-2.0693z"
            fill="#27debf" opacity=".3" />
        <path
            d="m162.51 14.8283c-.006-.4059-.092-.8066-.254-1.1792-.151-.3928-.416-.7316-.761-.9728-.519-.3006-.95.3184-1.015 1.0495-.065-.8077-.49-1.9338-1.009-2.2345-.116-.0796-.256-.1157-.395-.1016-.14.014-.269.0772-.367.1783-.19.2539-.284.5674-.265.8843 0 1.2322.738 2.3583 1.363 3.5374l.655 1.2381.661-.4599c.632-.4598 1.381-.7074 1.387-1.9396z"
            fill="#fafafa" />
        <path
            d="m171.214 16.3729c1.048.6808 1.92 1.5989 2.545 2.6796.626 1.0808.987 2.2937 1.055 3.5403 0 2.2934-1.611 3.219-3.6 2.0753-1.049-.6802-1.922-1.5979-2.55-2.6786s-.991-2.2939-1.061-3.5413c0-2.2934 1.628-3.2191 3.611-2.0753z"
            fill="#27debf" opacity=".3" />
        <path
            d="m173.25 21.0587c-.004-.406-.091-.807-.253-1.1791-.148-.3917-.411-.7291-.756-.9669-.519-.3066-.95.3125-1.021 1.0435-.059-.8077-.484-1.9278-1.003-2.2344-.115-.0797-.255-.1157-.395-.1016-.139.014-.269.0772-.366.1782-.188.2553-.28.5683-.26.8844 0 1.2381.738 2.3582 1.363 3.5374l.655 1.2381.661-.4658c.62-.454 1.369-.6957 1.375-1.9338z"
            fill="#fafafa" />
        <path
            d="m182.002 22.5922c1.047.6824 1.918 1.6018 2.543 2.6835.624 1.0818.984 2.2954 1.051 3.5423 0 2.2876-1.605 3.2191-3.594 2.0753-1.046-.6831-1.916-1.6026-2.541-2.6842-.624-1.0816-.985-2.2949-1.053-3.5416 0-2.2639 1.588-3.219 3.594-2.0753z"
            fill="#27debf" opacity=".3" />
        <path
            d="m184.039 27.2794c-.006-.4059-.092-.8066-.254-1.1791-.147-.3933-.411-.7326-.755-.9728-.52-.3066-.951.3184-1.021 1.0436-.059-.8019-.484-1.9279-1.004-2.2286-.115-.0797-.255-.1157-.394-.1016-.14.014-.27.0772-.367.1782-.189.2571-.281.5723-.26.8903 0 1.2322.738 2.3582 1.358 3.5374l.661 1.2381.661-.4599c.619-.4658 1.369-.7075 1.375-1.9456z"
            fill="#fafafa" />
        <path
            d="m192.566 29.478 50.287 29.0008c.729.457 1.34 1.0787 1.783 1.8151.444.7363.709 1.5666.772 2.4238 0 1.5329-1.145 2.1107-2.555 1.2971l-50.287-28.9831c-.726-.4586-1.334-1.0812-1.774-1.8174-.441-.7363-.703-1.5658-.764-2.4215 0-1.527 1.128-2.1048 2.538-1.3148z"
            fill="#fafafa" />
        <path
            d="m191.422 31.6004c.032.4284.165.8434.387 1.2111.223.3677.529.6779.894.9054l50.517 29.1776c.708.4068 1.28.1179 1.28-.6426-.031-.4295-.163-.8456-.386-1.2144-.222-.3688-.529-.68-.894-.9081l-50.517-29.1776c-.709-.4068-1.281-.1179-1.281.6486z"
            fill="#27debf" opacity=".5" />
        <g fill="#27debf" opacity=".3">
            <path
                d="m248.04 63.1836c-.024-.0557-.034-.1164-.029-.1769.001-.0219.007-.0433.017-.0626.01-.0194.024-.0363.042-.0494l1.145-.6898.1-.053c.021-.0137.046-.021.071-.021s.05.0073.071.021l.649.3714c.045.0303.08.0734.1.1238.028.0549.042.1155.042.1769v5.306c.002.0243 0 .0488-.007.0722-.007.0233-.019.0449-.035.0634-.014.0121-.031.0187-.05.0187-.018 0-.036-.0066-.05-.0187l-.696-.4009c-.046-.0303-.08-.0734-.101-.1238-.027-.0569-.041-.1195-.041-.1827v-3.5374l-.632.3714c-.015.0106-.034.0163-.053.0163s-.037-.0057-.053-.0163c-.045-.0376-.08-.0864-.1-.1415z" />
            <path
                d="m252.827 64.0267c.261.1548.492.3544.684.5896.191.2292.35.483.472.7546.129.2766.224.5675.283.8667.065.2986.1.6026.107.9079v.7429.7133c-.003.2648-.039.5282-.107.7841-.046.202-.144.3888-.283.5424-.061.0643-.134.1156-.215.1511-.081.0354-.168.0542-.257.0553-.244-.0029-.482-.0766-.684-.2123-.263-.1532-.495-.353-.685-.5895-.195-.2275-.356-.4817-.478-.7547-.125-.2779-.22-.5684-.283-.8666-.058-.2996-.094-.6031-.107-.908 0-.2299 0-.4716 0-.7251s0-.5011 0-.7311c.009-.2643.045-.527.107-.7841.047-.2015.145-.388.283-.5424.061-.0649.136-.1167.218-.1522s.17-.0539.26-.0541c.244.0038.481.0775.685.2122zm.59 3.956c0-.454 0-.9138 0-1.3737-.005-.1344-.019-.2684-.042-.4009-.016-.1189-.046-.2356-.088-.3479-.043-.1077-.101-.2089-.171-.3006-.073-.0913-.164-.1674-.266-.2241-.078-.0545-.17-.0834-.265-.0825-.035.004-.068.0156-.098.0339-.03.0184-.055.043-.074.0722-.049.0726-.081.1552-.094.2417-.025.1164-.038.2349-.041.3538v1.3737c0 .1356 0 .2712.035.395.022.1203.053.2386.095.3537.047.1066.106.2075.177.3007.073.0913.163.1674.265.224.079.052.171.0806.266.0826.034-.0051.067-.0172.096-.0354.03-.0183.055-.0423.075-.0708.053-.0704.085-.154.094-.2417.012-.1175.016-.2357.012-.3537z" />
            <path
                d="m258.268 69.0844c-.001.1479-.01.2956-.03.4422-.02.1264-.058.2494-.112.3655-.05.1086-.118.2082-.201.2948-.089.0937-.193.1732-.307.2358l-.743.4363 1.334.7664c.046.0288.081.0724.1.1238.029.0545.045.1151.047.1769v.8667c.002.0246-.001.0494-.009.0728-.008.0233-.021.0447-.038.0628-.014.012-.032.0186-.05.0186-.019 0-.036-.0066-.05-.0186l-2.804-1.5919c-.047-.0276-.083-.0716-.1-.1238-.028-.0548-.042-.1155-.041-.1768v-.7016c-.001-.082.011-.1636.035-.2417.007-.0326.022-.0632.042-.0897.021-.0265.047-.0482.076-.0636l1.588-.8313c.107-.0525.191-.1428.236-.2535.031-.1013.047-.2066.047-.3125.004-.055.004-.1101 0-.1651-.01-.0826-.03-.1638-.059-.2417-.034-.0903-.079-.1756-.136-.2535-.061-.0864-.142-.1571-.236-.2064-.034-.0262-.073-.0455-.114-.0567-.042-.0111-.085-.0139-.128-.0081-.056.0151-.106.0482-.141.0943-.036.0474-.063.1015-.077.1592-.008.0442-.02.0876-.036.1297 0 .0649-.041.1002-.082.1002-.046.003-.092-.0094-.13-.0353l-.649-.3774c-.038-.0236-.067-.0588-.083-.1002-.023-.0458-.035-.0962-.035-.1474 0-.2119.031-.4225.094-.6249.049-.1743.143-.3329.272-.4599.125-.1164.289-.1834.46-.1886.229.0067.451.0761.643.2004.236.1345.446.3103.62.5188.179.2073.33.4372.448.6839.121.2461.212.5053.272.7724.054.2457.08.497.077.7487z" />
            <path
                d="m260.157 72.3569c0 .0589.047.1297.082.2004.031.073.066.144.107.2122.045.0749.096.1459.153.2123.061.0677.133.1254.212.171.067.0365.138.0624.213.0766.06.0179.123.0179.183 0 .057-.0357.101-.0897.124-.1533.034-.0902.05-.1864.047-.283 0-.1862-.049-.3691-.142-.5306-.088-.1686-.223-.3079-.389-.4009-.04-.0276-.087-.0439-.136-.0472-.041-.0058-.083-.0058-.124 0h-.106c-.025.0096-.052.0096-.077 0l-.832-.4775c-.048-.0309-.085-.0763-.106-.1297-.023-.0561-.035-.1162-.036-.1769l.16-2.824c.001-.0473.017-.0929.047-.1297.013-.0116.03-.018.047-.018.018 0 .034.0064.047.018l2.278 1.3088c.044.0322.078.0748.101.1239.027.0571.041.1195.041.1827v.8667c.002.0233 0 .0468-.007.0691s-.019.0429-.034.0606c-.015.011-.032.0169-.05.0169-.019 0-.036-.0059-.051-.0169l-1.546-.8903-.041.7075c.074-.0152.15-.0152.224 0 .097.0174.189.0535.272.1061.219.1223.418.2774.59.4599.177.1923.33.4062.454.6367.132.2488.235.5119.307.7842.072.2892.108.5863.106.8843.009.2702-.031.5398-.118.7959-.061.1797-.177.3361-.33.4481-.146.0908-.32.1263-.49.1002-.21-.0317-.41-.1059-.59-.2181-.241-.1353-.458-.3085-.643-.513-.186-.2016-.348-.4231-.484-.6603-.128-.2317-.229-.4769-.301-.731-.067-.2323-.104-.4719-.112-.7134-.002-.0192 0-.0385.006-.0567.006-.0183.016-.0351.029-.0494.012-.0096.026-.0148.041-.0148s.03.0052.042.0148l.672.3891c.055.0268.101.0701.13.1238.011.0212.021.0428.03.0649z" />
        </g>
        <g fill="#970419" opacity=".5">
            <path
                d="m189.008 57.7187.154.0884 3.629 2.0871c.492.2452.902.6283 1.18 1.1024.18.5003.202 1.0431.065 1.5565v.1651l-1.392-.3832.177-.8903-4.179-2.4172-.383 1.6979 3.983 2.2994c.503.2438.916.6399 1.181 1.1319.171.5393.183 1.1165.035 1.6626l-.218 1.0907c-.148.7193-.354 1.1437-.626 1.2852-.271.1415-.649.0472-1.18-.2476l-.154-.0884-3.954-2.2757c-.501-.2436-.913-.6373-1.18-1.1261-.161-.5446-.161-1.1239 0-1.6685l.041-.2181 1.381.4186-.189.9374 4.515 2.6059.366-1.8041-4.001-2.3052c-.503-.2358-.916-.6263-1.181-1.1143-.16-.5445-.16-1.1239 0-1.6684l.177-.8785c.142-.7193.349-1.1438.62-1.2853.272-.1415.59-.0471 1.133.2418z" />
            <path
                d="m196.096 61.8047 7.371 4.2508-.289 1.4149-2.945-1.6979-1.304 6.5088-1.488-.8608 1.305-6.5088-2.934-1.6921z" />
            <path
                d="m212.62 71.7732c.171.5417.181 1.1211.03 1.6685l-.838 4.1741c-.148.7193-.354 1.1497-.626 1.2971-.271.1474-.649.0353-1.18-.2653l-.136-.0708-4.721-2.712c-.5-.2461-.911-.6391-1.181-1.1261-.162-.5423-.162-1.1202 0-1.6625l.833-4.1741c.147-.7193.354-1.1792.625-1.2912.272-.112.655-.0413 1.18.2535l.13.0708 4.722 2.7179c.494.2437.9.6352 1.162 1.1201zm-2.361 5.371 1.01-5.0113-4.91-2.8358-1.004 5.0172z" />
            <path
                d="m222.659 77.5275c.182.4323.22.9124.106 1.3678l-.36 1.7687c-.106.5365-.301.8607-.59.9669-.183.044-.373.0478-.558.0111-.184-.0366-.359-.1128-.511-.2234l-.112-.0589-4.001-2.3111-.62 3.0893-1.463-.8431 1.593-7.9178 5.465 3.1482c.443.2206.81.57 1.051 1.0023zm-1.594 1.8453.171-.843c.055-.196.038-.4048-.047-.5896-.125-.1876-.298-.3382-.502-.4363l-3.346-1.9338-.419 2.0989 3.346 1.9279.071.0412c.142.1011.317.1453.49.1238.106-.0353.189-.1709.236-.4068" />
        </g>
        <path
            d="m133.965 192.488c-.047-.101-3.287-5.713-3.287-5.713s.69.412 3.954-1.427c1.216-.743 2.351-1.611 3.387-2.588l2.154 4.162c1.381 1.456 4.267-.13 7.548-1.403.555-.212 1.116-.46 1.676-.713h.03c1.806-.59 3.924.041 2.431 2.093-1.493 2.051-4.473 3.46-7.229 4.716-3.299 1.545-9.13 4.156-10.664.873z"
            fill="#b16668" />
        <path
            d="m158.161 185.607c.398.515.653 1.125.738 1.769.112.696-.956 3.414-3.541 5.583-2.585 2.17-6.202 3.213-7.784 4.127s-2.892 2.364-4.757 3.367c-1.865 1.002-3.806 1.768-6.167.99-.519-.472-1.274-1.686-1.18-1.845.201-.419 22.691-13.991 22.691-13.991z"
            fill="#263238" />
        <path
            d="m140.87 187.37c1.534.56 4.054-.761 6.863-1.852 2.656-1.02 5.483-2.782 7.507-2.623s4.131 1.934 2.36 5.394c-.513.997-1.676 2.824-2.791 3.585-2.833 1.934-5.606 2.753-7.483 3.773-2.449 1.327-3.541 2.854-5.902 3.762-3.033 1.179-5.223.896-5.984.2s-3.016-7.287-1.64-7.499c0 0 1.133 2.028 5.689-1.415 1.988-1.509 1.599-2.854 1.381-3.325z"
            fill="#27debf" />
        <path
            d="m140.87 187.37c1.534.56 4.054-.761 6.863-1.852 2.656-1.02 5.483-2.782 7.507-2.623s4.131 1.934 2.36 5.394c-.513.997-1.676 2.824-2.791 3.585-2.833 1.934-5.606 2.753-7.483 3.773-2.449 1.327-3.541 2.854-5.902 3.762-3.033 1.179-5.223.896-5.984.2s-3.016-7.287-1.64-7.499c0 0 1.133 2.028 5.689-1.415 1.988-1.509 1.599-2.854 1.381-3.325z"
            fill="#000" opacity=".4" />
        <path
            d="m150.489 188.719s-1.033-2.765-3.335-2.947c-.21-.036-.426-.011-.623.07s-.368.216-.492.39c0 0 2.024-.23 3.541 2.947 0 0 .153.195.561 0 .124-.094.425-.23.348-.46z"
            fill="#fafafa" />
        <path
            d="m144.299 186.892s0-.094.442-.312c.182-.094.389-.125.591-.089 0 0 1.741.272 2.815 3.16.015.126-.013.252-.08.359-.066.108-.167.189-.286.231-.051.034-.108.058-.168.069-.06.012-.122.011-.182-.002-.059-.014-.116-.039-.165-.075-.05-.035-.091-.081-.123-.134 0 0-1.133-3.048-2.844-3.207z"
            fill="#fafafa" />
        <path
            d="m142.634 187.394s.041-.2.407-.295c.466-.118.62 0 .62 0s1.416.855 2.077 3.331c0 0 .159.407-.419.59s-.59-.307-.59-.307-1.051-3.06-2.095-3.319z"
            fill="#fafafa" />
        <path
            d="m121.059 151.926c4.567 7.016 18.294 31.712 18.294 31.712s-3.381 5.118-8.645 4.564l-20.054-29.98z"
            fill="#37474f" />
        <path
            d="m153.18 202.811c-.69-.684-3.777-5.736-3.777-5.736s2.314.766 5.713-.796c1.729-.796 3.033-3.107 3.033-3.107l2.579 4.94c1.251 1.563 4.049.401 7.43-.589.591-.171 1.145-.372 1.724-.59h.035c1.841-.424 3.907.36 2.248 2.288-1.658 1.928-4.721 3.083-7.589 4.127-3.429 1.232-8.823 1.987-11.396-.537z"
            fill="#b16668" />
        <path
            d="m179.826 197.27c.386.591.606 1.275.637 1.98.053.749-1.328 3.567-4.278 5.666-2.951 2.099-6.917 2.895-8.687 3.756-1.771.86-3.294 2.234-5.394 3.154-2.101.92-4.232 1.586-6.687.525-.513-.555-1.222-1.922-1.115-2.082.283-.442 25.524-12.999 25.524-12.999z"
            fill="#263238" />
        <path
            d="m161.212 197.587c.237.104.479.194.726.271.25.047.506.047.756 0 .587-.053 1.169-.153 1.741-.301 1.439-.365 2.838-.872 4.26-1.297 2.951-.861 6.109-2.5 8.263-2.152s4.467 2.388 2.26 5.931c-.845 1.377-1.923 2.596-3.187 3.603-3.045 2.063-6.551 2.493-8.652 3.419-2.732 1.209-4.072 2.747-6.657 3.537-3.352.997-5.665.502-6.42-.306-.419-.454-.591-3.196-1.452-5.182-.726-1.716-.874-2.948-.213-3.001.184.204.394.383.626.53.256.21.554.363.873.448.448.111.908.168 1.37.171.815.082 1.637.032 2.437-.147.225-.052.431-.169.59-.336.167-.263.241-.574.212-.884 0-.272 0-.543 0-.82-.005-.15.017-.3.065-.442.083-.158.2-.295.343-.401.459-.325.835-.753 1.097-1.25.137-.42.184-.864.136-1.303-.014-.075.001-.153.041-.218.083-.094.242-.059.36 0z"
            fill="#27debf" />
        <path
            d="m161.212 197.587c.237.104.479.194.726.271.25.047.506.047.756 0 .587-.053 1.169-.153 1.741-.301 1.439-.365 2.838-.872 4.26-1.297 2.951-.861 6.109-2.5 8.263-2.152s4.467 2.388 2.26 5.931c-.845 1.377-1.923 2.596-3.187 3.603-3.045 2.063-6.551 2.493-8.652 3.419-2.732 1.209-4.072 2.747-6.657 3.537-3.352.997-5.665.502-6.42-.306-.419-.454-.591-3.196-1.452-5.182-.726-1.716-.874-2.948-.213-3.001.184.204.394.383.626.53.256.21.554.363.873.448.448.111.908.168 1.37.171.815.082 1.637.032 2.437-.147.225-.052.431-.169.59-.336.167-.263.241-.574.212-.884 0-.272 0-.543 0-.82-.005-.15.017-.3.065-.442.083-.158.2-.295.343-.401.459-.325.835-.753 1.097-1.25.137-.42.184-.864.136-1.303-.014-.075.001-.153.041-.218.083-.094.242-.059.36 0z"
            fill="#000" opacity=".4" />
        <path
            d="m171.357 199.927s-.868-3.048-3.311-3.467c-.221-.058-.454-.053-.672.015-.218.067-.413.195-.562.369 0 0 2.184-.065 3.541 3.454 0 0 .154.224.591.059.147-.059.478-.177.413-.43z"
            fill="#fafafa" />
        <path
            d="m164.895 197.434s0-.106.507-.3c.202-.086.426-.101.637-.042 0 0 1.848.443 2.739 3.632.004.134-.038.265-.118.373-.08.107-.195.183-.325.217-.057.033-.12.054-.186.061-.065.007-.132 0-.194-.02-.063-.02-.121-.053-.171-.096-.049-.044-.088-.098-.116-.158 0 0-.956-3.348-2.773-3.667z"
            fill="#fafafa" />
        <path
            d="m163.071 197.823s.059-.212.466-.283c.508-.088.656.089.656.089s1.44 1.037 1.935 3.744c0 0 .13.454-.501.589-.632.136-.632-.377-.632-.377s-.826-3.396-1.924-3.762z"
            fill="#fafafa" />
        <path
            d="m143.153 162.006c3.305 5.866 11.514 23.406 15.746 32.119-2.129 2.591-5.157 4.286-8.481 4.746l-22.178-30.492 6.61-5.565z"
            fill="#455a64" />
        <path
            d="m67.502 155.976s26.8047-8.083 31.4669-9.356c4.6621-1.273 13.2131-2.977 15.8281-1.81 2.614 1.167 4.084 3.237 5.683 5.748 1.599 2.512 2.862 4.976 2.862 4.976s-17.563 4.793-28.1737 4.793c-10.6109 0-27.6663-4.351-27.6663-4.351z"
            fill="#37474f" />
        <path
            d="m69.3782 145.451c-1.6819 5.731-3.8655 15.96 3.8655 23.418 3.0216 2.912 20.319 12.174 30.9363 8.92 11.867-3.632 26.037-10.642 26.037-10.642s7.164.419 9.496-.925c2.331-1.345 3.753-3.573 3.44-4.216-3.694-7.664-6.775-11.65-14.789-10.848-9.797.985-26.114 3.95-26.114 3.95z"
            fill="#455a64" />
        <path
            d="m109.261 103.912c-5.075-4.4457-12.2039-2.418-16.1579 1.432-6.0727 5.896-9.6667 13.377-8.3388 17.098 1.5402 4.244 24.4967-18.53 24.4967-18.53z"
            fill="#455a64" />
        <path
            d="m169.22 129.875c.101-.737-.495-1.568-1.699-2.187l-14.04-7.169c-2.148-.959-4.567-1.128-6.828-.478l-12.848 4.428c-1.121.383-1.729.926-1.77 1.456 0 .389-.23 1.899-.248 2.329s.271.749.862 1.055c1.445.731 4.674.979 7.211.543l3.258-.56c2.537-.431 5.754-.195 7.188.536.874.416 1.573 1.126 1.977 2.005l-.761 2.588c-.18.475-.18.999 0 1.474l-.242.825c-.284.985-.378 2.017 2.071 3.107.773.384 1.63.567 2.493.532.862-.035 1.702-.287 2.441-.732l9.962-6.485c.19-.107.354-.254.481-.431.126-.178.212-.381.25-.595.047-.36.189-1.863.242-2.241z"
            fill="#455a64" />
        <path
            d="m152.926 133.59.048-6.798-4.255-1.114-.39 3.59c.678.096 1.336.294 1.954.59.873.416 1.573 1.125 1.977 2.004l-.307 1.061z"
            fill="#263238" />
        <path
            d="m168.441 128.295c1.281 1.179 1.375 1.533 1.021 6.173s-1.41 4.769-2.602 3.973-2.007-3.001-3.47-2.104z"
            fill="#455a64" />
        <path
            d="m132.897 127.01c1.445.731 4.668.979 7.211.543l3.252-.561c2.544-.43 5.76-.194 7.194.537s2.361 2.116 2.077 3.101l-1.109 3.791c-.284.985-.378 2.022 2.071 3.107.773.384 1.63.567 2.493.532.862-.035 1.702-.287 2.441-.732l9.962-6.444c1.292-.838.855-2.27-.968-3.208l-14.04-7.169c-2.148-.959-4.567-1.128-6.828-.477l-12.848 4.427c-1.941.678-2.348 1.816-.908 2.553z"
            fill="#27debf" />
        <path
            d="m132.897 127.01c1.445.731 4.668.979 7.211.543l3.252-.561c2.544-.43 5.76-.194 7.194.537s2.361 2.116 2.077 3.101l-1.109 3.791c-.284.985-.378 2.022 2.071 3.107.773.384 1.63.567 2.493.532.862-.035 1.702-.287 2.441-.732l9.962-6.444c1.292-.838.855-2.27-.968-3.208l-14.04-7.169c-2.148-.959-4.567-1.128-6.828-.477l-12.848 4.427c-1.941.678-2.348 1.816-.908 2.553z"
            fill="#000" opacity=".2" />
        <path
            d="m164.104 127.658c0-.123-.095-.247-.278-.347-.501-.234-1.074-.259-1.593-.071-.242.1-.372.242-.378.383-.006.142-.053.46-.059.56s.083.26.278.372c.248.115.516.181.79.192.273.011.546-.032.803-.128.236-.094.36-.23.378-.365.017-.136.065-.489.059-.596z"
            fill="#263238" />
        <path
            d="m160.711 129.057c0-.124-.089-.254-.278-.36-.5-.233-1.073-.258-1.593-.07-.23.094-.36.229-.378.371-.017.141-.059.472-.059.59 0 .117.083.259.278.365.248.116.516.181.79.192.273.011.546-.032.803-.127.236-.094.36-.23.378-.366.018-.135.059-.489.059-.595z"
            fill="#37474f" />
        <path
            d="m160.917 127.54c0-.13-.082-.259-.277-.371-.248-.116-.517-.182-.79-.193-.274-.011-.547.032-.804.128-.236.094-.36.23-.377.365-.018.136-.053.466-.059.59s.076.265.277.377c.499.233 1.07.258 1.588.071.242-.1.371-.236.383-.383.012-.148.053-.484.059-.584z"
            fill="#263238" />
        <path
            d="m163.897 129.203c0-.13-.082-.265-.277-.371-.501-.233-1.074-.258-1.593-.071-.236.1-.36.23-.378.371-.018.142-.047.46-.059.554-.012.095.071.278.271.39.501.232 1.074.258 1.594.07.236-.1.366-.23.383-.371.018-.142.054-.472.059-.572z"
            fill="#37474f" />
        <path
            d="m162.233 127.24c-.466.188-.514.53-.101.76.501.234 1.074.259 1.594.071.466-.194.513-.531.1-.76-.501-.234-1.074-.259-1.593-.071z"
            fill="#455a64" />
        <path
            d="m158.84 128.627c-.466.188-.513.53-.1.76.501.233 1.074.259 1.593.071.467-.189.514-.531.101-.761-.501-.233-1.074-.258-1.594-.07z"
            fill="#455a64" />
        <path
            d="m159.046 127.105c-.466.188-.513.53-.1.76.245.115.51.181.781.193.27.012.54-.029.795-.122.472-.189.519-.531.106-.761-.246-.115-.512-.18-.784-.192-.271-.013-.542.029-.798.122z"
            fill="#455a64" />
        <path
            d="m162.027 128.761c-.466.194-.514.536-.106.766.501.231 1.074.254 1.593.065.472-.189.519-.53.106-.76-.501-.233-1.074-.258-1.593-.071z"
            fill="#455a64" />
        <path
            d="m151.321 121.451-1.487-.831-1.7.696-1.493-.832-1.694.69-.065.631.868.483-1.009.413-.065.631 1.487.825 1.7-.689 1.487.831 1.699-.696.065-.625-.867-.489 1.009-.407z"
            fill="#37474f" />
        <path
            d="m149.834 120.62-1.699.696-1.493-.832-1.694.69 1.493.831-1.7.696 1.493.831 1.694-.695 1.493.831 1.694-.69-1.487-.831 1.693-.696z"
            fill="#455a64" />
        <path d="m147.928 122.836-.065.631-1.7.69.071-.625z" fill="#263238" />
        <path d="m149.628 122.147.62.342 1.009-.407.065-.631z" fill="#263238" />
        <path d="m151.115 122.977-.065.625-1.699.695.07-.631z" fill="#263238" />
        <path d="m146.441 122.005-1.493-.831-.071.666.873.448z" fill="#263238" />
        <path
            d="m133.682 120.107c3.54-.801 5.641-.188 8.663-.306.968-.042 1.8-.59 2.272-.472.921.177.85 1.12.26 1.769-.59.648-1.275 1.25-3.883 1.656-2.231.348-2.326.095-4.934.902l-2.862 1.333-1.004-2.459z"
            fill="#b16668" />
        <path d="m140.02 119.8c-1.879-.815-3.955-1.061-5.973-.708-2.885.69-1.853 3.638-1.853 3.638z"
            fill="#b16668" />
        <path d="m125.797 104.82-8.557 7.646-11.307-3.961 8.073-11.2081z" fill="#b16668" />
        <path d="m134.295 90.1562s2.868 4.351 2.543 4.7755c-.324.4245-2.437.8136-2.437.8136z"
            fill="#9a4a4d" />
        <path
            d="m126.328 78.1174c5.807 1.2263 7.483 3.7732 8.032 12.9704.59 9.6272-.413 12.6582-1.682 13.9552-.855.872-5.606 1.032-8.002.371-2.998-.825-9.779-3.225-12.954-8.0709-3.736-5.7011-4.721-13.4244-.72-16.5903 5.63-4.4395 12.96-3.1306 15.326-2.6354z"
            fill="#b16668" />
        <path
            d="m124.942 105.532c2.502.589 6.326.365 7.471-.26-1.405.274-2.857.189-4.22-.247-1.357-.392-2.647-.988-3.824-1.769z"
            fill="#9a4a4d" />
        <path
            d="m135.647 82.0971c-1.653 1.0848-3.653 1.5034-5.613 1.7687.118 1.5682-.407 3.1011-.926 4.5809-.36 1.0199-1.653 4.2331-2.951 2.4231-.927-1.3029-1.77-2.4939-3.6-2.2227-3.027.454-3.435 4.3039-1.528 6.6385 1.906 2.3347 3.682 1.4445 3.682 1.4445s.183 4.1269-2.077 7.0339c-1.218.589-2.545.922-3.897.977-1.353.055-2.702-.17-3.964-.659-2.874-1.02-6.964-4.7578-8.439-7.6644-4.06-7.9296-3.907-15.4289 1.28-17.6221.561-3.7378 3.512-5.4181 6.876-6.1904 4.662-1.0671 9.407 1.9455 13.933.1297.95-.3832 1.836-.9315 2.803-1.2617.264-.1198.552-.1778.841-.1696s.573.0823.83.2168c.382.3268.626.7859.684 1.2852.27.8873.185 1.8444-.236 2.6708.666-.3453 1.38-.5897 2.119-.7252.37-.0683.75-.0568 1.116.0337.365.0905.707.2579 1.002.491.505.496.797 1.1681.815 1.8748.141 1.9928-1.104 3.8617-2.75 4.9465z"
            fill="#263238" />
        <path
            d="m107.532 80.0806-3.476-2.0458c.28-.4415.722-.7568 1.231-.8792s1.046-.0424 1.497.2231.781.6957.921 1.1998c.139.5042.077 1.0428-.173 1.5021z"
            fill="#263238" />
        <path
            d="m109.261 103.912c-6.403-1.916-11.6676-.949-20.0301 7.004-9.1592 8.719-15.8987 23.47-18.2475 39.412 0 0 .3128 7.358 8.8523 12.257 9.0647 5.2 23.0633 3.927 28.6873-5.424 0 0 1.18-8.33 4.916-12.787 2.42-2.883 8.008-9.268 12.139-13.826 3.6-3.967 7.348-13.636 1.7-18.194-1.652-1.338-3.287-2.358-5.577-3.873-5.896 1.038-13.491-2.447-12.44-4.569z"
            fill="#27debf" />
        <path
            d="m109.261 103.912c-6.403-1.916-11.6676-.949-20.0301 7.004-9.1592 8.719-15.8987 23.47-18.2475 39.412 0 0 .3128 7.358 8.8523 12.257 9.0647 5.2 23.0633 3.927 28.6873-5.424 0 0 1.18-8.33 4.916-12.787 2.42-2.883 8.008-9.268 12.139-13.826 3.6-3.967 7.348-13.636 1.7-18.194-1.652-1.338-3.287-2.358-5.577-3.873-5.896 1.038-13.491-2.447-12.44-4.569z"
            fill="#fff" opacity=".75" />
        <path
            d="m126.086 129.946c.094-.118.189-.236.283-.366l.124-.165c.106-.141.207-.283.307-.43l.077-.118c.133-.197.263-.393.389-.59l.036-.053.342-.589.077-.136.301-.589.053-.107c.373-.726.702-1.474.985-2.24v-.041c.707-1.839 1.077-3.79 1.092-5.76-1.94 3.181-4.43 5.994-7.353 8.307-3.736 2.948-8.127 5.017-11.656 8.201-3.747 3.372-6.704 7.664-9.979 11.472-1.3163 1.527-3.252 4.552-5.2585 4.393-2.4491-.195-4.3376-3.479-5.3645-5.707-1.6347-3.538-2.8563-7.877-5.0635-11.108-1.9298-2.824-5.0104-6.526-8.3447-5.536-3.0148 6.875-5.0834 14.126-6.1494 21.555 0 0 .3128 7.358 8.8523 12.257.7607.443 1.5492.837 2.3606 1.179.2479.047.4898.094.7318.159 1.2216.313 2.3606.908 3.6235 1.179l.4485.089.5076.094.537.083.4662.064.5902.065.4072.042.6432.047h.3777.6551 1.0151.4131l.5901-.03.4604-.029.5429-.053.5075-.059.4899-.065.5901-.094.3836-.065c.2538-.047.5075-.1.7554-.159l.1534-.036c4.6442-1.09 8.9292-3.679 11.4372-7.847 0 0 .053-.401.183-1.067.035-.189.077-.407.124-.637.1-.466.218-1.008.366-1.603.509-2.108 1.227-4.16 2.142-6.126.332-.691.704-1.363 1.115-2.01.207-.313.419-.59.644-.914.112-.148.224-.289.342-.431l.49-.589c2.272-2.683 6.444-7.452 10.032-11.461.549-.619 1.092-1.215 1.606-1.769.129-.141.265-.295.395-.454z"
            fill="#27debf" opacity=".1" />
        <path
            d="m163.726 139.326c-1.977 3.148-2.361 5.118-10.918 5.784 0 0-16.04 10.058-21.198 11.903s-7.011-1.043-8.079-5.707c-1.069-4.663-3.895-22.25-3.895-22.25s-2.237-10.854 6.887-17.021c3.865 2.948 5.901 5.961 6.55 11.149.762 6.214 1.871 20.788 1.871 20.788s13.532-5.866 15.58-7.924c.596-.637 1.136-1.324 1.617-2.052.862-1.179 2.083-2.47 2.426-4.02.537-2.459 1.664-2.117 2.071-.767.475 1.739.461 3.575-.041 5.306 0 0 4.19 3.278 6.244 2.182l.549-.36c.229-.163.509-.239.789-.214s.542.149.739.35c.112.56.012.925-1.192 2.853z"
            fill="#b16668" />
        <path
            d="m125.502 111.027c5.146 2.423 7.672 6.297 8.203 12.157s1.24 16.048 1.24 16.048-.319 3.709-5.235 5.436c-1.391.514-2.884.693-4.357.523-1.474-.17-2.886-.685-4.124-1.502l-2.018-13.259s-2.909-14.385 6.291-19.403z"
            fill="#455a64" />
        <path
            d="m88.1278 153.937c-8.4215-10.3-16.2587-22.651-22.7327-26.377-11.6614-6.698-35.3501 8.041-37.9409 41.682-2.5907 33.64 22.2429 52.501 46.3152 57.659 12.3046 2.636 28.4686-.041 34.8186-2.234 19.334-6.686 30.169-16.054 34.819-28.995 5.082-14.179 1.24-22.71-5.376-26.342-2.974-1.596-6.395-2.162-9.726-1.609-23.517 3.696-33.662-5.819-40.1772-13.784z"
            fill="#27debf" />
        <path
            d="m117.506 221.088 1.068-.489c1.688-8.254.738-15.995-2.868-23.146-3.541-6.987-9.555-13.56-18.454-20.046-13.1368-9.568-18.2947-18.647-23.2638-27.432-1.8295-3.219-3.5409-6.261-5.6301-9.256-4.6208-6.662-9.2771-10.182-14.5767-11.013-2.1477-.32-4.3359-.244-6.4563.224-.7023.46-1.4577.955-2.1776 1.544 2.7209-.953 5.6312-1.24 8.4863-.837 5.0222.802 9.4425 4.192 13.9394 10.671 2.0597 2.948 3.7711 5.985 5.5829 9.186 5.034 8.843 10.2332 18.041 23.5353 27.709 11.4786 8.378 25.5716 21.661 20.8146 42.885z"
            fill="#000" opacity=".2" />
        <path
            d="m73.769 226.902c12.3046 2.636 28.469-.041 34.819-2.234 19.333-6.686 30.169-16.054 34.819-28.995.124-.348.236-.684.348-1.026-.094-.035-.189-.076-.289-.106-4.951-1.609-10.275.318-15.179 2.058-12.334 4.374-26.267 7.611-38.2062 2.258-7.8668-3.538-15.9636-9.038-20.1478-16.567s-6.1022-16.131-9.1415-24.172c-1.3691-3.626-2.6439-8.313-5.7245-11.845-2.8799-3.301-6.6923-5.707-11.0771-5.695-3.5999 0-6.9284 1.079-10.0326 4.752-3.3521 6.426-5.7658 14.421-6.4917 23.925-2.6025 33.64 22.2311 52.489 46.3034 57.647z"
            fill="#000" opacity=".1" />
        <path
            d="m245.922 198.931 16.761-9.681c.437-.286.801-.671 1.063-1.124.261-.453.412-.96.442-1.482v.195c-.028-.523-.179-1.031-.44-1.484-.262-.452-.627-.837-1.065-1.122l-33.698-19.456c-.467-.239-.984-.363-1.508-.363s-1.041.124-1.508.363l-16.754 9.663c-.439.285-.804.67-1.065 1.123-.262.453-.412.961-.44 1.483v-.195c.028.522.178 1.031.44 1.483.261.453.626.838 1.065 1.123l33.703 19.456c.465.237.979.362 1.5.365.522.003 1.037-.116 1.504-.347z"
            fill="#37474f" />
        <path
            d="m244.43 173.715 18.259 10.535c.439.286.803.67 1.065 1.123.261.453.412.961.44 1.483v-.194c-.029.521-.181 1.029-.442 1.482-.261.452-.625.837-1.063 1.124l-16.76 9.663c-.462.247-.981.371-1.505.359z"
            fill="#263238" />
        <path
            d="m262.689 185.984-16.755 9.668c-.467.236-.982.358-1.505.358s-1.038-.122-1.505-.358l-33.703-19.455c-.832-.484-.832-1.262 0-1.739l16.754-9.663c.467-.239.984-.363 1.508-.363s1.041.124 1.508.363l33.698 19.455c.832.478.832 1.256 0 1.734z"
            fill="#455a64" />
        <path
            d="m262.694 182.812v1.598l-17.397 10.023c-.192.115-.404.189-.626.218-.384.055-.775-.022-1.109-.218l-34.341-19.804v-1.656l33.703 19.491c.467.236.982.36 1.505.36s1.039-.124 1.505-.36z"
            fill="#27debf" />
        <path
            d="m262.695 182.812v1.598l-17.398 10.023c-.191.115-.404.189-.625.218h-.248v-1.839c.526.011 1.046-.113 1.511-.36z"
            fill="#000" opacity=".2" />
        <path
            d="m245.934 192.475 16.755-9.669c.438-.284.802-.668 1.064-1.12.261-.452.412-.959.44-1.48v-3.101c-.028-.521-.179-1.028-.44-1.48-.262-.452-.626-.836-1.064-1.12l-33.71-19.45c-.468-.235-.984-.358-1.508-.358-.523 0-1.04.123-1.508.358l-16.754 9.669c-.439.285-.803.67-1.065 1.123-.261.453-.412.961-.44 1.483v3.095c.029.514.181 1.013.442 1.456.262.444.627.818 1.063 1.091l33.704 19.497c.467.238.985.363 1.51.364s1.042-.122 1.511-.358z"
            fill="#37474f" />
        <path
            d="m244.43 163.969 18.259 10.541c.438.285.803.668 1.064 1.12.262.452.413.959.441 1.48v3.101c-.028.521-.179 1.029-.441 1.48-.261.452-.626.836-1.064 1.12l-16.754 9.669c-.464.244-.981.367-1.505.36z"
            fill="#263238" />
        <path
            d="m262.689 176.238-16.755 9.663c-.466.239-.981.363-1.505.363-.523 0-1.039-.124-1.505-.363l-33.703-19.455c-.832-.478-.832-1.256 0-1.734l16.754-9.657c.468-.235.984-.358 1.508-.358s1.04.123 1.508.358l33.698 19.456c.832.471.832 1.25 0 1.727z"
            fill="#455a64" />
        <g fill="#27debf">
            <path
                d="m239.318 168.557c1.853 1.073 1.853 2.8 0 3.862-1.043.523-2.194.795-3.361.795s-2.318-.272-3.361-.795c-1.859-1.062-1.859-2.789 0-3.862 1.042-.529 2.193-.805 3.361-.805s2.32.276 3.361.805z" />
            <path
                d="m211.948 169.689c.172.111.315.262.417.439.103.177.162.376.173.581 0 .383-.266.542-.59.353-.173-.11-.317-.26-.42-.438-.103-.177-.161-.377-.171-.581.006-.384.266-.543.591-.354z" />
            <path
                d="m211.948 171.959c.172.111.315.262.417.439.103.177.162.376.173.581 0 .383-.266.542-.59.359-.173-.112-.317-.263-.419-.442-.103-.178-.162-.378-.172-.584.006-.377.266-.536.591-.353z" />
            <path
                d="m59.7939 72.175v-8.8435l7.4773-.6485c.1078-.012.2167.0086.3128.059.2891.1592 6.3146 3.6199 6.4031 3.673.0703.0416.1305.0984.176.1662.0455.0679.0753.145.0872.2258s.0055.1632-.0186.2413c-.024.078-.0653.1497-.1207.2098l-7.9257 8.584z" />
            <path
                d="m66.1855 75.8354 7.9258-8.5841c.0734-.0814.1207-.1828.1358-.2912.0152-.1085-.0025-.2189-.0507-.3173-.0483-.0983-.1249-.1799-.22-.2343s-.2043-.0792-.3136-.071l-7.4773.6485z" />
            <path
                d="m59.7998 63.3257 6.3855 3.6671 7.4772-.6544c.0881-.0078.1768.0043.2596.0353-.5901-.3478-6.0667-3.4902-6.3382-3.6376-.096-.0504-.205-.0709-.3128-.0589z" />
        </g>
        <path
            d="m59.7998 63.3257 6.3855 3.6671 7.4772-.6544c.0881-.0078.1768.0043.2596.0353-.5901-.3478-6.0667-3.4902-6.3382-3.6376-.096-.0504-.205-.0709-.3128-.0589z"
            fill="#fff" opacity=".5" />
        <path
            d="m66.1853 56.2737c-.0372-.6434-.2247-1.2691-.5475-1.8271-.3228-.5579-.772-1.0326-1.3114-1.386l-1.5108-.8726c-.5759-.2893-1.2115-.44-1.8561-.44-.6445 0-1.2801.1507-1.856.44l-23.1635 13.3949c-.5414.3513-.992.8255-1.3151 1.3839s-.5094 1.1852-.5438 1.8293v25.4692c.0353.643.2221 1.2686.5451 1.8259s.7732 1.0306 1.3138 1.3813l1.5108.8726c.5759.2893 1.2115.44 1.8561.44.6445 0 1.2801-.1507 1.856-.44l23.1635-13.389c.5398-.3511.9891-.8245 1.3111-1.3819.322-.5573.5077-1.1828.5419-1.8254z"
            fill="#27debf" />
        <path
            d="m34.0811 94.2656c.0353.643.2221 1.2687.5451 1.826s.7732 1.0305 1.3138 1.3813l1.5108.8725c.5229.2634 1.0958.4128 1.6808.4382.5851.0254 1.1688-.0737 1.7126-.2908-.8734.3302-1.5403-.1592-1.5403-1.2145v-25.4751c.0216-.6437.2086-1.2711.5429-1.8218l-5.2228-3.0126c-.3351.5525-.5221 1.1819-.5429 1.8276z"
            fill="#000" opacity=".2" />
        <path
            d="m66.1263 55.7485c-.2183-.7841-.9324-1.0376-1.7704-.5424l-23.1989 13.389c-.5481.3405-.9977.8181-1.3043 1.3855l-5.2228-3.0127c.3106-.5648.7618-1.04 1.3101-1.3796l23.1635-13.3949c.5766-.2902 1.2133-.4414 1.859-.4414s1.2823.1512 1.859.4414l1.5048.8667c.4658.3039.8653.6987 1.1746 1.1607s.522.9816.6254 1.5277z"
            fill="#fff" opacity=".5" />
        <path
            d="m47.7546 70.5118 2.1009-1.2086v1.5447l2.0951-1.2086v3.2956l2.1009-1.2086v-3.2956l2.095-1.2145v-1.5447l2.101-1.2086v1.5447l2.1009-1.2087v3.2957l2.0951-1.2145v4.8462l-2.0951 1.2086v2.4232l-2.1009 1.2086v2.4231l-2.0951 1.2086v2.4231l-2.1009 1.2086v2.4172l-2.1009 1.2145v-2.4231l-2.0951 1.2086v-2.4172l-2.1009 1.2086v-2.4231l-2.101 1.2145v-2.4231l-2.095 1.2145v-4.8462l2.095-1.2086v-3.2957l2.101-1.2086z"
            fill="#fff" />
    </g>
</svg>