<svg fill="none" height="240" viewBox="0 0 247 240" width="247" xmlns="http://www.w3.org/2000/svg">
    <clipPath id="a">
        <path d="m0 0h247v240h-247z" />
    </clipPath>
    <g clip-path="url(#a)">
        <path
            d="m199.711 154.062-20.922 5.032-8.638 12.062 8.699 12.063 20.909 5.011 20.922-5.011 8.644-12.069-8.678-12.077z"
            fill="#0a0808" opacity=".3" />
        <path
            d="m199.664 180.493-8.732-1.288-6.143-.387 6.563 1.879 8.339 1.993 8.685-1.973 6.183-1.858-6.136.353z"
            fill="#c2c2c2" />
        <path
            d="m187.535 173.855-8.061.489 5.315 4.475 14.895 3.58 14.875-3.539 5.424-4.469-8.136-.502z"
            fill="#d6d6d6" />
        <path
            d="m230.281 152.245-7.62 2.055-10.522 11.154-24.902-.027-10.468-11.188-7.641-2.089 1.83 10.09 3.56 3.797 4.603 7.811.353.495 20.217 4.876 20.292-4.828.305-.427 3.844-6.964 4.312-4.699z"
            fill="#e0e0e0" />
        <path d="m179.928 171.008-5.472-7.33-3.498-1.438.068.387 8.095 11.228z" fill="#17435c" />
        <path d="m219.468 171.075 5.471-7.33 3.505-1.444-.068.393-8.088 11.269z" fill="#17435c" />
        <path
            d="m228.41 141.763-6.217 1.905-12.997 9.053-18.963-.041-12.983-9.059-6.197-1.926-1.925 10.456 9.01 12.497 21.567 5.194 21.627-5.154 8.949-12.442z"
            fill="#e6e6e6" />
        <path
            d="m220.023 130.066-5.37-4.428.604 3.316-.312 6.747-7.777 7.635-14.868-.02-7.769-7.642-.298-6.774.63-3.289-5.397 4.387-8.413 11.697 8.454 11.71 20.204 4.875 20.285-4.834 8.413-11.683z"
            fill="#ebebeb" />
        <path
            d="m214.654 125.638-6.515-1.926.766 2.366-.522 3.445-5.75 2.841h-5.783l-5.749-2.848-.508-3.492.766-2.319-6.495 1.905-6.197 8.578 6.163 8.632 14.881 3.573 14.929-3.533 6.17-8.611z"
            fill="#f2f2f2" />
        <path
            d="m208.138 123.712-3.484.386-9.845-.095-3.45-.298-3.397 4.828 3.458 4.821 8.318 2.027 8.4-2.014 3.458-4.821z"
            fill="#fafafa" />
        <path d="m193.955 131.252 5.749-.875 5.756.875 2.678-7.54-8.413-2.007-8.367 2z"
            fill="#17435c" />
        <path d="m205.461 168.451-5.756.882-5.749-.882-3.112 7.344 8.841 4.821 8.881-4.821z"
            fill="#17435c" />
        <path d="m175.582 153.174 8.461 4.855 7.017-6.93-3.39-9.154-9.64 1.668z" fill="#17435c" />
        <path d="m223.765 153.174-8.461 4.855-7.017-6.93 3.39-9.154 9.641 1.668z" fill="#17435c" />
        <path
            d="m49.6144 87.8027-2.6576 1.5392 11.2272 6.4891-39.7903 22.973-11.23408-6.489-2.65767 1.539 24.66475 14.239.1424.088 2.6644-1.539-11.5934-6.692 39.7904-22.9867 11.5934 6.6927 2.6644-1.533zm-33.2886 32.2143-10.63739-6.163 1.47121-.854 10.64418 6.15zm14.4613 6.652-1.478.807-11.0036-6.333 1.4712-.848zm27.9936-31.1906-10.6442-6.1365 1.4712-.8543 10.6374 6.1432zm1.9864 1.1527 1.478-.8544 10.9764 6.3533-1.4712.855z"
            fill="#000" opacity=".3" />
        <path d="m71.77 103.323-24.2173-13.9812v-.6035l24.2105 13.9887.6441-.095z" fill="#efcfa3" />
        <path d="m71.7632 102.726-24.2105-13.9886 2.0611-1.1866 24.224 13.9812-.7661.895z"
            fill="#f7edd4" />
        <path d="m71.7705 103.323 2.0678-1.186v-.604l-2.0746 1.194z" fill="#c7ae87" />
        <path d="m59.1396 77.7942v17.6499l1.0373.6103v-17.6567l-.122-.8137z" fill="#efcfa3" />
        <path d="m60.1768 78.3974v17.6568l2.0678-1.2002v-17.6567l-1.5051.0271z" fill="#c7ae87" />
        <path d="m59.1396 77.795 2.0611-1.1934 1.0441.5967-2.0679 1.2001z" fill="#c7ae87" />
        <path d="m29.3159 127.835-24.21727-13.982v-.603l24.21047 13.988.6441-.088z"
            fill="#efcfa3" />
        <path d="m29.3091 127.238-24.21047-13.989 2.06105-1.187 24.21732 13.982-.7662.888z"
            fill="#f7edd4" />
        <path d="m29.3154 127.835 2.061-1.193v-.597l-2.0678 1.193z" fill="#c7ae87" />
        <path d="m16.6846 102.306v17.65l1.0373.61v-17.657l-.1221-.813z" fill="#efcfa3" />
        <path d="m17.7227 102.91v17.657l2.0678-1.2v-17.65l-1.4983.027z" fill="#c7ae87" />
        <path d="m16.6846 102.306 2.0678-1.187 1.0373.597-2.0678 1.193z" fill="#c7ae87" />
        <path d="m9.74219 32.6074v72.9796l2.00001 1.139v-72.9727l-.0881-.5899z" fill="#efcfa3" />
        <path d="m11.7422 33.7545v72.9725l56.4686-32.6075v-72.97302l-52.9092 29.61092z"
            fill="#c7ae87" />
        <path d="m67.0859 73.2108-54.2109 31.2992v-.752l53.5601-30.9201z" fill="#f7edd4" />
        <path d="m66.4346 72.8383v-69.23007l.6508-.37971v69.98278z" fill="#efcfa3" />
        <path d="m66.4351 3.60742v69.23008l-53.5601 30.9195v-69.2232z" fill="#403531" />
        <path d="m9.74219 32.608 56.47531-32.608 1.9933 1.14592-56.4686 32.60798z" fill="#f7edd4" />
        <g fill="#fff">
            <path d="m62.421 14.9035-28.3868 16.3888v-2.0003l28.3868-16.3955z" />
            <path
                d="m19.0446 36.4929-1.3085 4.1362-.5288.3119 1.2949-4.1362-1.8508 1.0714v-.5357l2.3932-1.3561z" />
            <path d="m20.4748 37.2935-.9221.5357v-.5357l.9221-.5357z" />
            <path
                d="m24.0549 36.4328-.4881.8612-1.9458 1.1256-.4814-.278v-2.8411l.4814-.8273 1.9458-1.1255.4881.2712zm-.4678.0543v-2.3732l-.2034-.1289-1.5864.9154-.1966.3526v2.3732l.2034.1221 1.5864-.9154z" />
            <path
                d="m27.5391 34.4192-.4813.8408-1.9729 1.1188-.4814-.278v-2.814l.4814-.8272 1.9525-1.1256.4814.2712zm-.461.0542v-2.38l-.2101-.122-1.5797.9153-.2034.3391v2.3732l.2102.122 1.5796-.9153z" />
            <path d="m62.421 21.0344-28.3868 16.3888v-2.0071l28.3868-16.3888z" />
            <path
                d="m19.5592 45.1514-.4814.834-1.7966 1.0306-.4814-.2712.3254-.5696.3458.2035 1.4237-.8273.2034-.3526v-.9425l-1.8169 1.0442-.4814-.2712v-1.0984l.4814-.8341 1.7966-1.0577.4814.2712zm-.4611-1.4307v-.8951l-.2101-.1085-1.4238.8273-.2034.3458v.678l.2102.1221z" />
            <path d="m21.0715 43.0708-.9221.5357v-.5357l.9221-.5356z" />
            <path
                d="m24.6516 42.2102-.4813.834-1.9526 1.1256-.4814-.2712v-2.814l.4814-.834 1.9526-1.1256.4813.2712zm-.461.0542v-2.3732l-.2102-.122-1.6068.9153-.2034.3459v2.3664l.2034.1288 1.5865-.9154z" />
            <path
                d="m28.136 40.1946-.4814.834-1.9458 1.1256-.4881-.2713v-2.8139l.4881-.834 1.9458-1.1256.4814.2712zm-.461.0542v-2.3732l-.2034-.1221-1.5865.8951-.1966.3458v2.3664l.2034.1289 1.5865-.9154z" />
            <path d="m62.421 27.1555-28.3868 16.3888v-2.0003l28.3868-16.3956z" />
            <path
                d="m17.7626 52.8888-.4678.2712v-3.2005l-.1559.278-.3254-.1898.4813-.834.4678-.2645z" />
            <path
                d="m20.7938 48.8956-.4542.834-1.356.7797-.2101.3594v.8951l2.0339-1.1799v.5357l-2.5017 1.4443v-1.6409l.4813-.8408 1.356-.7866.2034-.3526v-.678l-.2034-.1289-1.1594.6849-.3389.5831-.339-.2034.4813-.834 1.5526-.9019.4814.2713z" />
            <path d="m22.2032 48.5426-.9288.5356v-.5356l.9288-.5289z" />
            <path
                d="m25.7629 47.6877-.4813.8272-1.9458 1.1256-.4881-.2712v-2.814l.4881-.834 1.9458-1.1256.4813.278zm-.461.0474v-2.3732l-.2034-.122-1.5729.9153-.1966.3459v2.38l.2034.122 1.5865-.9154z" />
            <path
                d="m29.2678 45.674-.4881.8272-1.9458 1.1256-.4814-.2712v-2.814l.4814-.834 1.9458-1.1256.4881.278zm-.461.0475v-2.3733l-.2102-.122-1.5864.9154-.1966.3458v2.38l.2034.122 1.5864-.8814z" />
            <path d="m62.421 33.2785-28.3868 16.3888v-2.0003l28.3868-16.3955z" />
            <path
                d="m17.7626 58.9915-.4678.2712v-3.1733l-.1559.2712-.3254-.1899.4813-.8272.4678-.2712z" />
            <path
                d="m20.7938 55.0187-.4542.834-1.356.7798-.2101.3594v.895l2.0339-1.1798v.5357l-2.5017 1.451v-1.6477l.4813-.8408 1.356-.7865.2034-.3458v-.6781l-.2034-.1221-1.1594.651-.3389.5899-.339-.1899.4813-.834 1.5526-.8882.4814.278z" />
            <path d="m22.2032 54.6724-.9288.5289v-.5289l.9288-.5357z" />
            <path
                d="m25.2752 54.0955-.4881.8273-1.5255.8815-.4813-.2781.3254-.5627.3458.1966 1.1525-.6781.2102-.3729v-.6781l-.1966-.122-.8814.5085v-.5356l.7255-.4137.3525-.6238v-.5221l-.2102-.1288-1.1593.678-.339.59-.3254-.1831.4813-.834 1.5255-.8815.4881.278v.9696l-.3186.5493.3186.1898z" />
            <path
                d="m28.7532 52.0959-.4814.8272-1.9525 1.1256-.4814-.2712v-2.814l.4814-.834 1.9525-1.1256.4814.278zm-.461.0474v-2.3732l-.2102-.122-1.5797.9154-.2034.3458v2.38l.2102.122 1.5797-.9154z" />
            <path d="m62.421 39.4094-28.3868 16.382v-2.0003l28.3868-16.3888z" />
            <path
                d="m17.7626 65.0932-.4678.2645v-3.1462l-.1559.2712-.3254-.1831.4813-.834.4678-.2644z" />
            <path
                d="m20.5632 60.1169-1.3017 4.1362-.5356.3051 1.3017-4.1294-1.8508 1.0646v-.5357l2.3864-1.3561z" />
            <path d="m22.0001 60.9097-.9288.5357v-.5357l.9288-.5288z" />
            <path
                d="m25.5734 60.0558-.4881.8272-1.9458 1.1256-.4881-.2712v-2.814l.4881-.834 1.9458-1.1324.4814.278zm-.461.0474v-2.3732l-.2034-.122-1.5864.9154-.1966.3458v2.38l.2033.122 1.5865-.9154z" />
            <path
                d="m29.0647 58.0429-.4881.8272-1.9458 1.1256-.4814-.2712v-2.814l.4814-.834 1.9458-1.1527.4881.278zm-.461.0475v-2.3732l-.2102-.1153-1.5864.9154-.1967.3458v2.38l.2034.122 1.5865-.9154z" />
            <path d="m62.421 45.5325-28.3868 16.3887v-2.0071l28.3868-16.3887z" />
            <path
                d="m17.7626 71.2434-.4678.2712v-3.1801l-.1559.278-.3254-.1898.4813-.834.4678-.2645z" />
            <path
                d="m20.5632 66.239-1.3017 4.1362-.5356.3119 1.3017-4.1362-1.8508 1.0646v-.5289l2.3864-1.3561z" />
            <path d="m22.0001 67.0396-.9288.5289v-.5289l.9288-.5357z" />
            <path
                d="m25.0846 66.4496-.4881.8408-1.5458.895-.4814-.278.3255-.5628.3457.1967 1.1526-.6781.2102-.3729v-.6781l-.1967-.0407-.8813.5086v-.5357l.7186-.4136.3594-.6238v-.5221l-.1967-.1628-1.1661.6781-.3322.5899-.3322-.1966.4746-.8273 1.5254-.8814.4882.278v.9696l-.3187.5492.3187.1899z" />
            <path
                d="m28.5491 64.4631-.4814.8272-1.9525 1.1595-.4814-.2713v-2.8478l.4814-.834 1.9525-1.1256.4814.278zm-.461.0474v-2.3732l-.2102-.122-1.5797.9153-.2034.3526v2.3732l.2102.1221 1.5797-.9154z" />
            <path d="m62.421 51.6555-28.3868 16.3888v-2.0003l28.3868-16.3956z" />
            <path
                d="m17.7626 77.3665-.4678.2712v-3.1733l-.1559.2712-.3254-.1899.4813-.8272.4678-.2712z" />
            <path
                d="m21.0846 74.8996-.4882.834-1.7898 1.0307-.4814-.2712.3254-.5696.339.2034 1.4305-.8272.1967-.3526v-.9425l-1.8102 1.0442-.4814-.2712v-1.0985l.4814-.834 1.7898-1.0306.4882.2712zm-.4678-1.4307v-.9154l-.2034-.122-1.4306.8476-.1966.3458v.678l.2034.1289z" />
            <path d="m22.5969 72.8169-.9221.5357v-.5357l.9221-.5357z" />
            <path
                d="m26.1769 71.9552-.4881.8341-1.9594 1.1188-.4814-.278v-2.8072l.4814-.834 1.9458-1.1256.4881.2712zm-.4678.0543v-2.3732l-.2034-.1289-1.5865.9154-.1966.3526v2.3732l.2034.1221 1.5865-.9154z" />
            <path
                d="m29.6614 69.9426-.5085.834-1.9254 1.0985-.4814-.278v-2.8072l.4814-.834 1.9254-1.0985.4814.2712zm-.461.0543v-2.3733l-.2034-.1288-1.5865.9154-.2034.3526v2.3732l.2102.122 1.5797-.9153z" />
            <path d="m62.421 57.7844-28.3868 16.382v-2.0003l28.3868-16.3888z" />
            <path
                d="m19.2682 80.3969-.4813.834-1.356.7798-.2034.3594v.895l2.0339-1.1798v.5357l-2.5017 1.4578v-1.6477l.4882-.8408 1.3559-.7865.1966-.3459v-.678l-.2034-.1221-1.1797.6781-.3389.5899-.3255-.1899.4882-.834 1.539-.8882.4813.278z" />
            <path
                d="m20.6718 81.8157-.461.2644v-3.1733l-.1627.278-.3254-.1899.4881-.834.461-.2644z" />
            <path d="m22.2032 79.1704-.9288.5357v-.5357l.9288-.5356z" />
            <path
                d="m25.7629 78.3098-.4813.834-1.9458 1.1256-.4881-.278v-2.8072l.4881-.834 1.9458-1.1256.4813.2712zm-.461.0542v-2.3732l-.2034-.1288-1.5864.9154-.1966.3526v2.3732l.2034.122 1.5864-.9154z" />
            <path
                d="m29.2678 76.2953-.4881.834-1.9458 1.1256-.4814-.278v-2.8072l.4814-.834 1.9458-1.1052.4881.2712zm-.461.0543v-2.3733l-.2102-.1288-1.5864.9154-.1966.3526v2.3732l.2034.122 1.5864-.9153z" />
            <path d="m62.421 63.9075-28.3868 16.3887v-2.0003l28.3868-16.3955z" />
            <path
                d="m19.2682 86.5208-.4813.834-1.356.7865-.2034.3526v.9019l2.0339-1.1799v.5289l-2.5017 1.4375v-1.6477l.4882-.834 1.3559-.7866.1966-.3525v-.6781l-.2034-.1221-1.1797.6781-.3389.5899-.3255-.1898.4882-.8273 1.539-.895.4813.278z" />
            <path
                d="m22.1832 84.8398-.4881.834-1.356.7866-.2034.3594v.895l2.0339-1.1798v.5357l-2.5085 1.4442v-1.6477l.4814-.834 1.3559-.7865.1967-.3526v-.6781l-.2034-.122-1.1526.6645-.3322.5899-.3254-.1831.4813-.834 1.5323-.929.4881.2713z" />
            <path d="m23.5871 84.4927-.9221.5357v-.5357l.9221-.5357z" />
            <path
                d="m27.1663 83.6321-.4814.834-1.9526 1.1256-.4813-.2713v-2.8139l.4813-.834 1.9526-1.1256.4814.278zm-.4611.0542v-2.3732l-.2101-.1221-1.5797.9154-.2034.3458v2.3732l.2102.1289 1.5797-.9154z" />
            <path
                d="m30.6516 81.6184-.4813.834-1.9458 1.1256-.4882-.2712v-2.814l.4882-.834 1.9458-1.1256.4813.278zm-.461.0542v-2.3393l-.2034-.122-1.5865.9153-.1966.3459v2.3732l.2034.1288 1.5865-.9289z" />
            <path d="m62.421 70.0305-28.3868 16.3888v-2.0003l28.3868-16.3956z" />
            <path
                d="m19.2682 92.6497-.4814.834-1.356.7798-.2033.3593v.8951l2.0339-1.1798v.5356l-2.5085 1.4443v-1.6409l.4881-.8408 1.356-.7866.1966-.3526v-.678l-.2034-.1288-1.1797.678-.339.5831-.3254-.183.4881-.834 1.539-.8883.4814.2712z" />
            <path
                d="m22.1495 92.6507-.4543.8408-1.5254.8814-.4814-.278.3187-.5628.3457.1967 1.1594-.6781.2101-.3661v-.6781l-.1966-.1221-.8813.5086v-.5357l.7186-.4136.3322-.5831v-.5221l-.2101-.1289-1.1458.651-.339.5831-.3187-.1831.4814-.834 1.5322-.8543.4882.278v.9696l-.3187.5492.3187.1899z" />
            <path d="m23.6544 90.5825-.9288.5357v-.5357l.9288-.5356z" />
            <path
                d="m26.7254 90.006-.4881.8544-1.5255.8815-.4813-.278.3254-.5628.3458.2034 1.1525-.6781.2102-.3661v-.6781l-.1966-.122-.8814.5085v-.5357l.7187-.4136.3593-.6238v-.5221l-.2102-.1221-1.1661.6781-.3322.5899-.3254-.1898.4813-.8341 1.5255-.8814.4881.278v.956l-.3186.5561.3186.183z" />
            <path
                d="m30.2036 88.0051-.4814.8205-1.9254 1.1391-.4814-.278v-2.814l.4814-.8272 1.9526-1.1256.4813.2712zm-.461.0542v-2.3732l-.2102-.1288-1.5797.9154-.2034.3526v2.3732l.2102.122 1.5797-.9153z" />
        </g>
        <path d="m.881836 150.99.00678 4.733 51.946484 30.004 1.5051-5.343-23.3766-16.382z"
            fill="#f4efe9" />
        <path d="m52.835 180.996v4.733h8.956l1.4034-6.211-5.756.4z" fill="#e0dedc" />
        <path d="m61.791 180.987v4.74l105.269-60.795v-4.733l-75.1465 29.469z" fill="#d1d1d1" />
        <path
            d="m61.7911 180.988-8.956.006-51.953264-30.004v-5.173l58.712664-21.895 46.5565-38.8868h8.949l51.96 29.9978v5.166l-60.265 23.163z"
            fill="#fff" />
        <path d="m167.06 120.199-60.909-35.1638-105.269164 60.7818 60.909264 35.171z" fill="#000" />
        <path d="m167.06 120.199-60.909-35.1638-105.269164 60.7818z" fill="#fff" opacity=".1" />
        <path d="m113.222 86.1133 39.431 22.7697-.657.379-39.432-22.7622z" fill="#4290b8" />
        <path d="m155.603 111.35.664-.379 8.909 5.146-.658.38z" fill="#8ccccb" />
        <path d="m54.6377 135.896v4.13l17.1799 9.92 1.5593-6.292-15.3154-7.229z" fill="#c84030" />
        <path d="m113.296 135.897-4.02-2.563-18.6715 11.31 5.5119 5.302 17.1796-9.92z"
            fill="#8a1c14" />
        <path d="m96.117 145.817-5.2069-2.163-19.0917 2.163v4.13h24.2986z" fill="#ab281f" />
        <path
            d="m113.296 121.867-17.1798-9.92h-24.2986l-17.1799 9.92v14.029l17.1799 9.92h24.2986l17.1798-9.92z"
            fill="#fa5c52" />
        <path
            d="m107.174 130.439v-3.113h-20.5156v-11.846h-5.3831v11.846h-20.5155v3.113h20.5155v11.845h5.3831v-11.845z"
            fill="#fff" />
        <path
            d="m190.26 195.16-12.76-7.371h-18.054l-42.224 24.39v10.415l12.759 7.384h18.055l42.224-24.39z"
            fill="#000" opacity=".3" />
        <path
            d="m166.287 177.823 1.301-20.024.99-3.641-13.885.36-1.647 9.431 2.156 11.243v3.214l5.62 4.149z"
            fill="#f0c6b4" />
        <path d="m155.202 178.405v7.296l5.146 5.588 7.241-4.577-1.634-3.94.332-4.95-5.464 2.516z"
            fill="#fff" />
        <path
            d="m137.121 199.588.84-6.083 4.007-14.171.644-10.449-11.735-2.862-2.502 7.656-.61 25.149 4.617 5.214z"
            fill="#f0c6b4" />
        <path
            d="m127.765 198.828-.183 7.852-.638 3.851 3.933 3.153 4.793-.793.4-5.736 1.051-7.567-4.685 2.257z"
            fill="#fff" />
        <path
            d="m153.771 194.149 6.516-4.082 7.302-2.292 8.63 4.733 5.526 1.065 2.217 5.723v1.071l-7.221.936-9.735-3.228-8.509-.068-4.726-2.786z"
            fill="#fff" />
        <path
            d="m125.419 211.65 5.112 5.588 8.122 4.665 4.407 2.461v1.105l-3.743 1.912-8.318-2.203-5.58-12.429z"
            fill="#fff" />
        <path
            d="m173.853 43.7617 5.105 6.6993 1.071 8.5232 3.797 6.645 2.922 11.4321 3.722-1.1594 8.841-.434 1.98 9.1809-11.173 4.8821-8.292-1.3561-6.882-4.2244-6.942-36.1339z"
            fill="#f0c6b4" />
        <path d="m182.396 59.5672.644 1.1527 7.017-9.3097z" fill="#fa5c52" />
        <path d="m186.132 67.7926 10.488-5.0719-10.739 3.7768z" fill="#fa5c52" />
        <path d="m184.301 62.9111.644 1.1527 14.929-10.1302z" fill="#fa5c52" />
        <path d="m175.019 45.2945-.651 2.4614-1.695 4.3532-1.01-2.2512 2.59-5.5669z"
            fill="#c7a495" />
        <path d="m176.219 114.904-3.912 39.613-11.024 3.851-9.756-3.851 1.519-37.219z"
            fill="#e09d38" />
        <path
            d="m134.314 122.309-5.533 43.925 8.238 5.872 12.224-3.289 10.61-40.358 8.149-4.001 8.217-9.554-26.726.672z"
            fill="#ffc654" />
        <path
            d="m150.408 41.9915-1.396 4.9634.698 9.2284 8.692 5.6889 7.247-1.668 3.383-4.9295v-9.7166l-12.99-5.689z"
            fill="#c7a495" />
        <path
            d="m137.527 57.4786 5.044-5.4855 6.441-5.038 2.475 8.6995 7.939 3.6344 4.536-.5492 2.44-4.0548v-5.5805l4.502-.6509 5.905 7.7299 3.221 12.9984-1.98 8.4351-1.024 36.527-9.546 9.018-17.281 2.048-11.384-1.614z"
            fill="#c84030" />
        <path
            d="m175.792 33.5431-.861 8.5639-3.22 10.3812-3.546 1.7629-3.22-.9154-7.601-4.8142-.874-3.0174-2.746-1.7426-1.593-2.9224v-6.8213l9.546-6.4416h11.112z"
            fill="#f0c6b4" />
        <path
            d="m153.725 43.7624-.312-3.6751 2.325-2.3732 2.902 2.0884-.109 4.482 2 .5628.57-4.977 2.861-3.2343 5.641-1.6613 3.254-3.1326v1.3629l-2.563 3.8243 6.516-3.2412v-5.0787l-3.648-5.3634-8.054-4.5159-6.692.278-6.285 2.9631-3.118 4.6244-.834 5.1465.366 4.5905 1.512 5.377 1.647 1.6748z"
            fill="#a87c49" />
        <path
            d="m137.527 57.4785-5.22 4.082-2.075 9.2894 2.719 28.56-2.319 9.4451 1.017 14.789 1.994 6.767 3.281-.17 3.783-7.187 2.76-11.622-.563-10.164 2.115-9.1609 1.268-21.6369-2.237-10.0286z"
            fill="#f0c6b4" />
        <path d="m152.179 138.521.868 1.024-6.326 1.689-.549-1.655z" fill="#e6e1dd" />
        <path d="m152.883 142.455.455-1.262-6.523.59.048 1.736z" fill="#a39c95" />
        <path d="m153.047 139.545.291 1.641-6.013 1.064-.319-.84.027-.801z" fill="#b5afa7" />
        <path
            d="m145.087 142.65.874 1.037.936-.163.461-1.274-.292-1.634-.861-1.038-.942.163-.461 1.275z"
            fill="#d8d1c7" />
        <path d="m146.206 132.297 3.993 4.733-3.498 3.173-2.522-7.554z" fill="#574943" />
        <path d="m149.412 150.347 2.115-5.797-4.38-1.79.224 7.953z" fill="#0a0808" />
        <path d="m150.199 137.029 1.328 7.486-2.033.359-1.485-3.837.156-3.655z" fill="#211a1a" />
        <path
            d="m139.066 146.74 3.986 4.746 4.319-.759 2.115-5.838-1.356-7.459-3.986-4.746-4.312.766-2.122 5.824z"
            fill="#362c29" />
        <path d="m143.928 132.697 4 4.733-3.499 3.173-2.529-7.54z" fill="#574943" />
        <path d="m147.135 150.754 2.115-5.804-4.366-1.79.217 7.954z" fill="#0a0808" />
        <path d="m147.927 137.43 1.315 7.485-2.02.36-1.485-3.831.156-3.655z" fill="#211a1a" />
        <path
            d="m136.795 147.14 3.986 4.747 4.319-.76 2.122-5.838-1.356-7.459-3.993-4.746-4.312.753-2.095 5.845z"
            fill="#362c29" />
        <path d="m141.853 140.352.874 1.03-11.986 2.672-.556-1.648z" fill="#e6e1dd" />
        <path d="m142.551 144.286.461-1.268-12.176 1.593.041 1.729z" fill="#a39c95" />
        <path d="m142.727 141.383.278 1.627-11.661 2.075-.325-.848.033-.8z" fill="#b5afa7" />
        <path
            d="m129.073 145.478.874 1.037.929-.169.468-1.262-.292-1.64-.881-1.051-.936.162-.467 1.282z"
            fill="#d8d1c7" />
        <path
            d="m135.385 141.485 1.634.149-.57 1.587-5.43 1.017-1.139-5.459 2.393-6.129 4.99-2.238 1.268 1.838 1.254 3.485-.183 5.011z"
            fill="#f0c6b4" />
        <path d="m131.649 123.645 4.536 1.023 4.522-1.613-2.176 9.194-2.834 1.187-3.424-.787z"
            fill="#0a0808" />
        <path d="m131.086 142.468 5.621-.943 4.63.57-.556 3.953-5.166 1.878-4.983.149-.57-2.678z"
            fill="#f0c6b4" />
        <path d="m128.992 135.334 3.993 4.733-3.491 3.173-2.529-7.547z" fill="#574943" />
        <path d="m132.205 153.397 2.108-5.811-4.366-1.783.21 7.953z" fill="#0a0808" />
        <path d="m132.985 140.066 1.329 7.493-2.034.366-1.485-3.844.156-3.662z" fill="#211a1a" />
        <path
            d="m121.852 149.778 4 4.746 4.305-.759 2.122-5.831-1.356-7.459-3.986-4.746-4.305.766-2.129 5.831z"
            fill="#362c29" />
        <path d="m126.748 135.734 3.993 4.726-3.498 3.181-2.529-7.54z" fill="#574943" />
        <path d="m129.954 153.792 2.108-5.805-4.366-1.79.21 7.961z" fill="#0a0808" />
        <path d="m130.741 140.461 1.322 7.506-2.034.353-1.485-3.845.156-3.655z" fill="#211a1a" />
        <path
            d="m119.601 150.176 3.993 4.747 4.312-.766 2.122-5.839-1.356-7.458-3.986-4.747-4.305.76-2.122 5.831z"
            fill="#362c29" />
        <path d="m124.253 143.457.868 1.031-6.326 1.681-.563-1.647z" fill="#e6e1dd" />
        <path d="m124.951 147.397.454-1.268-6.522.597.047 1.742z" fill="#a39c95" />
        <path d="m125.121 144.488.285 1.634-6.007 1.065-.326-.834.034-.8z" fill="#b5afa7" />
        <path
            d="m117.127 147.586.868 1.031.936-.149.468-1.275-.292-1.641-.874-1.031-.929.163-.468 1.275z"
            fill="#d8d1c7" />
        <path
            d="m147.398 77.6172 7.017 8.7673 15.174-6.6585 8.461-2.1088-8.387 2.997-15.675 6.7739z"
            fill="#ab281f" />
        <path d="m223.264 60.6113 1.173.6713-5.383 3.7497-1.078-1.3697z" fill="#e6e1dd" />
        <path d="m225.264 64.07v-1.3493l-5.925 2.7936.644 1.6138z" fill="#a39c95" />
        <path d="m224.437 61.2832.827 1.4307-5.282 3.0581-.59-.6713-.25-.7662z" fill="#b5afa7" />
        <path
            d="m217.976 66.9254 1.179.6781.827-.4747v-1.3561l-.827-1.4442-1.179-.6781-.828.4814v1.3561z"
            fill="#d8d1c7" />
        <path d="m215.528 56.8086 5.356 3.0716-2.19 4.1837-4.956-6.2314z" fill="#574943" />
        <path d="m224.701 72.6824.007-6.1839-4.726-.1899 2.929 7.4044z" fill="#0a0808" />
        <path d="m220.885 59.8789 3.81 6.5976-1.783 1.0238-2.705-3.0919-1.105-3.4988z"
            fill="#211a1a" />
        <path
            d="m213.745 72.8104 5.363 3.092 3.803-2.1902v-6.211l-3.803-6.5636-5.363-3.1056-3.797 2.1902v6.2042z"
            fill="#362c29" />
        <path d="m213.521 57.9473 5.377 3.0919-2.204 4.1837-4.949-6.2382z" fill="#574943" />
        <path d="m222.708 73.8338.007-6.1771-4.733-.1899 2.922 7.4044z" fill="#0a0808" />
        <path d="m218.898 61.0391 3.797 6.5975-1.79 1.0239-2.698-3.1123-1.099-3.4717z"
            fill="#211a1a" />
        <path
            d="m211.745 73.9638 5.363 3.0987 3.796-2.1901v-6.211l-3.796-6.5773-5.363-3.0919-3.804 2.1969v6.2043z"
            fill="#362c29" />
        <path d="m214.179 65.8594 1.173.6645-10.346 6.6111-1.078-1.3494z" fill="#e6e1dd" />
        <path d="m216.186 69.319v-1.3561l-10.902 5.6686.631 1.6138z" fill="#a39c95" />
        <path d="m215.352 66.5254.834 1.4375-10.271 5.9262-.59-.678-.237-.7527z" fill="#b5afa7" />
        <path
            d="m203.929 75.0486 1.166.678.82-.4746v-1.3561l-.827-1.4307-1.159-.6781-.834.4747v1.3561z"
            fill="#d8d1c7" />
        <path
            d="m205.087 69.1819 3.546-4.3329 5.105-.7865 3.16 4.5634-1.885 5.6414-5.743 6.7671-4.481-1.0781z"
            fill="#f0c6b4" />
        <path d="m200.389 65.541 5.363 3.0852-2.196 4.1836-4.956-6.2381z" fill="#574943" />
        <path d="m209.569 81.4217.007-6.1907-4.725-.1763 2.922 7.3909z" fill="#0a0808" />
        <path d="m205.752 68.627 3.817 6.5839-1.797 1.0375-2.705-3.0988-1.098-3.4988z"
            fill="#211a1a" />
        <path
            d="m198.647 81.5574 5.363 3.092 3.797-2.1969v-6.2043l-3.797-6.5704-5.376-3.1055-3.79 2.1833v6.2111z"
            fill="#362c29" />
        <path d="m198.41 66.6797 5.363 3.092-2.197 4.17-4.956-6.2314z" fill="#574943" />
        <path d="m207.582 82.5546.014-6.1771-4.726-.1763 2.929 7.3976z" fill="#0a0808" />
        <path d="m203.772 69.7734 3.811 6.5908-1.784 1.0307-2.705-3.1056-1.105-3.4852z"
            fill="#211a1a" />
        <path
            d="m196.613 82.7232 5.363 3.092 3.803-2.1901v-6.2043l-3.803-6.5772-5.363-3.1327-3.79 2.1902v6.2042z"
            fill="#362c29" />
        <path d="m198.701 74.7969 1.173.6713-5.376 3.7429-1.092-1.3562z" fill="#e6e1dd" />
        <path d="m200.708 78.2556v-1.3494l-5.933 2.7937.638 1.6138z" fill="#a39c95" />
        <path d="m199.874 75.4688.834 1.4374-5.295 3.0513-.583-.6713-.251-.7662z" fill="#b5afa7" />
        <path
            d="m193.42 81.1159 1.159.6781.834-.4747v-1.3561l-.834-1.4375-1.173-.678-.813.4746v1.3561z"
            fill="#d8d1c7" />
        <path d="m186.748 77.0625-6.142 6.1704-.577-1.4443z" fill="#c7a495" />
        <path
            d="m155.202 185.701 5.085 3.296 7.302-2.286 8.63 4.727 5.526 1.071 2.217 3.716v3.071l-7.221.936-9.735-3.221-8.509-.074-4.726-2.787z"
            fill="#c84030" />
        <path
            d="m127.182 205.622.434-.393-.034 1.451 1.044 2.834 5.796 1.546 1.648-3.906 1.403 4.564 5.221 9.703.366 2.942-3.743 1.919-8.318-2.203-5.58-12.429z"
            fill="#c84030" />
        <path
            d="m203.216 221.088-6.746-3.899h-9.349l-6.732 3.893v5.729l6.779 3.892h9.329l6.78-3.892z"
            fill="#000" opacity=".3" />
        <path d="m202.809 226.56-6.427 3.736-3.03-4.801 9.457-1.403z" fill="#0a0808" />
        <path d="m180.789 226.574 6.42 3.722 3.031-4.801-9.451-1.403z" fill="#362c29" />
        <path d="m196.382 230.297h-9.139v-2.475l4.848-.949 4.291.949z" fill="#211a1a" />
        <path
            d="m187.23 215.102-6.441 3.722v5.269l6.454 3.729h9.112l6.455-3.716v-5.262l-6.448-3.729z"
            fill="#574943" />
        <path d="m195.576 222.431-2.211 1.275-1.03-1.2 3.241-.475z" fill="#0a0808" />
        <path d="m188.029 222.438 2.197 1.268 1.037-1.2-3.234-.475z" fill="#362c29" />
        <path d="m193.366 223.706h-3.126v-.4l1.668-.326 1.458.326z" fill="#211a1a" />
        <path d="m190.24 218.953-2.211 1.275v1.804l2.211 1.274h3.125l2.21-1.274v-1.804l-2.21-1.275z"
            fill="#685750" />
        <path d="m190.823 219.76-1.396.8v1.166l1.396.8h1.96l1.396-.8v-1.132l-1.396-.807z"
            fill="#0a0808" />
        <path d="m202.274 223.889-6.427 3.729-3.024-4.8 9.451-1.404z" fill="#0a0808" />
        <path d="m180.253 223.889 6.42 3.729 3.031-4.8-9.451-1.404z" fill="#362c29" />
        <path d="m195.847 227.62h-9.132l-.007-2.482 4.848-.943 4.291.943z" fill="#211a1a" />
        <path
            d="m186.694 212.43-6.441 3.715v5.269l6.454 3.723h9.119l6.448-3.716v-5.269l-6.448-3.716z"
            fill="#574943" />
        <path d="m195.04 219.746-2.204 1.281-1.037-1.193 3.241-.488z" fill="#0a0808" />
        <path d="m187.494 219.746 2.197 1.281 1.037-1.193-3.234-.488z" fill="#362c29" />
        <path d="m192.836 221.027h-3.132v-.4l1.661-.332 1.471.332z" fill="#211a1a" />
        <path d="m189.698 216.301-2.204 1.281v1.797l2.21 1.282h3.126l2.21-1.275v-1.797l-2.21-1.288z"
            fill="#685750" />
        <path d="m190.28 217.075-1.389.807v1.132l1.389.801h1.967l1.396-.801v-1.139l-1.396-.807z"
            fill="#0a0808" />
        <path
            d="m52.7261 216.918-10.9358-6.313h-15.4646l-10.9357 6.313v8.93l2.9356 1.702-16.33244 9.215 5.60686 3.234 15.96628-9.425 2.7594 1.587h15.4646l10.9358-6.313z"
            fill="#0a0808" opacity=".3" />
        <path
            d="m41.7902 231.769 10.9358-6.313v-1.41l-3.5255-2.767-9.6069 4.469-5.3221 4.617v1.404z"
            fill="#17435c" />
        <path d="m26.3254 231.768h7.9459v-1.404l-18.8817-6.319v1.41z" fill="#c79d5c" />
        <path d="m7.60002 239.606-5.60686-3.234v-1.411l21.57314-6.197v1.41z" fill="#c79d5c" />
        <path
            d="m41.79 230.364 10.9357-6.319v-8.931l-10.9357-6.319h-15.4646l-10.9358 6.319v4.34l7.39 6.577 11.4917 4.333z"
            fill="#428aa8" />
        <path d="m26.3254 230.365h7.9459l-18.8817-10.91v4.591z" fill="#efcfa3" />
        <path d="m7.60002 238.204-5.60686-3.241 16.33244-9.215 5.2407 3.017z" fill="#efcfa3" />
        <path d="m7.6135 237.254-3.97971-2.299v-.474l22.23081-8.469v.474z" fill="#17435c" />
        <path d="m7.6135 236.779-3.97971-2.299 18.65111-10.537 3.5797 2.068z" fill="#428aa8" />
        <path
            d="m50.7329 195.886-10.9357-6.32h-15.4647l-10.9357 6.32v8.93l2.9424 1.695-16.3392 9.222 5.60686 3.234 15.96634-9.432 2.7593 1.594h15.4647l10.9357-6.313z"
            fill="#0a0808" opacity=".3" />
        <path
            d="m39.7971 210.735 10.9357-6.32v-1.403l-3.5255-2.774-9.6001 4.469-5.3289 4.617v1.411z"
            fill="#a3493c" />
        <path d="m24.3322 210.735h7.9459v-1.411l-18.8816-6.312v1.403z" fill="#c79d5c" />
        <path d="m5.60686 218.573-5.60686-3.235v-1.41l21.5732-6.198v1.411z" fill="#c79d5c" />
        <path
            d="m39.7968 209.324 10.9358-6.313v-8.93l-10.9358-6.319h-15.4646l-10.9357 6.319v4.34l7.3967 6.577 11.4849 4.326z"
            fill="#fca48f" />
        <path d="m24.3322 209.325h7.9459l-18.8816-10.903v4.59z" fill="#efcfa3" />
        <path d="m5.60686 217.163-5.60686-3.234 16.3392-9.222 5.234 3.024z" fill="#efcfa3" />
        <path d="m5.62034 216.221-3.97972-2.306v-.474l22.23078-8.462v.474z" fill="#a3493c" />
        <path d="m5.62034 215.739-3.97972-2.299 18.65108-10.53 3.5797 2.068z" fill="#fca48f" />
        <path
            d="m6.15565 219.793-3.3831.814-1.40341 1.952 1.41019 1.953 3.3831.807 3.38309-.807 1.40338-1.953-1.40338-1.959z"
            fill="#0a0808" opacity=".3" />
        <path
            d="m6.149 223.353-1.41019-.21-.99662-.061 1.05764.298 1.35595.326 1.40341-.319 1.0034-.298-.99662.054z"
            fill="#c2c2c2" />
        <path
            d="m4.19033 222.275-1.30849.082.86102.725 2.40682.577 2.41359-.57.87459-.725-1.31527-.082z"
            fill="#d6d6d6" />
        <path
            d="m11.1055 218.776-1.23394.333-1.7085 1.81-4.02718-.007-1.69493-1.81-1.23392-.332.30509 1.688 1.36951 1.898 3.27462.787 3.2814-.78 1.35595-1.892z"
            fill="#e0e0e0" />
        <path
            d="m10.8004 217.082-1.0102.312-2.09494 1.464-3.07123-.006-2.10851-1.465-1.0034-.319-.30509 1.702 1.45765 2.021 3.49157.841 3.49835-.834 1.4509-2.021z"
            fill="#e6e6e6" />
        <path
            d="m9.44403 215.189-.86781-.712.09492.536-.04746 1.092-1.26103 1.234-2.40682-.007-1.25425-1.234-.05424-1.092.10848-.535-.87459.705-1.36951 1.892 1.37629 1.898 3.26784.794 3.2814-.787 1.36275-1.892z"
            fill="#ebebeb" />
        <path
            d="m8.57674 214.477-1.05764-.312.12203.38-.08135.556-.92883.461h-.93561l-.9356-.461-.08136-.57.12882-.373-1.05087.312-1.0034 1.39.99662 1.397 2.40682.576 2.41359-.576 1.0034-1.39z"
            fill="#f2f2f2" />
        <path
            d="m7.51887 214.166-.57628-.143.10848.333-.16949.284-.34577.143-.74577-.007-.34577-.142-.16949-.285.10169-.326-.5695.136-.54916.787.55594.779 1.34917.326 1.35595-.326.56272-.779z"
            fill="#fafafa" />
        <path
            d="m6.94239 214.023-.77967-.183-.78645.183-.31865.454.31865.455.78645.183.78645-.183.31865-.455z"
            fill="#fff" />
        <path
            d="m103.602 206.999-.956-.868-5.2071-3.024-7.1256-1.119-7.1323 1.085-5.2136 3.058-.9559.841-2.034 4.428v.583l2.034 4.434.9491 1.038 5.2204 3.017 7.1188 1.112 7.1323-1.085 5.2269-3.003.956-1.031 2.068-4.428v-.576zm-5.9733 6.408-2.6644 1.539-4.6781.712-4.6848-.712-2.6509-1.539-.7864-1.702.678-1.431 2.7797-1.6 4.6848-.719 4.678.733 2.7797 1.613.678 1.438z"
            fill="#0a0808" opacity=".3" />
        <path d="m94.9775 206.843 3.417 1.987 4.2505-1.41-5.2132-3.018z" fill="#ffc654" />
        <path d="m90.3061 203.283-7.1323 1.092 2.4407 2.448 4.6849-.712 4.678.732 2.4543-2.441z"
            fill="#e09d38" />
        <path d="m86.1711 206.029-1.8034.265-1.2272 1.471-.9559 1.031 3.4305-1.973z"
            fill="#e09d38" />
        <path d="m80.5641 215.61-3.5797-1.038.9424 1.038 5.2204 3.017-.2441-.875z" fill="#e09d38" />
        <path
            d="m94.9571 216.206-4.6848.719-4.6713-.739-3.0102 1.64.556.801 7.1255 1.118 7.1255-1.085.7187-.901z"
            fill="#e09d38" />
        <path d="m102.645 207.42-4.2505 1.41 1.2543 2.699-1.2543 2.705 4.2305 1.424 1.919-4.115z"
            fill="#c84030" />
        <path
            d="m103.581 214.628-3.01.339-2.1766-.733-3.4374 1.974 1.3628 1.362 1.6271.292-.5492.8 5.2273-3.004z"
            fill="#e09d38" />
        <path d="m96.1982 206.66-1.7695-.617.5492.8 3.417 1.987-.9492-1.038z" fill="#e09d38" />
        <path d="m83.1472 207.182-1.3153.99-.2508 1.166.4406.827 1.1187-2.4z" fill="#ffc654" />
        <path d="m98.747 208.198-1.2949-.983-.0068.576 1.1119 2.401.4475-.828z" fill="#ffc654" />
        <path d="m86.1702 204.951-3.0238 2.231-.0068.583 3.0306-1.736z" fill="#ffc654" />
        <path d="m74.9365 209.549v.583l2.0475 4.441.3865-.834z" fill="#ffc654" />
        <path d="m76.9844 213.99v.583l5.6068 3.255.556-1.01z" fill="#ffc654" />
        <path d="m90.2723 217.529-7.6815-.284v.583l7.6815 1.207 7.6747-1.173.4339-1.167z"
            fill="#ffc654" />
        <path d="m94.4287 204.965v1.071l3.017 1.756.0068-.576z" fill="#ffc654" />
        <path d="m90.2998 204.205-4.1289 1.241v.583l4.1289-.637 4.1288.651v-.577z" fill="#ffc654" />
        <path d="m103.581 213.549-5.6337 3.729v.583l5.6337-3.234z" fill="#ffc654" />
        <path d="m105.649 209.615-1.302.977-.766 3.451v.583l2.068-4.434z" fill="#ffc654" />
        <path d="m85.6219 203.737-1.1797-.02-1.8102-1.824-5.634 3.234 6.1493 2.054 3.0238-1.735z"
            fill="#f2b63d" />
        <path d="m102.761 212.281-5.3222-.299-3.0306 1.743 3.539 3.553 5.6338-3.234z"
            fill="#f2b63d" />
        <path
            d="m95.9266 215.244-1.5187-1.519-4.1221.631-6.8543-1.024-.8407 3.912 7.6815 1.207 7.6747-1.173-.5424-1.708z"
            fill="#f2b63d" />
        <path d="m94.4287 205.466 3.0238 1.75 6.1495-2.041-5.6139-3.255z" fill="#f2b63d" />
        <path
            d="m103.601 205.175-.956-.841-4.237 1.41-.956 1.472 1.0984 2.387-1.1119 2.38 3.3835 1.139 1.81-.55.949 1.472 2.068-4.428z"
            fill="#f2b63d" />
        <path
            d="m83.1468 207.181-.9559-1.471-1.5119.651-.8611-.292-1.8644-1.79-.9559.848-2.0611 4.421 2.0475 4.441 6.1492-2.034-1.1051-2.387z"
            fill="#f2b63d" />
        <path d="m83.1336 211.956-.9559-.841-4.2442 1.404-.9491 1.471 5.6068 3.255.5627-1.702z"
            fill="#f2b63d" />
        <path
            d="m90.3133 200.721-7.6815 1.173 1.9458 1.953 1.0441-.109.5492 1.709 4.1288-.631 4.1289.651 3.5594-3.546z"
            fill="#f2b63d" />
        <path d="m101.54 211.487-1.8168-.536-1.3288.19-3.4305 1.98 2.4407 2.448 5.2274-2.997z"
            fill="#ffc654" />
        <path d="m97.066 204.355-2.0813-.597-.556 1.709 3.0238 1.749.9559-1.471z" fill="#f2b63d" />
        <path d="m96.6797 201.378.0813.224 3.0509 2.36 1.6751.373h1.159l-5.207-3.024z"
            fill="#ffc654" />
        <path
            d="m85.4787 202.598-.5289.074-1.0983-1.105.1288-.278h-.8l-5.2272 2.99 4.2374 1.431 3.4305-1.973z"
            fill="#ffc654" />
        <path
            d="m97.4385 201.31-7.1255-1.119-7.1323 1.099.6712.278.244.63.1899.19.6644.285.6712 1.065 4.6848-.719 4.678.739 1.7763-2.156z"
            fill="#ffc654" />
        <path
            d="m82.1912 205.71-1.1661-.78-.9898.054-.9153-.691-1.1661-.014-1.9119 4.123 1.8915 4.116 4.2442-1.404-1.2475-2.705z"
            fill="#ffc654" />
        <path d="m82.1778 211.115h-1.1594l-1.9119.631-1.1661.773 5.2137 3.024 2.4475-2.441z"
            fill="#ffc654" />
        <path
            d="m95.8856 214.044-.2508-.637-.6712-.285-4.678.712-4.6848-.732-.6712.284-.2509.638-.8542.461-.678 1.058 7.1255 1.118 7.1323-1.091-.6712-1.058z"
            fill="#ffc654" />
        <path
            d="m102.645 204.334h-1.159l-2.3457-.705-.7322 2.115 1.2475 2.699-1.2611 2.699 1.1661.007.9014.413 1.004.231 1.166.78 1.919-4.116z"
            fill="#ffc654" />
        <path d="m90.3127 200.584-6.4611.983 1.0983 1.105 5.356-.813 5.3492.834 1.1051-1.092z"
            fill="#ffec7a" />
        <path d="m81.0245 204.93-1.9051-.637-1.7356 3.723 1.722 3.729 1.9119-.631-1.4305-3.098z"
            fill="#ffec7a" />
        <path d="m90.2795 214.228-5.3492-.841-1.1051 1.098 6.4543 1.01 6.4543-.983-1.0983-1.105z"
            fill="#ffec7a" />
        <path d="m101.486 204.334-1.9119.631 1.4239 3.092-1.4375 3.091 1.9055.645 1.735-3.723z"
            fill="#ffec7a" />
        <path d="m83.8524 201.568-4.7323 2.726 1.9051.638 3.9255-2.258z" fill="#ffec7a" />
        <path d="m99.5602 211.148-3.9254 2.258 1.0983 1.106 4.7319-2.719z" fill="#ffec7a" />
        <path d="m98.3539 203.527-2.6983-.834-.6712 1.065 3.4237 1.987 1.1662-.78z"
            fill="#ffc654" />
        <path d="m95.6553 202.693 3.9187 2.272 1.912-.631-4.7256-2.732z" fill="#ffec7a" />
        <path d="m81.0183 211.115-1.9119.631 4.7188 2.739 1.1051-1.098z" fill="#ffec7a" />
        <path
            d="m121.927 182.488-.949-.841-5.214-3.024-7.132-1.119-7.126 1.092-5.2203 2.997-.9627.84-2.0339 4.428v.583l2.0339 4.435.9492 1.037 5.2068 3.024 7.126 1.119 7.118-1.098 5.227-3.004.956-1.031 2.068-4.427v-.577zm-5.994 6.407-2.664 1.533-4.678.719-4.685-.74-2.651-1.539-.766-1.722.678-1.431 2.787-1.6 4.684-.719 4.678.739 2.773 1.607.678 1.438z"
            fill="#0a0808" opacity=".3" />
        <path d="m113.304 182.332 3.423 1.986 4.238-1.403-5.207-3.024z" fill="#c84030" />
        <path d="m108.632 178.771-7.132 1.092 2.441 2.455 4.685-.719 4.678.732 2.454-2.441z"
            fill="#8a1c14" />
        <path d="m104.496 181.51-1.803.271-1.227 1.478-.956 1.024 3.43-1.966z" fill="#8a1c14" />
        <path d="m98.8825 191.098-3.5729-1.037.9424 1.03 5.214 3.024-.231-.868z" fill="#8a1c14" />
        <path
            d="m113.29 191.694-4.691.712-4.679-.732-2.996 1.648.542.793 7.126 1.119 7.132-1.085.725-.895z"
            fill="#8a1c14" />
        <path d="m120.965 182.914-4.238 1.404 1.248 2.705-1.261 2.699 4.237 1.424 1.919-4.116z"
            fill="#c84030" />
        <path
            d="m121.907 190.116-3.01.339-2.183-.732-3.424 1.973 1.356 1.363 1.634.291-.556.8 5.227-3.003z"
            fill="#8a1c14" />
        <path d="m114.523 182.142-1.769-.611.549.8 3.424 1.987-.956-1.031z" fill="#8a1c14" />
        <path d="m101.466 182.67-1.302.983-.2578 1.173.4408.827 1.119-2.393z" fill="#c84030" />
        <path d="m117.073 183.686-1.295-.983-.007.583 1.119 2.401.441-.828z" fill="#c84030" />
        <path d="m104.496 180.445-3.03 2.224v.59l3.03-1.749z" fill="#c84030" />
        <path d="m93.2627 185.043v.576l2.0475 4.442.3864-.834z" fill="#c84030" />
        <path d="m95.3096 189.484v.577l5.6134 3.261.549-1.017z" fill="#c84030" />
        <path d="m108.599 193.018-7.675-.278v.583l7.675 1.2 7.681-1.173.427-1.166z"
            fill="#c84030" />
        <path d="m112.754 180.459v1.065l3.017 1.762.007-.583z" fill="#c84030" />
        <path d="m108.632 179.693-4.136 1.241v.577l4.129-.631 4.129.651v-.576z" fill="#c84030" />
        <path d="m121.906 189.043-5.627 3.723v.583l5.627-3.235z" fill="#c84030" />
        <path d="m123.975 185.104-1.302.983-.766 3.444v.583l2.068-4.427z" fill="#c84030" />
        <path d="m103.954 179.225-1.18-.02-1.817-1.824-5.6338 3.234 6.1428 2.055 3.03-1.736z"
            fill="#ab281f" />
        <path d="m121.093 187.775-5.329-.298-3.024 1.735 3.539 3.553 5.627-3.234z" fill="#ab281f" />
        <path
            d="m114.253 190.739-1.512-1.525-4.129.63-6.854-1.024-.834 3.92 7.675 1.2 7.681-1.173-.542-1.709z"
            fill="#ab281f" />
        <path d="m112.754 180.954 3.024 1.75 6.149-2.034-5.614-3.262z" fill="#ab281f" />
        <path
            d="m121.927 180.67-.949-.848-4.244 1.411-.956 1.471 1.099 2.387-1.112 2.387 3.383 1.132 1.81-.549.949 1.471 2.068-4.428z"
            fill="#ab281f" />
        <path
            d="m101.466 182.671-.949-1.472-1.5119.651-.861-.291-1.8576-1.784-.9628.841-2.061 4.428 2.0475 4.441 6.1488-2.041-1.105-2.387z"
            fill="#ab281f" />
        <path d="m101.459 187.444-.956-.84-4.2443 1.403-.9491 1.478 5.6134 3.255.549-1.709z"
            fill="#ab281f" />
        <path
            d="m108.632 176.207-7.675 1.173 1.946 1.96 1.051-.116.542 1.709 4.136-.63 4.122.65 3.559-3.546z"
            fill="#ab281f" />
        <path d="m119.866 186.976-1.817-.529-1.328.183-3.431 1.98 2.448 2.448 5.22-2.997z"
            fill="#c84030" />
        <path d="m115.384 179.843-2.074-.597-.556 1.709 3.024 1.749.956-1.471z" fill="#ab281f" />
        <path d="m115.005 176.866.081.223 3.051 2.36 1.675.373h1.166l-5.214-3.017z"
            fill="#c84030" />
        <path
            d="m103.805 178.086-.529.081-1.098-1.105.129-.285h-.8l-5.2209 2.997 4.2309 1.424 3.437-1.973z"
            fill="#c84030" />
        <path
            d="m115.765 176.804-7.133-1.118-7.125 1.091.671.285.244.624.183.19.671.291.678 1.058 4.678-.719 4.678.739 1.777-2.156z"
            fill="#c84030" />
        <path
            d="m100.516 181.199-1.1657-.779-.9831.054-.9221-.692-1.1593-.007-1.9254 4.116 1.8983 4.116 4.2443-1.404-1.2409-2.705z"
            fill="#c84030" />
        <path d="m100.503 186.604h-1.1661l-1.9119.637-1.1594.766 5.2064 3.024 2.455-2.441z"
            fill="#c84030" />
        <path
            d="m114.219 189.539-.258-.644-.671-.285-4.678.712-4.685-.732-.671.285-.251.637-.854.461-.678 1.058 7.132 1.119 7.132-1.092-.678-1.058z"
            fill="#c84030" />
        <path
            d="m120.978 179.821h-1.166l-2.346-.698-.732 2.109 1.248 2.705-1.261 2.692 1.166.007.902.42 1.003.224 1.166.78 1.919-4.116z"
            fill="#c84030" />
        <path d="m108.632 176.078-6.454.983 1.098 1.106 5.356-.821 5.356.834 1.098-1.092z"
            fill="#fa5c52" />
        <path d="m99.3507 180.419-1.9051-.638-1.7356 3.723 1.7152 3.736 1.9119-.637-1.4237-3.092z"
            fill="#fa5c52" />
        <path d="m108.605 189.716-5.35-.841-1.105 1.098 6.455 1.011 6.454-.983-1.098-1.106z"
            fill="#fa5c52" />
        <path d="m119.812 179.822-1.912.631 1.424 3.099-1.437 3.085 1.905.644 1.735-3.729z"
            fill="#fa5c52" />
        <path d="m102.178 177.062-4.7327 2.72 1.9051.637 3.9256-2.251z" fill="#fa5c52" />
        <path d="m117.886 186.637-3.925 2.258 1.098 1.105 4.733-2.719z" fill="#fa5c52" />
        <path d="m116.679 179.016-2.691-.834-.678 1.064 3.423 1.987 1.166-.773z" fill="#c84030" />
        <path d="m113.988 178.182 3.912 2.278 1.912-.638-4.725-2.732z" fill="#fa5c52" />
        <path d="m99.3367 186.604-1.9119.63 4.7252 2.739 1.105-1.098z" fill="#fa5c52" />
        <path
            d="m231.861 209.522 8.075-4.658-2.617-1.512-18.95 10.95 2.61 1.506 8.082-4.665 15.125 8.726 2.814-1.62z"
            fill="#000" opacity=".3" />
        <path
            d="m230.586 199.465-8.102 4.679-15.105-8.706-2.807 1.613 15.106 8.713-8.041 4.645 2.61 1.512 18.949-10.951z"
            fill="#000" opacity=".3" />
        <path d="m206.559 183.293-1.153.671 15.214 9.412 1.071-1.343z" fill="#574943" />
        <path d="m204.579 186.732-.007-1.336 15.77 8.469-.637 1.607z" fill="#211a1a" />
        <path d="m205.406 183.965-.827 1.417 15.126 8.74.596-.671.231-.753z" fill="#362c29" />
        <path d="m222.512 193.844v-1.357l-.82-.467-1.16.678-.827 1.424v1.356l.827.468 1.16-.679z"
            fill="#0a0808" />
        <path d="m225.047 180.777-7.851 4.516 3.221 6.116 7.24-9.126z" fill="#574943" />
        <path d="m211.637 204.001-.014-9.038 6.895-.272-4.271 10.822z" fill="#211a1a" />
        <path d="m217.196 185.293-5.552 9.635 2.603 1.506 3.953-4.543 1.613-5.093z"
            fill="#362c29" />
        <path
            d="m233.224 194.563v-9.073l-5.54-3.207-7.844 4.55-5.6 9.601v9.08l5.546 3.2 7.851-4.523z"
            fill="#0a0808" />
        <path
            d="m231.732 194.705v-7.655l-4.678-2.712-6.624 3.838-4.705 8.136v7.663l4.691 2.712 6.617-3.818z"
            fill="#ff9f3d" />
        <path d="m231.78 184.67-7.844 4.509 3.213 6.123 7.248-9.127z" fill="#574943" />
        <path d="m218.362 207.894-.007-9.039 6.902-.271-4.278 10.815z" fill="#211a1a" />
        <path d="m223.935 189.18-5.559 9.642 2.603 1.505 3.96-4.543 1.607-5.092z" fill="#362c29" />
        <path
            d="m239.943 198.455v-9.072l-5.54-3.207-7.85 4.55-5.567 9.601v9.072l5.553 3.208 7.837-4.523z"
            fill="#0a0808" />
        <path
            d="m238.471 198.597v-7.662l-4.678-2.712-6.631 3.844-4.698 8.137v7.669l4.685 2.712 6.623-3.817z"
            fill="#ff9f3d" />
        <path d="m231.04 197.438-1.152.664 15.213 9.418 1.072-1.342z" fill="#574943" />
        <path d="m229.06 200.876-.006-1.343 15.769 8.476-.637 1.6z" fill="#211a1a" />
        <path d="m229.888 198.104-.827 1.423 15.125 8.734.597-.671.23-.746z" fill="#362c29" />
        <path d="m247 207.982v-1.356l-.827-.468-1.159.678-.827 1.417v1.357l.827.467 1.159-.678z"
            fill="#0a0808" />
    </g>
</svg>