<svg fill="none" height="22" viewBox="0 0 19 22" width="19" xmlns="http://www.w3.org/2000/svg">
    <path d="m3.49243 9.91406h11.7165v9.46336h-11.7165z" fill="#08f" />
    <path
        d="m18.4911 6.78571h-17.982171c-.281056 0-.508929-.22787-.508929-.50892v-1.52679c0-1.12431.911406-2.03571 2.03571-2.03571h2.03572v-2.205361c0-.281056.22787-.508929.50893-.508929h1.69643c.28105 0 .50892.227873.50892.508929v2.205361h5.42859v-2.205361c0-.281056.2279-.508929.5089-.508929h1.6964c.2811 0 .509.227873.509.508929v2.205361h2.0357c1.1243 0 2.0357.9114 2.0357 2.03571v1.52679c0 .28105-.2279.50892-.5089.50892zm-17.982171 1.35715h17.982171c.281 0 .5089.22787.5089.50892v11.02682c0 1.1243-.9114 2.0357-2.0357 2.0357h-14.92859c-1.124304 0-2.03571-.9114-2.03571-2.0357v-11.02682c0-.28105.227873-.50892.508929-.50892zm14.135271 4.06914-1.1946-1.2043c-.1979-.1996-.5202-.2009-.7197-.0029l-4.49713 4.4609-1.95005-1.9658c-.19793-.1996-.52021-.2009-.71975-.0029l-1.20434 1.1947c-.19954.1979-.20085.5202-.00288.7197l3.50317 3.5315c.19793.1996.52016.2009.71971.0029l6.06277-6.0141c.1995-.1979.2008-.5201.0028-.7197z"
        fill="#000" />
</svg>