<svg fill="none" height="15" viewBox="0 0 20 15" width="20" xmlns="http://www.w3.org/2000/svg">
    <path clip-rule="evenodd"
        d="m19.1062 9.87292c-.0404-.23076-.225-.53074-.4558-.60574-.3807-.14999-.9864-.26537-1.8922-.26537-.9057 0-2.0825-.34036-3.144-.8711-.1904-.07499-.4557-.07499-.6461 0-.225.11538-.5308.30575-.9057.60574-.0404.03461-.1154.03461-.1904.03461s-.1904-.03461-.2654-.11538c-.1154-.14999-.075-.34036.075-.45574.225-.19037.4558-.34036.6461-.45574.15-.075.15-.26537 0-.38075 0 0-.0403-.04038-.075-.07499-.15-.11538-.4153-.14999-.5653-.04038-.15.11537-.3404.22498-.5654.38074-.075.075-.1153.075-.1903.075-.1154 0-.1904-.04039-.2654-.11538-.1154-.14999-.075-.38075.075-.45574.1904-.14999.3807-.30575.5307-.38075.1904-.11538.3-.22499.2654-.26537v-.04038c-.075-.11538-.1154-.26537-.1904-.41536-.0404-.14999-.225-.22499-.3807-.14999-.1904.11538-.3808.22498-.5654.38074-.075.075-.1153.075-.1903.075-.1154 0-.1904-.04038-.26541-.11538-.11538-.14999-.075-.38074.07501-.45574.2654-.22499.5307-.38074.7557-.53074.15-.07499.2654-.29998.225-.49035-.0404-.075-.0404-.11538-.075-.19037-.0404-.19038-.1904-.26537-.3807-.19038-.225.14999-.5308.30575-.91153.60574-.04039.04038-.11538.04038-.19038.04038-.11537 0-.19037-.04038-.26536-.11538-.11538-.14999-.075-.34036.07499-.45574.45574-.34037.87108-.57112 1.17688-.72111.15-.075.2653-.29999.225-.49036-.1154-.60573-.1904-1.13647-.2654-1.51145-.0404-.22498-.225-.41536-.49036-.34036-.26537.075-.64612.22499-.9461.53074-.19038.14999-.26537.53073-.26537.75572v.53074s-.75572.22499-2.6133.22499l-1.8922-.04039s.075-1.13647-.56535-2.19794c-.11538-.190375-.41536-.26537-.60573-.15576l-.68073.41536c-.19037.11538-.22499.38074-.11538.56535.30575.53074.68073 1.59221.23076 3.06904-.30575.98648-.75573 1.62683-1.13647 2.15757 13.48183 4.28053 5.34198 2.30755-.340368.56535-.265368.45574-.415359.9461-.380746 1.62682.149991 1.74216.380746 2.38836.380746 2.38836l-.040382 1.3614c0 .15.11538.3404.30575.3808.49036.1153 1.55183.2999 2.46331.1903.15 0 .30576-.1903.30576-.3807v-.0346c0-.1904.14999-.3404.29998-.3404h.30575c.19037 0 .29998.1154.29998.3v.1904c0 .15.14999.3403.30575.3807.34037.075.9461.1154 1.59221 0 .19038-.0404.34037-.225.34037-.3807v-.075c0-.15.11538-.2654.30575-.225.38075.075 1.13647.3 1.62682.5653.15.1154.26537.3058.26537.4904 0 .15.14999.3057.30575.3404.41533.1153 1.09613.2249 1.55183.1903.15-.0346.2654-.2653.2654-.4153v-.1904c0-.15.15-.3058.3057-.3058h.1154c.1904 0 .3.15.3.3058v.3c0 .15.15.3807.3057.4153.3404.075.9461.1904 1.5922 0 .15-.0403.3-.2653.3-.4153v-.225c0-.1904.1154-.3.3058-.3404h.1154c.1499 0 .3057.15.3057.3058v.075c0 .15.15.3.3.2653.3-.0403.7211-.1499 1.0961-.3403.15-.1154.2653-.3058.2653-.4558s.1154-.3403.3-.3807l.3404-.075c.15-.075.3.0404.3.225 0 .1904.15.3.3057.2654.4558-.1154 1.2519-.3808 1.3615-1.0615.1154-.6808-.1154-2.1576-.2654-2.8787z"
        fill="#08f" fill-rule="evenodd" />
</svg>