<svg fill="none" height="18" viewBox="0 0 20 18" width="20" xmlns="http://www.w3.org/2000/svg">
    <path clip-rule="evenodd"
        d="m16.3775 2.77205c-.7961-.79611-1.7768-1.43645-2.8787-1.85758-1.0961-.455742-2.2729-.721111-3.51898-.721111s-2.38832.265369-3.52479.721111c-1.06148.41536-2.04219 1.06147-2.87867 1.89219-.83649.79611-1.47684 1.74221-1.93258 2.7633-.49036 1.09609-.721112 2.23256-.721112 3.44402 0 1.21142.224982 2.34792.721112 3.40942.45574 1.0615 1.09609 2.0076 1.93258 2.8037.83648.7961 1.81719 1.4422 2.87867 1.8922 1.13647.4557 2.30755.6807 3.52479.6807 1.21728 0 2.42288-.225 3.51898-.6807 1.0961-.4558 2.0826-1.0961 2.9133-1.8922.8365-.7961 1.4769-1.7422 1.9326-2.8037s.7211-2.2326.7211-3.40942c0-1.17685-.2654-2.34793-.7211-3.44402-.4557-1.02109-1.1365-1.96719-1.9672-2.80368zm-11.39931-.56535c.075-.075.14999-.11538.22499-.19037.45574-.29999.9461-.53074 1.43645-.75573 1.06148-.415357 2.19795-.646112 3.33442-.646112.75575 0 1.55185.115377 2.30755.30575-.3.115382-.6807.340362-1.2518.830722-.4904-.075-1.0211-.075-1.5115 0-.64611.04038-1.32684.19037-1.96718.41536-.60574.19037-1.06148.41536-1.36146.60573-.49613-.19037-1.09609-.38075-1.40184-.45574.04038 0 .14999-.075.19037-.11538zm8.25531 2.19794-1.5519 4.09014-3.70936.72111c-2.12295-2.12295-4.13052-2.91328-1.89219-5.71696 0 0 .64035-.45574 1.66721-.79611.60573-.22498 1.25185-.34036 1.85758-.41536.49036-.04038.98646-.04038 1.47686.04039l2.1575 2.08256zm-11.54934 4.31513c-.11538.60573-.11538 1.21147-.07499 1.85763-.075-.15-.15-.2654-.19038-.3808-.04038-.38074-.07499-.7961-.07499-1.17685 0-1.24608.26537-2.42293.75572-3.4844-.04038.56535 0 1.13647.04038 1.55183-.22498.53073-.38074 1.06147-.45574 1.62682zm.75573 3.21903c-.11538-.3404-.19038-.7961-.26537-1.3268-.04039-.6058-.04039-1.25188.07499-1.81724.075-.45574.19038-.8711.34037-1.28646 2.27294-1.89219 3.06904.19038 4.92662 2.04796l-.29998 3.33444c-2.72868.8711-2.99405 1.5922-4.77087-.9461zm5.94771 5.342c-.75572-.15-1.47683-.3808-2.15756-.6807-.57112-.3-1.13647-.6462-1.66721-1.0615.83072-1.4422-1.21146-.8365 2.91329-2.1576l3.44398 1.4365c.6058 2.5383.7212 2.3479-2.53826 2.4633zm8.711-3.4844c-.5307.7211-1.1365 1.4018-1.8576 1.8922-2.5729 1.7422-3.2536 1.0211-3.7843-1.0211l2.4229-2.4576c2.8037-.2249 3.144-1.021 3.369 1.3615-.075.075-.1154.15-.15.225zm-3.1844-2.1576-1.7018-2.91326 1.5518-4.09014 2.1979.11538c.4558.38074.8711.7961 1.2115 1.25185.4558.57112.7961 1.21146 1.0211 1.89219-.4903 4.09018-.6807 3.44398-4.2805 3.74978zm4.3555-4.96122c-.1904-.34036-.3807-.68072-.6461-1.02109-.3808-.49035-.8711-.98648-1.4019-1.40184-.0749-.45574-.3403-1.21146-1.0614-1.96719 0 0 0 .04039.0404.04039.0403.04038.075.07499.1153.07499.4904.38075.9461.83072 1.3615 1.28646.7211.8711 1.2865 1.8922 1.5922 2.99405z"
        fill="#08f" fill-rule="evenodd" />
</svg>