<svg fill="none" height="20" viewBox="0 0 22 20" width="22" xmlns="http://www.w3.org/2000/svg">
    <path clip-rule="evenodd"
        d="m17.0775 16.117 2.048 1.7768c.1904.15.4557.15.6057-.0403.075-.075.1154-.1904.1154-.3-.0404-.1154-.075-.225-.15-.3058l-2.0422-1.7768c-.1904-.15-.4557-.15-.6057.0404s-.1154.4557.0404.6057zm-13.40685.8711c.04038 0 .07499-.0404.07499-.075l.22499-.6807.68073-.2654c.03461 0 .07499-.0403.07499-.075l.19038-.6807.68073-.225c.04038-.0404.07499-.075.11537-.1154l.19037-.6807.68073-.225c.04039 0 .075-.075.075-.1153 0-.0404-.04038-.1154-.075-.1154l-3.14404-1.5519-.38074-.3403c-.22499-.225-.53074-.3404-.79611-.3404h-.04038c-.26537.0404-.56535.15-.79611.3808-.19037.2249-.29998.4903-.29998.7961 0 .3403.11538.6057.34036.8307l.38075.3404 1.66721 3.069c.04038.075.07499.075.14999.075zm2.53831-3.1786-.41536.15-1.51722-.9115c-.04038-.0404-.11538 0-.14999.075-.04038 0-.04038.0404-.04038.0404 0 .075.04038.1153.07499.1153l1.47684.8711-.19038.6058-.60573.1903-.45574-.4557c-.04038-.0404-.14999-.0404-.19037 0-.04039.0404-.04039.075-.04039.1154s0 .075.04039.075l.49035.4557-.19037.6057-.56535.225-1.59221-2.4229.34036-.3404 1.13647 1.1365c.07499.0404.14999.0404.19037 0 .04038-.075.04038-.15 0-.1904l-1.17685-1.1364.30575-.3.56535.3c.075.0403.14999.0403.19037-.0404.04039-.0404 0-.15-.07499-.1904l-.49036-.2654.075-.075 2.80368 1.3615zm-4.54588-.4904c-.19038-.1904-.26537-.3807-.26537-.6461 0-.225.07499-.4557.22498-.6057.34037-.3808.91149-.3808 1.25185-.0404l.30575.2654-1.21146 1.2864-.30575-.2654zm.45574.4904.07499-.075 1.51722 2.3883-.11538.4154zm2.53831-12.57043c-.9461.11538-1.78259.53074-2.42293 1.21147-.64612.75572-.98648 1.7422-.91149 2.87867.11538 1.51722.91149 3.06905 2.19795 4.20552 1.21146 1.06147 2.72868 1.62687 4.04975 1.66717.22499 0 .53074 0 .75573-.0403.91148-.1154 1.78256-.5308 2.38836-1.2519.6057-.68072.9114-1.59221.9461-2.57292 0-.07499 0-.19037-.0404-.26537-.075-1.55183-.8711-3.06904-2.19798-4.24013-.34036-.30575-.72111-.57112-1.09608-.7961-.9461-.53074-1.93258-.83072-2.87868-.8711-.22498 0-.57112.04038-.7961.07499zm3.29403.98648-.8711 1.02109-1.74221-1.51721.15-.19038c.83071 0 1.6672.26537 2.46331.68073zm3.29404 4.35551-.1904.19037-1.74218-1.51722.91148-1.02109c.5307.72111.8711 1.55183 1.0211 2.34794zm-.6807 2.99405-.83076-.75573 1.36146-1.55183.225.19038c-.0404.7961-.2654 1.51721-.7557 2.12295zm-2.23259 1.25189-.19038-.1904 1.36146-1.55185.83071.75573c-.53073.53072-1.25184.87112-2.00756.98652zm-3.33442-.6808.91148-1.02106 1.74221 1.55186-.19038.1903c-.7961-.0403-1.6672-.2653-2.46331-.7211zm-3.25365-4.35548.14999-.19037 1.7422 1.55183-.90571 1.02109c-.49036-.75572-.8711-1.55183-.98648-2.38255zm.64612-2.95367.8711.72111-1.40184 1.59221-.19038-.19037c0-.83072.26537-1.55183.72112-2.12295zm2.27294-1.25185.19037.15-1.36146 1.59221-.8711-.75573c.53074-.57112 1.25185-.8711 2.04795-.98648zm-2.53831 3.78439 1.36145-1.59221 1.74221 1.55183-1.36146 1.55183-1.7422-1.51722zm3.36902.19038 1.74221 1.51144-1.36146 1.59221-1.7422-1.55183zm2.00758 1.7422 1.7422 1.55183-1.36146 1.5518-1.7422-1.51719 1.36146-1.59221zm3.33441-.26537-1.36146 1.55183-1.7422-1.51722 1.36146-1.59221 1.7422 1.55183zm-3.36903-.19037-1.7422-1.55183 1.40184-1.55183 1.7422 1.51721-1.40184 1.59222zm-2.00757-1.78259-1.7422-1.51722 1.40184-1.59221 1.7422 1.55183-1.40184 1.55183zm-1.70182 4.20552c-.26537-.26537-.56535-.53074-.79611-.83072l.9461-1.06148 1.7422 1.51722-.94609 1.09609c-.30575-.22499-.64612-.45574-.9461-.72111zm5.4516-6.17271c.30575.26537.56535.56535.79612.83072l-.90573 1.09609-1.74221-1.55183.91149-1.06148c.34036.19038.64611.41536.94609.68073zm-7.49955-1.09609c-.755727.83072-1.096091 1.96719-1.021096 3.21904.115378 1.70182 1.021096 3.44402 2.497926 4.73626 2.57292 2.27294 6.09771 2.49794 7.94954.56534l3.7844 3.3344.0404.0404-.3808.4154c-.0404.0403-.0404.1153 0 .1903l.3058.7211v.0404c.0269 0 .0403.0135.0403.0404l4.7305 4.1248c0 .0403.075.075.1154.075s.075-.0404.1154-.075l1.4018-1.5922c.0404-.0404.0404-.075.0404-.1154s0-.075-.0404-.1154l-4.7305-4.1651-.0403-.0404h-.0404l-.7558-.225c-.0403 0-.1153 0-.1499.0404l-.3808.4557c0-.0404-.0346-.0404-.0346-.075l-3.7902-3.3344c.6808-.83071.9865-1.89219.9461-3.06904-.1153-1.7422-1.0211-3.44402-2.49789-4.77087-1.28646-1.09609-2.80368-1.776814-4.31513-1.857578-1.55183-.074995-2.87867.41536-3.78438 1.436448zm19.19887 15.71444-1.1769 1.3615-4.4709-3.9402 1.2115-1.3268 4.4305 3.8997zm-4.7709-4.0498-1.0615 1.1769-.15-.3807.8308-.9058.3807.1154zm-10.68397-12.772262c1.43645.074996 2.91329.721112 4.12475 1.782582 1.40182 1.25185 2.27292 2.87868 2.34792 4.5055.075 1.17685-.225 2.19795-.9461 2.99408-1.7018 1.9325-5.11121 1.7018-7.57452-.49038-1.40184-1.21147-2.27294-2.87868-2.38255-4.5055-.074996-1.13647.26537-2.19795.9461-2.95367.83072-.9461 2.04218-1.401838 3.4844-1.326843z"
        fill="#08f" fill-rule="evenodd" />
</svg>