<svg fill="none" height="18" viewBox="0 0 14 18" width="14" xmlns="http://www.w3.org/2000/svg">
    <path clip-rule="evenodd"
        d="m7.89131 1.44557c-.49035-.755719-1.51721-.986474-2.30755-.530733-.79611.455743-1.0211 1.436453-.56535 2.197943.49035.72111 1.55183.9461 2.31332.49036.79611-.45575 1.06148-1.40184.56535-2.15757zm-6.43807 12.61083c-.29998.2653-.29999.7211-.04039 1.021.26537.2654.64612.3.98648.1154.04039 0 .075-.0346.11538-.075l2.34794-2.0422c.14999-.1153.22498-.2653.26537-.4153l.30575-2.0826 2.65368-.1904v2.9191c0 .3807.34037.7211.75573.7211.14999 0 .26537-.0404.41536-.1154.19037-.1153.34036-.3403.34036-.6057l.04038-3.70939c0-.19038-.11537-.38075-.26536-.53074-.15-.11538-.38075-.19037-.56535-.19037l-2.38832.19037.68072-2.99405 2.15757.29998c.19037.04038.34036 0 .49035-.07499.14999-.11538.26541-.22499.34041-.41536l.6807-2.38832c.1154-.38075-.1154-.75573-.4904-.8711-.225-.04039-.41533 0-.6057.07499-.15.11538-.26537.22499-.30575.41536l-.53074 1.77682s-4.84586-.9461-5.71697-1.17109c-.26536-.04038-.41535-.04038-.56535.075-.07499.03461-.11537.075-.19037.11538l-2.082567 1.96719c-.3057505.26537-.3057505.72111 0 .98648.224987.22498.605733.26536.911487.11537.04038-.03461.07499-.07499.11538-.11537l1.81719-1.66721c.22499.04038 1.36146.34036 1.55183.41536-.30575 1.36146-.60573 2.72868-.91148 4.12475v.04038c0 .19038.04038.38076.11538.49036l-.22499 1.9326-2.19794 1.8576zm12.00506-8.52069-.1904-.04038c-.3807-.11538-.7557.11538-.8711.45574l-2.49792 8.97643-9.276362.7557c-.340365.0404-.6057333.3403-.6057333.7211v.1904c0 .3807.3057503.6807.6807283.6807h11.133987l2.1229-10.94358c.075-.34036-.15-.68073-.4903-.79611z"
        fill="#08f" fill-rule="evenodd" />
</svg>