<svg fill="none" height="21" viewBox="0 0 21 21" width="21" xmlns="http://www.w3.org/2000/svg">
    <path d="m6.01331 9.29297h8.74655v8.74655h-8.74655z" fill="#08f" />
    <path
        d="m9.17724 5.36281-2.83542-4.725425c-.11658-.19439-.28152-.355271-.47876-.466971-.19723-.1117003-.42004-.17041122-.64671-.170414h-4.558897c-.531154 0-.842054.597599-.537717 1.03278l4.563824 6.51986c1.21899-1.13901 2.76938-1.92077 4.49368-2.18983zm11.16526-5.36281h-4.5589c-.461 0-.8884.241993-1.1254.637385l-2.8354 4.725425c1.7243.26906 3.2747 1.05082 4.4936 2.18942l4.5639-6.51945c.3043-.435181-.0066-1.03278-.5378-1.03278zm-9.8425 6.56252c-3.98673 0-7.21877 3.23204-7.21877 7.21878 0 3.9867 3.23204 7.2188 7.21877 7.2188 3.9867 0 7.2188-3.2321 7.2188-7.2188 0-3.98674-3.2321-7.21878-7.2188-7.21878zm3.7948 6.45018-1.5558 1.5159.368 2.1418c.0656.3839-.3388.6772-.683.4959l-1.924-1.011-1.92364 1.011c-.34453.1825-.74853-.1124-.68291-.4959l.36791-2.1418-1.55573-1.5159c-.27972-.2724-.12509-.7478.26045-.8035l2.15046-.3134.96096-1.94907c.0866-.17555.2539-.26209.4217-.26209.1686 0 .3371.08777.4237.26209l.961 1.94907 2.1504.3134c.3856.0557.5402.5311.2605.8035z"
        fill="#000" />
</svg>